<svg xmlns="http://www.w3.org/2000/svg" xmlns:xlink="http://www.w3.org/1999/xlink" width="3000" zoomAndPan="magnify" viewBox="0 0 2250 2250.000011" height="3000" preserveAspectRatio="xMidYMid meet" version="1.0"><defs><g/><clipPath id="2201572605"><path d="M 0.5 0 L 2249.5 0 L 2249.5 2249 L 0.5 2249 Z M 0.5 0 " clip-rule="nonzero"/></clipPath><clipPath id="8c4ac2b815"><path d="M 238.367188 224.898438 L 2024.601562 224.898438 L 2024.601562 2011.132812 L 238.367188 2011.132812 Z M 238.367188 224.898438 " clip-rule="nonzero"/></clipPath><clipPath id="9af08efb41"><path d="M 1131.484375 224.898438 C 638.226562 224.898438 238.367188 624.761719 238.367188 1118.015625 C 238.367188 1611.273438 638.226562 2011.132812 1131.484375 2011.132812 C 1624.738281 2011.132812 2024.601562 1611.273438 2024.601562 1118.015625 C 2024.601562 624.761719 1624.738281 224.898438 1131.484375 224.898438 " clip-rule="nonzero"/></clipPath><clipPath id="615699bcfe"><path d="M 238.367188 224.898438 L 2024.820312 224.898438 L 2024.820312 2011.355469 L 238.367188 2011.355469 Z M 238.367188 224.898438 " clip-rule="nonzero"/></clipPath><clipPath id="0bb4e9b942"><path d="M 1131.59375 224.898438 C 638.277344 224.898438 238.367188 624.8125 238.367188 1118.128906 C 238.367188 1611.445312 638.277344 2011.355469 1131.59375 2011.355469 C 1624.910156 2011.355469 2024.820312 1611.445312 2024.820312 1118.128906 C 2024.820312 624.8125 1624.910156 224.898438 1131.59375 224.898438 " clip-rule="nonzero"/></clipPath></defs><g clip-path="url(#2201572605)"><path fill="#ffffff" d="M 0.5 0 L 2249.5 0 L 2249.5 2256.496094 L 0.5 2256.496094 Z M 0.5 0 " fill-opacity="1" fill-rule="nonzero"/><path fill="#ffffff" d="M 0.5 0 L 2249.5 0 L 2249.5 2249 L 0.5 2249 Z M 0.5 0 " fill-opacity="1" fill-rule="nonzero"/><path fill="#ffffff" d="M 0.5 0 L 2249.5 0 L 2249.5 2249 L 0.5 2249 Z M 0.5 0 " fill-opacity="1" fill-rule="nonzero"/></g><g clip-path="url(#8c4ac2b815)"><g clip-path="url(#9af08efb41)"><path fill="#fefefe" d="M 238.367188 224.898438 L 2024.601562 224.898438 L 2024.601562 2011.132812 L 238.367188 2011.132812 Z M 238.367188 224.898438 " fill-opacity="1" fill-rule="nonzero"/></g></g><g clip-path="url(#615699bcfe)"><g clip-path="url(#0bb4e9b942)"><path stroke-linecap="butt" transform="matrix(0.74976, 0, 0, 0.74976, 238.366218, 224.900136)" fill="none" stroke-linejoin="miter" d="M 1191.350878 -0.00226554 C 533.38534 -0.00226554 0.00129307 533.386991 0.00129307 1191.35253 C 0.00129307 1849.318068 533.38534 2382.702115 1191.350878 2382.702115 C 1849.316417 2382.702115 2382.705674 1849.318068 2382.705674 1191.35253 C 2382.705674 533.386991 1849.316417 -0.00226554 1191.350878 -0.00226554 " stroke="#000000" stroke-width="40" stroke-opacity="1" stroke-miterlimit="4"/></g></g><g fill="#000000" fill-opacity="1"><g transform="translate(513.001447, 832.792458)"><g><path d="M 13.140625 -200 L 85.71875 -200 C 110.476562 -200 128.859375 -194.238281 140.859375 -182.71875 C 152.859375 -171.195312 158.859375 -153.335938 158.859375 -129.140625 L 158.859375 -70.859375 C 158.859375 -46.671875 152.859375 -28.8125 140.859375 -17.28125 C 128.859375 -5.757812 110.476562 0 85.71875 0 L 13.140625 0 L 13.140625 -36.28125 L 32 -36.28125 L 32 -164 L 13.140625 -164 Z M 85.71875 -36 C 98.863281 -36 108.050781 -39.09375 113.28125 -45.28125 C 118.519531 -51.476562 121.140625 -61.144531 121.140625 -74.28125 L 121.140625 -129.140625 C 121.140625 -140.566406 118.519531 -149.234375 113.28125 -155.140625 C 108.050781 -161.046875 98.863281 -164 85.71875 -164 L 69.71875 -164 L 69.71875 -36 Z M 85.71875 -36 "/></g></g></g><g fill="#000000" fill-opacity="1"><g transform="translate(687.8599, 832.792458)"><g><path d="M 161.140625 -69.140625 C 161.140625 -57.328125 159.140625 -46.894531 155.140625 -37.84375 C 151.140625 -28.800781 145.710938 -21.1875 138.859375 -15 C 132.003906 -8.8125 124.144531 -4.097656 115.28125 -0.859375 C 106.425781 2.378906 97.144531 4 87.4375 4 C 77.71875 4 68.425781 2.378906 59.5625 -0.859375 C 50.707031 -4.097656 42.851562 -8.8125 36 -15 C 29.144531 -21.1875 23.71875 -28.800781 19.71875 -37.84375 C 15.71875 -46.894531 13.71875 -57.328125 13.71875 -69.140625 L 13.71875 -72.578125 C 13.71875 -84.191406 15.71875 -94.519531 19.71875 -103.5625 C 23.71875 -112.613281 29.144531 -120.28125 36 -126.5625 C 42.851562 -132.851562 50.707031 -137.617188 59.5625 -140.859375 C 68.425781 -144.097656 77.71875 -145.71875 87.4375 -145.71875 C 97.144531 -145.71875 106.425781 -144.097656 115.28125 -140.859375 C 124.144531 -137.617188 132.003906 -132.851562 138.859375 -126.5625 C 145.710938 -120.28125 151.140625 -112.613281 155.140625 -103.5625 C 159.140625 -94.519531 161.140625 -84.191406 161.140625 -72.578125 Z M 87.4375 -30.28125 C 92.570312 -30.28125 97.425781 -31.132812 102 -32.84375 C 106.570312 -34.5625 110.570312 -37.039062 114 -40.28125 C 117.425781 -43.519531 120.140625 -47.472656 122.140625 -52.140625 C 124.140625 -56.804688 125.140625 -62.09375 125.140625 -68 L 125.140625 -73.71875 C 125.140625 -79.625 124.140625 -84.910156 122.140625 -89.578125 C 120.140625 -94.242188 117.425781 -98.191406 114 -101.421875 C 110.570312 -104.660156 106.570312 -107.140625 102 -108.859375 C 97.425781 -110.578125 92.570312 -111.4375 87.4375 -111.4375 C 82.289062 -111.4375 77.429688 -110.578125 72.859375 -108.859375 C 68.285156 -107.140625 64.285156 -104.660156 60.859375 -101.421875 C 57.429688 -98.191406 54.71875 -94.242188 52.71875 -89.578125 C 50.71875 -84.910156 49.71875 -79.625 49.71875 -73.71875 L 49.71875 -68 C 49.71875 -62.09375 50.71875 -56.804688 52.71875 -52.140625 C 54.71875 -47.472656 57.429688 -43.519531 60.859375 -40.28125 C 64.285156 -37.039062 68.285156 -34.5625 72.859375 -32.84375 C 77.429688 -31.132812 82.289062 -30.28125 87.4375 -30.28125 Z M 87.4375 -30.28125 "/></g></g></g><g fill="#000000" fill-opacity="1"><g transform="translate(862.718353, 832.792458)"><g><path d="M 36 -141.71875 L 126.859375 -141.71875 L 126.859375 28 C 126.859375 37.90625 124.191406 45.238281 118.859375 50 C 113.523438 54.757812 106.570312 57.140625 98 57.140625 L 30.859375 57.140625 L 30.859375 22.859375 L 82.28125 22.859375 C 88 22.859375 90.859375 19.710938 90.859375 13.421875 L 90.859375 -107.4375 L 36 -107.4375 Z M 135.4375 -183.71875 C 135.4375 -179.90625 134.71875 -176.332031 133.28125 -173 C 131.851562 -169.664062 129.898438 -166.804688 127.421875 -164.421875 C 124.953125 -162.046875 122.050781 -160.144531 118.71875 -158.71875 C 115.382812 -157.289062 111.90625 -156.578125 108.28125 -156.578125 C 104.476562 -156.578125 100.957031 -157.289062 97.71875 -158.71875 C 94.476562 -160.144531 91.617188 -162.046875 89.140625 -164.421875 C 86.671875 -166.804688 84.71875 -169.664062 83.28125 -173 C 81.851562 -176.332031 81.140625 -179.90625 81.140625 -183.71875 C 81.140625 -187.53125 81.851562 -191.101562 83.28125 -194.4375 C 84.71875 -197.769531 86.671875 -200.625 89.140625 -203 C 91.617188 -205.382812 94.476562 -207.289062 97.71875 -208.71875 C 100.957031 -210.144531 104.476562 -210.859375 108.28125 -210.859375 C 111.90625 -210.859375 115.382812 -210.144531 118.71875 -208.71875 C 122.050781 -207.289062 124.953125 -205.382812 127.421875 -203 C 129.898438 -200.625 131.851562 -197.769531 133.28125 -194.4375 C 134.71875 -191.101562 135.4375 -187.53125 135.4375 -183.71875 Z M 135.4375 -183.71875 "/></g></g></g><g fill="#000000" fill-opacity="1"><g transform="translate(1037.576806, 832.792458)"><g><path d="M 161.140625 -69.140625 C 161.140625 -57.328125 159.140625 -46.894531 155.140625 -37.84375 C 151.140625 -28.800781 145.710938 -21.1875 138.859375 -15 C 132.003906 -8.8125 124.144531 -4.097656 115.28125 -0.859375 C 106.425781 2.378906 97.144531 4 87.4375 4 C 77.71875 4 68.425781 2.378906 59.5625 -0.859375 C 50.707031 -4.097656 42.851562 -8.8125 36 -15 C 29.144531 -21.1875 23.71875 -28.800781 19.71875 -37.84375 C 15.71875 -46.894531 13.71875 -57.328125 13.71875 -69.140625 L 13.71875 -72.578125 C 13.71875 -84.191406 15.71875 -94.519531 19.71875 -103.5625 C 23.71875 -112.613281 29.144531 -120.28125 36 -126.5625 C 42.851562 -132.851562 50.707031 -137.617188 59.5625 -140.859375 C 68.425781 -144.097656 77.71875 -145.71875 87.4375 -145.71875 C 97.144531 -145.71875 106.425781 -144.097656 115.28125 -140.859375 C 124.144531 -137.617188 132.003906 -132.851562 138.859375 -126.5625 C 145.710938 -120.28125 151.140625 -112.613281 155.140625 -103.5625 C 159.140625 -94.519531 161.140625 -84.191406 161.140625 -72.578125 Z M 87.4375 -30.28125 C 92.570312 -30.28125 97.425781 -31.132812 102 -32.84375 C 106.570312 -34.5625 110.570312 -37.039062 114 -40.28125 C 117.425781 -43.519531 120.140625 -47.472656 122.140625 -52.140625 C 124.140625 -56.804688 125.140625 -62.09375 125.140625 -68 L 125.140625 -73.71875 C 125.140625 -79.625 124.140625 -84.910156 122.140625 -89.578125 C 120.140625 -94.242188 117.425781 -98.191406 114 -101.421875 C 110.570312 -104.660156 106.570312 -107.140625 102 -108.859375 C 97.425781 -110.578125 92.570312 -111.4375 87.4375 -111.4375 C 82.289062 -111.4375 77.429688 -110.578125 72.859375 -108.859375 C 68.285156 -107.140625 64.285156 -104.660156 60.859375 -101.421875 C 57.429688 -98.191406 54.71875 -94.242188 52.71875 -89.578125 C 50.71875 -84.910156 49.71875 -79.625 49.71875 -73.71875 L 49.71875 -68 C 49.71875 -62.09375 50.71875 -56.804688 52.71875 -52.140625 C 54.71875 -47.472656 57.429688 -43.519531 60.859375 -40.28125 C 64.285156 -37.039062 68.285156 -34.5625 72.859375 -32.84375 C 77.429688 -31.132812 82.289062 -30.28125 87.4375 -30.28125 Z M 87.4375 -30.28125 "/></g></g></g><g fill="#000000" fill-opacity="1"><g transform="translate(1212.435259, 832.792458)"><g><path d="M 88 -30.28125 C 95.238281 -30.28125 101.191406 -31.375 105.859375 -33.5625 C 110.523438 -35.757812 114.144531 -38.710938 116.71875 -42.421875 C 119.289062 -46.140625 121.050781 -50.425781 122 -55.28125 C 122.957031 -60.144531 123.4375 -65.144531 123.4375 -70.28125 L 123.4375 -75.4375 L 161.140625 -75.4375 L 161.140625 -70.28125 C 161.140625 -46.476562 154.898438 -28.144531 142.421875 -15.28125 C 129.953125 -2.425781 111.8125 4 88 4 C 65.144531 4 47.050781 -2.953125 33.71875 -16.859375 C 20.382812 -30.765625 13.71875 -51.050781 13.71875 -77.71875 L 13.71875 -122.28125 C 13.71875 -135.050781 15.429688 -146.53125 18.859375 -156.71875 C 22.285156 -166.90625 27.234375 -175.472656 33.703125 -182.421875 C 40.179688 -189.378906 47.992188 -194.710938 57.140625 -198.421875 C 66.285156 -202.140625 76.570312 -204 88 -204 C 99.8125 -204 110.285156 -202.285156 119.421875 -198.859375 C 128.566406 -195.429688 136.234375 -190.476562 142.421875 -184 C 148.617188 -177.519531 153.285156 -169.707031 156.421875 -160.5625 C 159.566406 -151.425781 161.140625 -141.144531 161.140625 -129.71875 L 161.140625 -124.578125 L 123.4375 -124.578125 L 123.4375 -129.71875 C 123.4375 -134.476562 122.863281 -139.238281 121.71875 -144 C 120.570312 -148.757812 118.664062 -153.046875 116 -156.859375 C 113.332031 -160.671875 109.710938 -163.765625 105.140625 -166.140625 C 100.566406 -168.523438 94.851562 -169.71875 88 -169.71875 C 81.71875 -169.71875 76.289062 -168.523438 71.71875 -166.140625 C 67.144531 -163.765625 63.332031 -160.523438 60.28125 -156.421875 C 57.238281 -152.328125 55 -147.566406 53.5625 -142.140625 C 52.132812 -136.710938 51.421875 -131.046875 51.421875 -125.140625 L 51.421875 -74.859375 C 51.421875 -68.378906 52.085938 -62.425781 53.421875 -57 C 54.753906 -51.570312 56.847656 -46.859375 59.703125 -42.859375 C 62.566406 -38.859375 66.332031 -35.757812 71 -33.5625 C 75.664062 -31.375 81.332031 -30.28125 88 -30.28125 Z M 88 -30.28125 "/></g></g></g><g fill="#000000" fill-opacity="1"><g transform="translate(1387.293712, 832.792458)"><g><path d="M 161.140625 -69.140625 C 161.140625 -57.328125 159.140625 -46.894531 155.140625 -37.84375 C 151.140625 -28.800781 145.710938 -21.1875 138.859375 -15 C 132.003906 -8.8125 124.144531 -4.097656 115.28125 -0.859375 C 106.425781 2.378906 97.144531 4 87.4375 4 C 77.71875 4 68.425781 2.378906 59.5625 -0.859375 C 50.707031 -4.097656 42.851562 -8.8125 36 -15 C 29.144531 -21.1875 23.71875 -28.800781 19.71875 -37.84375 C 15.71875 -46.894531 13.71875 -57.328125 13.71875 -69.140625 L 13.71875 -72.578125 C 13.71875 -84.191406 15.71875 -94.519531 19.71875 -103.5625 C 23.71875 -112.613281 29.144531 -120.28125 36 -126.5625 C 42.851562 -132.851562 50.707031 -137.617188 59.5625 -140.859375 C 68.425781 -144.097656 77.71875 -145.71875 87.4375 -145.71875 C 97.144531 -145.71875 106.425781 -144.097656 115.28125 -140.859375 C 124.144531 -137.617188 132.003906 -132.851562 138.859375 -126.5625 C 145.710938 -120.28125 151.140625 -112.613281 155.140625 -103.5625 C 159.140625 -94.519531 161.140625 -84.191406 161.140625 -72.578125 Z M 87.4375 -30.28125 C 92.570312 -30.28125 97.425781 -31.132812 102 -32.84375 C 106.570312 -34.5625 110.570312 -37.039062 114 -40.28125 C 117.425781 -43.519531 120.140625 -47.472656 122.140625 -52.140625 C 124.140625 -56.804688 125.140625 -62.09375 125.140625 -68 L 125.140625 -73.71875 C 125.140625 -79.625 124.140625 -84.910156 122.140625 -89.578125 C 120.140625 -94.242188 117.425781 -98.191406 114 -101.421875 C 110.570312 -104.660156 106.570312 -107.140625 102 -108.859375 C 97.425781 -110.578125 92.570312 -111.4375 87.4375 -111.4375 C 82.289062 -111.4375 77.429688 -110.578125 72.859375 -108.859375 C 68.285156 -107.140625 64.285156 -104.660156 60.859375 -101.421875 C 57.429688 -98.191406 54.71875 -94.242188 52.71875 -89.578125 C 50.71875 -84.910156 49.71875 -79.625 49.71875 -73.71875 L 49.71875 -68 C 49.71875 -62.09375 50.71875 -56.804688 52.71875 -52.140625 C 54.71875 -47.472656 57.429688 -43.519531 60.859375 -40.28125 C 64.285156 -37.039062 68.285156 -34.5625 72.859375 -32.84375 C 77.429688 -31.132812 82.289062 -30.28125 87.4375 -30.28125 Z M 87.4375 -30.28125 "/></g></g></g><g fill="#000000" fill-opacity="1"><g transform="translate(1562.152165, 832.792458)"><g><path d="M 58.28125 0 L 22.28125 0 L 22.28125 -141.71875 L 58.28125 -141.71875 L 58.28125 -120.578125 L 63.421875 -120.578125 C 66.660156 -128.578125 71.898438 -134.765625 79.140625 -139.140625 C 86.378906 -143.523438 94.859375 -145.71875 104.578125 -145.71875 C 111.429688 -145.71875 117.859375 -144.617188 123.859375 -142.421875 C 129.859375 -140.234375 135.144531 -136.851562 139.71875 -132.28125 C 144.289062 -127.71875 147.859375 -121.910156 150.421875 -114.859375 C 152.992188 -107.804688 154.28125 -99.425781 154.28125 -89.71875 L 154.28125 0 L 118.28125 0 L 118.28125 -80.578125 C 118.28125 -90.671875 115.851562 -98.617188 111 -104.421875 C 106.144531 -110.234375 99.144531 -113.140625 90 -113.140625 C 79.332031 -113.140625 71.378906 -109.566406 66.140625 -102.421875 C 60.898438 -95.285156 58.28125 -85.71875 58.28125 -73.71875 Z M 58.28125 0 "/></g></g></g><g fill="#000000" fill-opacity="1"><g transform="translate(687.856417, 1232.560938)"><g><path d="M 147.71875 -60 C 147.71875 -39.238281 142.097656 -23.378906 130.859375 -12.421875 C 119.617188 -1.472656 104.191406 4 84.578125 4 C 74.472656 4 65.328125 2.617188 57.140625 -0.140625 C 48.953125 -2.898438 41.90625 -6.992188 36 -12.421875 C 30.09375 -17.859375 25.519531 -24.523438 22.28125 -32.421875 C 19.039062 -40.328125 17.421875 -49.519531 17.421875 -60 L 17.421875 -78.859375 L 55.140625 -78.859375 L 55.140625 -60 C 55.140625 -51.050781 57.613281 -44.050781 62.5625 -39 C 67.519531 -33.945312 74.476562 -31.421875 83.4375 -31.421875 C 91.8125 -31.421875 98.332031 -33.894531 103 -38.84375 C 107.664062 -43.800781 110 -50.851562 110 -60 L 110 -164.578125 L 89.4375 -164.578125 L 89.4375 -200 L 164.859375 -200 L 164.859375 -164.578125 L 147.71875 -164.578125 Z M 147.71875 -60 "/></g></g></g><g fill="#000000" fill-opacity="1"><g transform="translate(862.71487, 1232.560938)"><g><path d="M 114 -20.578125 C 110.1875 -11.617188 104.851562 -5.28125 98 -1.5625 C 91.144531 2.144531 83.144531 4 74 4 C 65.425781 4 57.378906 2.378906 49.859375 -0.859375 C 42.335938 -4.097656 35.71875 -8.859375 30 -15.140625 C 24.28125 -21.429688 19.753906 -29.050781 16.421875 -38 C 13.085938 -46.945312 11.421875 -57.140625 11.421875 -68.578125 L 11.421875 -73.140625 C 11.421875 -84.378906 13.039062 -94.472656 16.28125 -103.421875 C 19.519531 -112.378906 23.898438 -120 29.421875 -126.28125 C 34.953125 -132.570312 41.382812 -137.382812 48.71875 -140.71875 C 56.050781 -144.050781 63.90625 -145.71875 72.28125 -145.71875 C 82.382812 -145.71875 90.53125 -144.003906 96.71875 -140.578125 C 102.90625 -137.148438 107.8125 -131.816406 111.4375 -124.578125 L 116.578125 -124.578125 L 116.578125 -141.71875 L 152.578125 -141.71875 L 152.578125 -42.859375 C 152.578125 -37.140625 155.144531 -34.28125 160.28125 -34.28125 L 165.71875 -34.28125 L 165.71875 0 L 141.140625 0 C 134.671875 0 129.382812 -1.898438 125.28125 -5.703125 C 121.1875 -9.515625 119.140625 -14.472656 119.140625 -20.578125 Z M 82 -30.28125 C 92.476562 -30.28125 100.859375 -33.753906 107.140625 -40.703125 C 113.429688 -47.660156 116.578125 -57.140625 116.578125 -69.140625 L 116.578125 -72.578125 C 116.578125 -84.578125 113.429688 -94.050781 107.140625 -101 C 100.859375 -107.957031 92.476562 -111.4375 82 -111.4375 C 71.519531 -111.4375 63.132812 -107.957031 56.84375 -101 C 50.5625 -94.050781 47.421875 -84.578125 47.421875 -72.578125 L 47.421875 -69.140625 C 47.421875 -57.140625 50.5625 -47.660156 56.84375 -40.703125 C 63.132812 -33.753906 71.519531 -30.28125 82 -30.28125 Z M 82 -30.28125 "/></g></g></g><g fill="#000000" fill-opacity="1"><g transform="translate(1037.573323, 1232.560938)"><g><path d="M 50.859375 57.140625 L 14.859375 57.140625 L 14.859375 -141.71875 L 50.859375 -141.71875 L 50.859375 -121.140625 L 56 -121.140625 C 59.8125 -128.953125 65.335938 -135 72.578125 -139.28125 C 79.816406 -143.570312 89.050781 -145.71875 100.28125 -145.71875 C 108.664062 -145.71875 116.617188 -144.097656 124.140625 -140.859375 C 131.671875 -137.617188 138.242188 -132.90625 143.859375 -126.71875 C 149.472656 -120.53125 153.945312 -112.957031 157.28125 -104 C 160.613281 -95.050781 162.28125 -84.863281 162.28125 -73.4375 L 162.28125 -68.28125 C 162.28125 -56.664062 160.660156 -46.378906 157.421875 -37.421875 C 154.191406 -28.472656 149.8125 -20.898438 144.28125 -14.703125 C 138.757812 -8.515625 132.238281 -3.847656 124.71875 -0.703125 C 117.195312 2.429688 109.050781 4 100.28125 4 C 93.8125 4 88.191406 3.332031 83.421875 2 C 78.660156 0.664062 74.519531 -1.140625 71 -3.421875 C 67.476562 -5.710938 64.523438 -8.332031 62.140625 -11.28125 C 59.765625 -14.238281 57.71875 -17.335938 56 -20.578125 L 50.859375 -20.578125 Z M 88.578125 -30.28125 C 99.816406 -30.28125 108.910156 -33.753906 115.859375 -40.703125 C 122.804688 -47.660156 126.28125 -57.140625 126.28125 -69.140625 L 126.28125 -72.578125 C 126.28125 -84.578125 122.804688 -94.050781 115.859375 -101 C 108.910156 -107.957031 99.816406 -111.4375 88.578125 -111.4375 C 77.335938 -111.4375 68.238281 -107.863281 61.28125 -100.71875 C 54.332031 -93.570312 50.859375 -84.191406 50.859375 -72.578125 L 50.859375 -69.140625 C 50.859375 -57.523438 54.332031 -48.144531 61.28125 -41 C 68.238281 -33.851562 77.335938 -30.28125 88.578125 -30.28125 Z M 88.578125 -30.28125 "/></g></g></g><g fill="#000000" fill-opacity="1"><g transform="translate(1212.431776, 1232.560938)"><g><path d="M 114 -20.578125 C 110.1875 -11.617188 104.851562 -5.28125 98 -1.5625 C 91.144531 2.144531 83.144531 4 74 4 C 65.425781 4 57.378906 2.378906 49.859375 -0.859375 C 42.335938 -4.097656 35.71875 -8.859375 30 -15.140625 C 24.28125 -21.429688 19.753906 -29.050781 16.421875 -38 C 13.085938 -46.945312 11.421875 -57.140625 11.421875 -68.578125 L 11.421875 -73.140625 C 11.421875 -84.378906 13.039062 -94.472656 16.28125 -103.421875 C 19.519531 -112.378906 23.898438 -120 29.421875 -126.28125 C 34.953125 -132.570312 41.382812 -137.382812 48.71875 -140.71875 C 56.050781 -144.050781 63.90625 -145.71875 72.28125 -145.71875 C 82.382812 -145.71875 90.53125 -144.003906 96.71875 -140.578125 C 102.90625 -137.148438 107.8125 -131.816406 111.4375 -124.578125 L 116.578125 -124.578125 L 116.578125 -141.71875 L 152.578125 -141.71875 L 152.578125 -42.859375 C 152.578125 -37.140625 155.144531 -34.28125 160.28125 -34.28125 L 165.71875 -34.28125 L 165.71875 0 L 141.140625 0 C 134.671875 0 129.382812 -1.898438 125.28125 -5.703125 C 121.1875 -9.515625 119.140625 -14.472656 119.140625 -20.578125 Z M 82 -30.28125 C 92.476562 -30.28125 100.859375 -33.753906 107.140625 -40.703125 C 113.429688 -47.660156 116.578125 -57.140625 116.578125 -69.140625 L 116.578125 -72.578125 C 116.578125 -84.578125 113.429688 -94.050781 107.140625 -101 C 100.859375 -107.957031 92.476562 -111.4375 82 -111.4375 C 71.519531 -111.4375 63.132812 -107.957031 56.84375 -101 C 50.5625 -94.050781 47.421875 -84.578125 47.421875 -72.578125 L 47.421875 -69.140625 C 47.421875 -57.140625 50.5625 -47.660156 56.84375 -40.703125 C 63.132812 -33.753906 71.519531 -30.28125 82 -30.28125 Z M 82 -30.28125 "/></g></g></g><g fill="#000000" fill-opacity="1"><g transform="translate(1387.290229, 1232.560938)"><g><path d="M 58.28125 0 L 22.28125 0 L 22.28125 -141.71875 L 58.28125 -141.71875 L 58.28125 -120.578125 L 63.421875 -120.578125 C 66.660156 -128.578125 71.898438 -134.765625 79.140625 -139.140625 C 86.378906 -143.523438 94.859375 -145.71875 104.578125 -145.71875 C 111.429688 -145.71875 117.859375 -144.617188 123.859375 -142.421875 C 129.859375 -140.234375 135.144531 -136.851562 139.71875 -132.28125 C 144.289062 -127.71875 147.859375 -121.910156 150.421875 -114.859375 C 152.992188 -107.804688 154.28125 -99.425781 154.28125 -89.71875 L 154.28125 0 L 118.28125 0 L 118.28125 -80.578125 C 118.28125 -90.671875 115.851562 -98.617188 111 -104.421875 C 106.144531 -110.234375 99.144531 -113.140625 90 -113.140625 C 79.332031 -113.140625 71.378906 -109.566406 66.140625 -102.421875 C 60.898438 -95.285156 58.28125 -85.71875 58.28125 -73.71875 Z M 58.28125 0 "/></g></g></g><g fill="#000000" fill-opacity="1"><g transform="translate(775.279524, 1632.329417)"><g><path d="M 159.140625 -36 L 159.140625 0 L 18.578125 0 L 18.578125 -39.421875 C 18.578125 -49.898438 20.144531 -58.851562 23.28125 -66.28125 C 26.425781 -73.71875 30.898438 -80.003906 36.703125 -85.140625 C 42.515625 -90.285156 49.515625 -94.523438 57.703125 -97.859375 C 65.898438 -101.191406 75.144531 -104 85.4375 -106.28125 C 93.050781 -108 99.285156 -109.953125 104.140625 -112.140625 C 109.003906 -114.335938 112.863281 -116.816406 115.71875 -119.578125 C 118.570312 -122.335938 120.519531 -125.382812 121.5625 -128.71875 C 122.613281 -132.050781 123.140625 -135.8125 123.140625 -140 C 123.140625 -148 120.234375 -154.664062 114.421875 -160 C 108.617188 -165.332031 100.570312 -168 90.28125 -168 C 79.425781 -168 70.757812 -164.710938 64.28125 -158.140625 C 57.8125 -151.566406 54.578125 -142.472656 54.578125 -130.859375 L 54.578125 -118.28125 L 16.859375 -118.28125 L 16.859375 -134.28125 C 16.859375 -143.613281 18.523438 -152.519531 21.859375 -161 C 25.191406 -169.476562 29.953125 -176.90625 36.140625 -183.28125 C 42.328125 -189.664062 49.894531 -194.710938 58.84375 -198.421875 C 67.800781 -202.140625 77.898438 -204 89.140625 -204 C 101.140625 -204 111.613281 -202.238281 120.5625 -198.71875 C 129.519531 -195.195312 137 -190.578125 143 -184.859375 C 149 -179.140625 153.472656 -172.519531 156.421875 -165 C 159.378906 -157.476562 160.859375 -149.71875 160.859375 -141.71875 L 160.859375 -138.28125 C 160.859375 -121.519531 156.144531 -107.613281 146.71875 -96.5625 C 137.289062 -85.519531 121.910156 -77.523438 100.578125 -72.578125 C 91.617188 -70.472656 84.234375 -68.328125 78.421875 -66.140625 C 72.617188 -63.953125 68.097656 -61.523438 64.859375 -58.859375 C 61.617188 -56.191406 59.378906 -53.285156 58.140625 -50.140625 C 56.898438 -46.992188 56.28125 -43.421875 56.28125 -39.421875 L 56.28125 -36 Z M 159.140625 -36 "/></g></g></g><g fill="#000000" fill-opacity="1"><g transform="translate(950.137977, 1632.329417)"><g><path d="M 63.421875 -100 C 63.421875 -106.476562 65.800781 -112.097656 70.5625 -116.859375 C 75.332031 -121.617188 80.957031 -124 87.4375 -124 C 93.90625 -124 99.519531 -121.617188 104.28125 -116.859375 C 109.050781 -112.097656 111.4375 -106.476562 111.4375 -100 C 111.4375 -93.519531 109.050781 -87.898438 104.28125 -83.140625 C 99.519531 -78.378906 93.90625 -76 87.4375 -76 C 80.957031 -76 75.332031 -78.378906 70.5625 -83.140625 C 65.800781 -87.898438 63.421875 -93.519531 63.421875 -100 Z M 13.71875 -122.28125 C 13.71875 -148.1875 20.238281 -168.28125 33.28125 -182.5625 C 46.332031 -196.851562 64.382812 -204 87.4375 -204 C 110.476562 -204 128.519531 -196.851562 141.5625 -182.5625 C 154.613281 -168.28125 161.140625 -148.1875 161.140625 -122.28125 L 161.140625 -77.71875 C 161.140625 -51.050781 154.613281 -30.765625 141.5625 -16.859375 C 128.519531 -2.953125 110.476562 4 87.4375 4 C 64.382812 4 46.332031 -2.953125 33.28125 -16.859375 C 20.238281 -30.765625 13.71875 -51.050781 13.71875 -77.71875 Z M 87.4375 -30.28125 C 94.289062 -30.28125 100.003906 -31.375 104.578125 -33.5625 C 109.148438 -35.757812 112.863281 -38.859375 115.71875 -42.859375 C 118.570312 -46.859375 120.570312 -51.617188 121.71875 -57.140625 C 122.863281 -62.660156 123.4375 -68.757812 123.4375 -75.4375 L 123.4375 -124.578125 C 123.4375 -130.859375 122.769531 -136.757812 121.4375 -142.28125 C 120.101562 -147.8125 118.003906 -152.578125 115.140625 -156.578125 C 112.285156 -160.578125 108.570312 -163.765625 104 -166.140625 C 99.425781 -168.523438 93.90625 -169.71875 87.4375 -169.71875 C 80.957031 -169.71875 75.429688 -168.523438 70.859375 -166.140625 C 66.285156 -163.765625 62.566406 -160.578125 59.703125 -156.578125 C 56.847656 -152.578125 54.753906 -147.8125 53.421875 -142.28125 C 52.085938 -136.757812 51.421875 -130.859375 51.421875 -124.578125 L 51.421875 -75.4375 C 51.421875 -68.757812 51.992188 -62.660156 53.140625 -57.140625 C 54.285156 -51.617188 56.285156 -46.859375 59.140625 -42.859375 C 61.992188 -38.859375 65.707031 -35.757812 70.28125 -33.5625 C 74.851562 -31.375 80.570312 -30.28125 87.4375 -30.28125 Z M 87.4375 -30.28125 "/></g></g></g><g fill="#000000" fill-opacity="1"><g transform="translate(1124.99643, 1632.329417)"><g><path d="M 159.140625 -36 L 159.140625 0 L 18.578125 0 L 18.578125 -39.421875 C 18.578125 -49.898438 20.144531 -58.851562 23.28125 -66.28125 C 26.425781 -73.71875 30.898438 -80.003906 36.703125 -85.140625 C 42.515625 -90.285156 49.515625 -94.523438 57.703125 -97.859375 C 65.898438 -101.191406 75.144531 -104 85.4375 -106.28125 C 93.050781 -108 99.285156 -109.953125 104.140625 -112.140625 C 109.003906 -114.335938 112.863281 -116.816406 115.71875 -119.578125 C 118.570312 -122.335938 120.519531 -125.382812 121.5625 -128.71875 C 122.613281 -132.050781 123.140625 -135.8125 123.140625 -140 C 123.140625 -148 120.234375 -154.664062 114.421875 -160 C 108.617188 -165.332031 100.570312 -168 90.28125 -168 C 79.425781 -168 70.757812 -164.710938 64.28125 -158.140625 C 57.8125 -151.566406 54.578125 -142.472656 54.578125 -130.859375 L 54.578125 -118.28125 L 16.859375 -118.28125 L 16.859375 -134.28125 C 16.859375 -143.613281 18.523438 -152.519531 21.859375 -161 C 25.191406 -169.476562 29.953125 -176.90625 36.140625 -183.28125 C 42.328125 -189.664062 49.894531 -194.710938 58.84375 -198.421875 C 67.800781 -202.140625 77.898438 -204 89.140625 -204 C 101.140625 -204 111.613281 -202.238281 120.5625 -198.71875 C 129.519531 -195.195312 137 -190.578125 143 -184.859375 C 149 -179.140625 153.472656 -172.519531 156.421875 -165 C 159.378906 -157.476562 160.859375 -149.71875 160.859375 -141.71875 L 160.859375 -138.28125 C 160.859375 -121.519531 156.144531 -107.613281 146.71875 -96.5625 C 137.289062 -85.519531 121.910156 -77.523438 100.578125 -72.578125 C 91.617188 -70.472656 84.234375 -68.328125 78.421875 -66.140625 C 72.617188 -63.953125 68.097656 -61.523438 64.859375 -58.859375 C 61.617188 -56.191406 59.378906 -53.285156 58.140625 -50.140625 C 56.898438 -46.992188 56.28125 -43.421875 56.28125 -39.421875 L 56.28125 -36 Z M 159.140625 -36 "/></g></g></g><g fill="#000000" fill-opacity="1"><g transform="translate(1299.854883, 1632.329417)"><g><path d="M 68 -85.71875 L 68 -145.140625 L 117.71875 -158.859375 L 117.71875 -164 L 18.28125 -164 L 18.28125 -200 L 148.578125 -200 L 148.578125 -137.140625 L 95.4375 -121.71875 L 95.4375 -116.578125 L 102.28125 -116.578125 C 109.332031 -116.578125 116.285156 -115.476562 123.140625 -113.28125 C 130.003906 -111.09375 136.050781 -107.710938 141.28125 -103.140625 C 146.519531 -98.566406 150.757812 -92.898438 154 -86.140625 C 157.238281 -79.378906 158.859375 -71.425781 158.859375 -62.28125 L 158.859375 -58.859375 C 158.859375 -49.898438 157.378906 -41.613281 154.421875 -34 C 151.472656 -26.382812 147.09375 -19.765625 141.28125 -14.140625 C 135.476562 -8.523438 128.289062 -4.097656 119.71875 -0.859375 C 111.144531 2.378906 101.332031 4 90.28125 4 C 79.050781 4 68.863281 2.191406 59.71875 -1.421875 C 50.570312 -5.046875 42.804688 -10 36.421875 -16.28125 C 30.046875 -22.570312 25.144531 -29.8125 21.71875 -38 C 18.289062 -46.1875 16.578125 -54.851562 16.578125 -64 L 16.578125 -76 L 54.28125 -76 L 54.28125 -65.71875 C 54.28125 -56.570312 57.234375 -48.664062 63.140625 -42 C 69.046875 -35.332031 77.90625 -32 89.71875 -32 C 99.8125 -32 107.570312 -34.566406 113 -39.703125 C 118.425781 -44.847656 121.140625 -51.613281 121.140625 -60 C 121.140625 -68.957031 118.234375 -75.484375 112.421875 -79.578125 C 106.617188 -83.671875 99.238281 -85.71875 90.28125 -85.71875 Z M 68 -85.71875 "/></g></g></g></svg>