<?xml version="1.0" encoding="UTF-8"?><svg id="a" xmlns="http://www.w3.org/2000/svg" viewBox="0 0 160.96 43.57"><defs><style>.b{fill:#0071c5;}.c{fill:#fff;stroke:#000;stroke-miterlimit:10;stroke-width:.25px;}</style></defs><polyline points="126.67 15.15 123.87 15.15 121.77 13.34 118.28 13.34 116.42 15.21 113.62 15.21 117.39 10.99 122.79 11 126.67 15.15"/><polyline points="109.17 30.22 110.24 30.22 110.24 27.19 107.92 27.19 107.92 30.22 109.17 30.22 109.25 32.68 105.41 32.68 105.41 25.8 106.64 24.63 112.69 24.63 112.69 32.68 109.25 32.68 109.17 30.22"/><path d="M124.33,28.25v-1.16h-1.16v3.03h1.16v-1.87l2.4-.06v2.98c.15,2.08-4.23,1.19-5.77,1.39v-5.56c-.39-.05-.98,.01-1.45-.02v5.65h-2.28v-5.62h-.68l-.12-2.47h.68v-2.79h-1.16v2.79h.48l.12,2.46h-.66v5.57h-2.39v-13.4h6.55l.07,2.57h-.55v2.79h1.16v-2.79h-.6l-.07-2.57h6.68v3.46l-2.4-.06v-.82h-1.16v2.79h1.16v-1.97l2.4,.06v5.57l-2.4,.06"/><rect x="106.05" y="21.26" width="5.83" height="2.21"/><rect x="106.05" y="17.88" width="5.83" height="2.34"/><rect x="114.21" y="16.02" width="11.89" height="2.34"/><rect x="105.35" y="14.39" width="7.35" height="2.34"/><rect x="106.05" y="11.02" width="5.83" height="2.45"/><path d="M88.12,28.11v-1.02h-3.62v3.03h3.62v-2.01l2.68,.2v4.37h-8.67v-6.64c.17-1.05,.59-1.23,1.56-1.4h7.11v3.68l-2.68-.2"/><rect x="82.76" y="21.26" width="7.22" height="2.21"/><rect x="82.76" y="17.88" width="7.22" height="2.34"/><path d="M102.79,22.07h-2.44c.23-2.58,.43-5.17,.81-7.69h2.32l-.7,7.69"/><path d="M94.05,14.39c.28,2.61,.38,5.28,.82,7.8h-2.34c-.1-2.67-.71-5.12-.81-7.8h2.33"/><rect x="82.07" y="14.39" width="8.74" height="2.46"/><path d="M103.49,13.34h-4.79c0,3.24,.05,6.59,.01,9.84h4.77v2.5h-4.71v7h-2.26v-6.99h-4.9v-2.45h4.87c0-3.12-.12-6.69-.04-9.9h-4.83v-2.45h11.87v2.45"/><rect x="82.76" y="10.89" width="7.22" height="2.45"/><path d="M67.16,20.33c.21,3.28-.27,6.27-.94,9.2h-2.45c.7-2.93,1.05-5.99,1.05-9.2h2.34"/><path d="M74.62,20.67c.65,2.66,.61,5.6,.92,8.39h-2.32c-.37-3.03-.1-6.34-1.17-9.09,.85,.25,2.69-.45,2.57,.7"/><path d="M65.29,11.02c-.38,2.76-3.01,5.47-5.59,6.4h-.94v-2.32c1.8-.44,3.38-2.4,3.96-4.07h2.56"/><path d="M73.56,13.46h-2.55c0,.59,.02,1.22-.01,1.81h9.2v2.37h-1.16v13.86c-.92,1.78-3.24,.95-4.9,1.17v-2.46h2.5v-12.51h-5.59v14.97h-2.5v-14.97h-2.92l-2.79,2.16v12.81h-2.45c-.04-3.89-.03-8-.03-11.83-.43,.2-1.11,.26-1.61,.3v-2.32c2.17-.54,4.17-1.46,5.71-3.49h4.02v-4.43h5.06v2.57"/><rect x="74.62" y="10.89" width="5.59" height="2.45"/><g><path d="M52.68,19.87h-6.37c.37,2.93,1.74,5.45,4.08,7.57,2.46-2.07,3.83-4.59,4.07-7.57h-1.78l-.06-2.52h4.29c.22,4.62-1.23,8.66-4.7,11.66,1.62,1.32,2.92,1.73,4.84,1.92v1.62c-2.61,.17-4.69-1.02-6.78-2.09-1.8,1.49-4.11,1.78-6.4,2.09v-2.21c1.62-.12,3.09-.59,4.42-1.39-2.31-2.39-3.83-5.12-4.31-8.28l-3.32,3.27v7.69c-1.07,1.67-3.51,1.11-5.18,1.14v-2.2c1.02-.12,2.31,.17,3.03-.23-.04-1.35,.06-2.91,0-4.27l-3.03,3.11v-3.38l3.03-3.03v-7.39h-2.9v-2.39h2.84v-1.98h2.4v1.92c1.34-.01,2.66-.02,3.96-.02l.06,2.52h-3.91v4.66l2.79-2.79h5.48v-1.87h-4.35l-.06-2.52c1.46,0,2.92,.01,4.37,.02v-1.92h2.26v1.92h5.47v2.39h-5.3v2.03h1.01l.06,2.52"/><path d="M129.01,24.67c2.87-1.45,5.22-4.79,5.7-7.7h-6.05v-2.39h3.14c.04-1.09-.04-2.15,0-3.26h2.23v3.27c2.61,0,5.08-.01,7.61-.01v-3.37h2.39v3.31h5.01v2.4h-4.95v13.6h5.99v2.34h-14.66v-2.33h6.32c-.04-4.49,.01-9.07-.04-13.61-1.44,0-2.98-.01-4.54-.01-.43,2.04-1,3.99-2.34,5.7l-.3,.33c.64,.68,1.78,1.39,2.74,1.65v2.68c-1.08-.38-2.08-1.08-3.09-1.64v7.22h-2.5c.08-2.44-.02-4.93,0-7.28-.86,.75-1.98,1.44-3.05,1.7,.01-.73-.04-1.48,0-2.45l.38-.16"/></g><g><rect class="c" x="10.89" y="13.01" width="19.81" height="19.81"/><path class="b" d="M16.05,27.24v.47l-.12,.69c.12,.38,.05,.67,.06,1v.31l.5,.06,.56-.38,.44,.06,.5-.13c-.04-.4-.46-.79-.13-1.19-.11-.68,.17-1.2,.25-1.81-.15-.62,.19-1.2,.26-1.81h.56c.26,.21,.25,.64,.63,.69,.43,.33,.13,1.03,.31,1.39,.06,1.48,.41,2.92,.18,4.43h-6.88c.1-.75-.47-1.45,0-2.12l-.06-.82c.27-.62-.02-1.49,.25-2.13-.27-.24-.26-.58-.25-.93,.09-.62,.01-1.19,.19-1.78l.25-.34,.82-.19-.94-.18c-.25-.27-.72-.4-.75-.82l.06-.24,.19-.7c2.05-.87,4.76-.42,7.13-.63,.36,.27,.96-.01,1.32,.26,.07-.5,.04-1.15,.49-1.38,.46,.03,.9,.13,1.19,.57-.12,.55,.39,.53,.47,.99l-.03,.2c.25,.42,.65-.01,.96-.12,1.25,.16,2.14,.02,3.17,.47l.57,.45c.35,.67,.5,1.33,.55,2.07-.24,.27-.52,.2-.72,.63l.17,.49c-.03,1.16-.1,2.39,.18,3.37,.05,.75-.04,1.13,.12,1.75,.09,.38-.09,.57,0,1.19h-2.43c.1-.93-.19-1.77-.06-2.63-.2-1.31-.18-2.86,.13-4.12-.2-.4,.28-.72,.56-.94l-.56-.31c-.87,.28-2.32-.39-2.57-.18l-.13,.12,.31,.13c.45,.5-.11,3.96,.25,5.88,.5,.45,.23,1.36,.44,2h-3.25c-.46-1.86-.45-4.08-.25-6.06l.18-2.13,.26-.25c-.53-.49-1.13,.14-1.7-.06-.74,.11-1.79,.04-2.57,.06l-1.06-.06-.62,.25c.11,.37,.71,.57,.69,1.06-.24,.88,.3,1.71-.13,2.63l.05,.78h0Z"/></g></svg>