<svg xmlns="http://www.w3.org/2000/svg" xmlns:xlink="http://www.w3.org/1999/xlink" id="レイヤー_1" x="0" y="0" enable-background="new 0 0 1150.6 125.2" version="1.0" viewBox="0 0 1150.6 125.2" xml:space="preserve"><g><path fill="#FFF" d="M874,122.7H276.6c-8.5,0-15.5-7-15.5-15.5c0-8.5,7-15.5,15.5-15.5H874c8.5,0,15.5,7,15.5,15.5 C889.5,115.7,882.5,122.7,874,122.7z"/><rect width="1142.9" height="77.6" x="3.8" y="3.8" fill="#FAEE00"/><g><path fill="#2CA6E0" d="M1149.5,1.1c-0.7-0.7-1.7-1.1-2.7-1.1H3.8c-1,0-2,0.4-2.7,1.1S0,2.8,0,3.8v77.6c0,1,0.4,2,1.1,2.7 c0.7,0.7,1.7,1.1,2.7,1.1h1142.9c1,0,2-0.4,2.7-1.1s1.1-1.7,1.1-2.7V3.8C1150.6,2.8,1150.2,1.8,1149.5,1.1z M1142.9,77.6h-18.4 l0-15.3l6.8-2.4c1.3-0.4,2.1-1.6,2.1-3V28.4c0-1.3-0.8-2.5-2.1-3l-6.8-2.4v-3.5v-5.9v-1.4V9.6V8.1V7.7h18.4V77.6z M661.4,33.8 L661.4,33.8L661.4,33.8L661.4,33.8z M661.1,35.3h28.2l-5.6,31.5h-21.1c-2.1,0-3.9,1.5-4.3,3.6l-1.3,7.2h-3.6L661.1,35.3z M689.8,32.8L689.8,32.8L689.8,32.8L689.8,32.8z M683.5,68.3L683.5,68.3L683.5,68.3L683.5,68.3z M664.4,73.1h21h0 c0.4,0,0.9-0.1,1.4-0.2c0.8-0.2,1.5-0.7,2.1-1.4c0.5-0.7,0.8-1.4,0.9-2l0,0l6.3-35.6l0,0c0-0.3,0.1-0.5,0.1-0.7h0l0,0c0,0,0,0,0,0 h0l0-0.1l0,0h0c0-0.4-0.1-1-0.3-1.5c-0.2-0.4-0.4-0.8-0.8-1.2c-0.5-0.5-1.1-0.9-1.6-1c-0.4-0.1-0.8-0.2-1.2-0.2l0,0l0,0l-0.1,0 H692h-32.4h0c-0.4,0-0.9,0.1-1.4,0.2c-0.8,0.2-1.5,0.7-2.1,1.4c-0.5,0.7-0.8,1.4-0.9,2l0,0l-8,44.9h-11.6l0-15.3l6.8-2.4 c1.3-0.4,2.1-1.6,2.1-3V28.4c0-1.3-0.8-2.5-2.1-3l-6.8-2.4v-3.5v-5.9v-1.4V9.6V8.1V7.7h63.5v0.4v1.6v2.6v1.4v5.9l0,5.7 c0,1.3,0.8,2.5,2.1,3l6.8,2.4v24l-6.8,2.4c-1.3,0.4-2.1,1.6-2.1,3v17.6h-35.6L664.4,73.1z M76.8,62.2l6.8-2.4 c1.3-0.4,2.1-1.6,2.1-3V28.4c0-1.3-0.8-2.5-2.1-3L76.8,23v-3.5v-5.9v-1.4V9.6V8.1V7.7h63.5v0.4v1.6v2.6v1.4v5.9l0,5.7 c0,1.3,0.8,2.5,2.1,3l6.8,2.4v24l-6.8,2.4c-1.3,0.4-2.1,1.6-2.1,3v17.6H76.8L76.8,62.2z M146.7,62.2l6.8-2.4 c1.3-0.4,2.1-1.6,2.1-3V28.4c0-1.3-0.8-2.5-2.1-3l-6.8-2.4v-3.5v-5.9v-1.4V9.6V8.1V7.7h63.5v0.4v1.6v2.6v1.4v5.9l0,5.7 c0,1.3,0.8,2.5,2.1,3l6.8,2.4v24l-6.8,2.4c-1.3,0.4-2.1,1.6-2.1,3v17.6h-63.5L146.7,62.2z M216.5,62.2l6.8-2.4 c1.3-0.4,2.1-1.6,2.1-3V28.4c0-1.3-0.8-2.5-2.1-3l-6.8-2.4v-3.5v-5.9v-1.4V9.6V8.1V7.7h63.5v0.4v1.6v2.6v1.4v5.9l0,5.7 c0,1.3,0.8,2.5,2.1,3l6.8,2.4v24l-6.8,2.4c-1.3,0.4-2.1,1.6-2.1,3v17.6h-63.5L216.5,62.2z M286.4,62.2l6.8-2.4 c1.3-0.4,2.1-1.6,2.1-3V28.4c0-1.3-0.8-2.5-2.1-3l-6.8-2.4v-3.5v-5.9v-1.4V9.6V8.1V7.7h63.5v0.4v1.6v2.6v1.4v5.9l0,5.7 c0,1.3,0.8,2.5,2.1,3l6.8,2.4v24L352,57c-1.3,0.4-2.1,1.6-2.1,3v17.6h-63.5L286.4,62.2z M356.2,62.2l6.8-2.4 c1.3-0.4,2.1-1.6,2.1-3V28.4c0-1.3-0.8-2.5-2.1-3l-6.8-2.4v-3.5v-5.9v-1.4V9.6V8.1V7.7h63.5v0.4v1.6v2.6v1.4v5.9l0,5.7 c0,1.3,0.8,2.5,2.1,3l6.8,2.4v24l-6.8,2.4c-1.3,0.4-2.1,1.6-2.1,3v17.6h-63.5L356.2,62.2z M426.1,62.2l6.8-2.4 c1.3-0.4,2.1-1.6,2.1-3V28.4c0-1.3-0.8-2.5-2.1-3l-6.8-2.4v-3.5v-5.9v-1.4V9.6V8.1V7.7h63.5v0.4v1.6v2.6v1.4v5.9l0,5.7 c0,1.3,0.8,2.5,2.1,3l6.8,2.4v24l-6.8,2.4c-1.3,0.4-2.1,1.6-2.1,3v17.6h-63.5L426.1,62.2z M495.9,62.2l6.8-2.4 c1.3-0.4,2.1-1.6,2.1-3V28.4c0-1.3-0.8-2.5-2.1-3l-6.8-2.4v-3.5v-5.9v-1.4V9.6V8.1V7.7h63.5v0.4v1.6v2.6v1.4v5.9l0,5.7 c0,1.3,0.8,2.5,2.1,3l6.8,2.4v24l-6.8,2.4c-1.3,0.4-2.1,1.6-2.1,3v17.6h-63.5L495.9,62.2z M565.8,62.2l6.8-2.4 c1.3-0.4,2.1-1.6,2.1-3V28.4c0-1.3-0.8-2.5-2.1-3l-6.8-2.4v-3.5v-5.9v-1.4V9.6V8.1V7.7h63.5v0.4v1.6v2.6v1.4v5.9l0,5.7 c0,1.3,0.8,2.5,2.1,3l6.8,2.4v24l-6.8,2.4c-1.3,0.4-2.1,1.6-2.1,3v17.6h-63.5L565.8,62.2z M705.4,62.2l6.8-2.4 c1.3-0.4,2.1-1.6,2.1-3V28.4c0-1.3-0.8-2.5-2.1-3l-6.8-2.4v-3.5v-5.9v-1.4V9.6V8.1V7.7H769v0.4v1.6v2.6v1.4v5.9l0,5.7 c0,1.3,0.8,2.5,2.1,3l6.8,2.4v24l-6.8,2.4c-1.3,0.4-2.1,1.6-2.1,3v17.6h-63.5L705.4,62.2z M775.3,62.2l6.8-2.4 c1.3-0.4,2.1-1.6,2.1-3V28.4c0-1.3-0.8-2.5-2.1-3l-6.8-2.4v-3.5v-5.9v-1.4V9.6V8.1V7.7h63.5v0.4v1.6v2.6v1.4v5.9l0,5.7 c0,1.3,0.8,2.5,2.1,3l6.8,2.4v24l-6.8,2.4c-1.3,0.4-2.1,1.6-2.1,3v17.6h-63.5L775.3,62.2z M845.1,62.2l6.8-2.4 c1.3-0.4,2.1-1.6,2.1-3V28.4c0-1.3-0.8-2.5-2.1-3l-6.8-2.4v-3.5v-5.9v-1.4V9.6V8.1V7.7h63.5v0.4v1.6v2.6v1.4v5.9l0,5.7 c0,1.3,0.8,2.5,2.1,3l6.8,2.4v24l-6.8,2.4c-1.3,0.4-2.1,1.6-2.1,3v17.6h-63.5L845.1,62.2z M915,62.2l6.8-2.4 c1.3-0.4,2.1-1.6,2.1-3V28.4c0-1.3-0.8-2.5-2.1-3L915,23v-3.5v-5.9v-1.4V9.6V8.1V7.7h63.5v0.4v1.6v2.6v1.4v5.9l0,5.7 c0,1.3,0.8,2.5,2.1,3l6.8,2.4v24l-6.8,2.4c-1.3,0.4-2.1,1.6-2.1,3v17.6H915L915,62.2z M984.8,62.2l6.8-2.4c1.3-0.4,2.1-1.6,2.1-3 V28.4c0-1.3-0.8-2.5-2.1-3l-6.8-2.4v-3.5v-5.9v-1.4V9.6V8.1V7.7h63.5v0.4v1.6v2.6v1.4v5.9l0,5.7c0,1.3,0.8,2.5,2.1,3l6.8,2.4v24 l-6.8,2.4c-1.3,0.4-2.1,1.6-2.1,3v17.6h-63.5L984.8,62.2z M1054.7,62.2l6.8-2.4c1.3-0.4,2.1-1.6,2.1-3V28.4c0-1.3-0.8-2.5-2.1-3 l-6.8-2.4v-3.5v-5.9v-1.4V9.6V8.1V7.7h63.5v0.4v1.6v2.6v1.4v5.9l0,5.7c0,1.3,0.8,2.5,2.1,3l6.8,2.4v24l-6.8,2.4 c-1.3,0.4-2.1,1.6-2.1,3v17.6h-63.5L1054.7,62.2z M7.7,7.7h62.8v0.4v1.6v2.6v1.4v5.9l0,5.7c0,1.3,0.8,2.5,2.1,3l6.8,2.4v24 L72.6,57c-1.3,0.4-2.1,1.6-2.1,3v17.6H7.7V7.7z"/><path fill="#2CA6E0" d="M124.5,41.8L124.5,41.8c0-0.4-0.1-0.9-0.3-1.5c-0.2-0.4-0.4-0.8-0.8-1.2c-0.5-0.5-1.1-0.8-1.6-1 c-0.5-0.2-1-0.2-1.4-0.2H108h0c-0.4,0-0.9,0-1.3,0.2c-0.7,0.2-1.4,0.6-2,1.2c-0.5,0.6-0.8,1.3-1,1.9l0,0.1l-3.2,18.2l0,0.4l0,0.1 l0,0.1c0,0.2,0,0.3,0,0.3c0,0.4,0.1,1,0.3,1.5c0.2,0.4,0.4,0.8,0.8,1.2c0.5,0.5,1.1,0.8,1.6,1c0.5,0.2,1,0.2,1.4,0.2h12.4h0 c0.4,0,0.9,0,1.3-0.2c0.7-0.2,1.4-0.6,2-1.2c0.5-0.6,0.8-1.3,1-1.9l0-0.1l3.2-18.2l0-0.3l0-0.2L124.5,41.8z M115.3,57.9h-8.2 l2.4-13.7h8.2L115.3,57.9z"/><path fill="#2CA6E0" d="M136.1,33L136.1,33c0-0.4-0.1-1-0.3-1.5c-0.2-0.4-0.4-0.8-0.8-1.2c-0.5-0.5-1.1-0.9-1.6-1 c-0.4-0.1-0.8-0.2-1.2-0.2l0,0l0,0l-0.1,0H132H99.5h0c-0.4,0-0.9,0.1-1.4,0.2c-0.8,0.2-1.5,0.7-2.1,1.4c-0.5,0.7-0.8,1.4-0.9,2 l0,0l-6.3,35.6l0,0c0,0.2-0.1,0.4-0.1,0.7l0,0l0,0.1c0,0,0,0,0,0h0l0,0.1c0,0.4,0.1,1,0.3,1.5c0.2,0.4,0.4,0.8,0.8,1.2 c0.5,0.5,1.1,0.8,1.6,1c0.4,0.1,0.8,0.2,1.2,0.2l0,0l0,0l0.1,0h0.1h32.4h0c0.4,0,0.9-0.1,1.4-0.2c0.8-0.2,1.5-0.7,2.1-1.4 c0.5-0.7,0.8-1.4,0.9-2l0,0l6.3-35.6l0,0c0-0.3,0.1-0.5,0.1-0.7h0l0,0c0,0,0,0,0,0h0L136.1,33L136.1,33z M129.8,32.8L129.8,32.8 L129.8,32.8L129.8,32.8z M101.4,33.8L101.4,33.8L101.4,33.8L101.4,33.8z M95.1,69.4L95.1,69.4L95.1,69.4L95.1,69.4z M123.5,68.3 L123.5,68.3L123.5,68.3L123.5,68.3z M123.8,66.8H95.5l5.6-31.5h28.2L123.8,66.8z"/><path fill="#2CA6E0" d="M276.3,33L276.3,33c0-0.4-0.1-1-0.3-1.5c-0.2-0.4-0.4-0.8-0.8-1.2c-0.5-0.5-1.1-0.9-1.6-1 c-0.4-0.1-0.8-0.2-1.2-0.2l0,0l0,0l-0.1,0h-32.6h0c-0.4,0-0.9,0.1-1.4,0.2c-0.8,0.2-1.5,0.7-2.1,1.4c-0.5,0.7-0.8,1.4-0.9,2l0,0 l-6.3,35.6l0,0c0,0.2-0.1,0.5-0.1,0.7h0l0,0.1c0,0,0,0,0,0h0l0,0.1c0,0.4,0.1,1,0.3,1.5c0.2,0.4,0.4,0.8,0.8,1.2 c0.5,0.5,1.1,0.8,1.6,1c0.4,0.1,0.8,0.2,1.2,0.2l0,0l0,0l0.1,0h32.6h0c0.4,0,0.9-0.1,1.4-0.2c0.8-0.2,1.5-0.7,2.1-1.4 c0.5-0.7,0.8-1.4,0.9-2l0,0l6.3-35.6l0,0c0-0.3,0.1-0.5,0.1-0.8L276.3,33L276.3,33z M270,32.8L270,32.8L270,32.8L270,32.8z M241.6,33.8L241.6,33.8L241.6,33.8L241.6,33.8z M235.3,69.4L235.3,69.4L235.3,69.4L235.3,69.4z M263.7,68.3L263.7,68.3 L263.7,68.3L263.7,68.3z M264,66.8h-28.2l5.6-31.5h28.2L264,66.8z"/><path fill="#2CA6E0" d="M264.7,41.8L264.7,41.8c0-0.4-0.1-0.9-0.3-1.5c-0.2-0.4-0.4-0.8-0.8-1.2c-0.5-0.5-1.1-0.8-1.6-1 c-0.5-0.2-1-0.2-1.4-0.2h-12.4h0c-0.4,0-0.9,0-1.3,0.2c-0.7,0.2-1.4,0.6-2,1.2c-0.5,0.6-0.8,1.3-1,1.9l0,0.1l-3.2,18.2l0,0.4 l0,0.1l0,0.1c0,0.2,0,0.3,0,0.3c0,0.4,0.1,1,0.3,1.5c0.2,0.4,0.4,0.8,0.8,1.2c0.5,0.5,1.1,0.8,1.6,1c0.5,0.2,1,0.2,1.4,0.2h12.4h0 c0.4,0,0.9,0,1.3-0.2c0.7-0.2,1.4-0.6,2-1.2c0.5-0.6,0.8-1.3,1-1.9l0-0.1l3.2-18.2l0-0.3l0-0.2L264.7,41.8z M255.5,57.9h-8.2 l2.4-13.7h8.2L255.5,57.9z"/><path fill="#2CA6E0" d="M276.3,33.1C276.3,33.1,276.3,33.1,276.3,33.1L276.3,33.1L276.3,33.1z"/><path fill="#2CA6E0" d="M404.1,41.8L404.1,41.8c0-0.4-0.1-0.9-0.3-1.5c-0.2-0.4-0.4-0.8-0.8-1.2c-0.5-0.5-1.1-0.8-1.6-1 c-0.5-0.2-1-0.2-1.4-0.2h-12.4h0c-0.4,0-0.9,0-1.3,0.2c-0.7,0.2-1.4,0.6-2,1.2c-0.5,0.6-0.8,1.3-1,1.9l0,0.1l-3.2,18.2l0,0.4 l0,0.1l0,0.1c0,0.2,0,0.3,0,0.3c0,0.4,0.1,1,0.3,1.5c0.2,0.4,0.4,0.8,0.8,1.2c0.5,0.5,1.1,0.8,1.6,1c0.5,0.2,1,0.2,1.4,0.2h12.4h0 c0.4,0,0.9,0,1.3-0.2c0.7-0.2,1.4-0.6,2-1.2c0.5-0.6,0.8-1.3,1-1.9l0-0.1l3.2-18.2l0-0.4l0-0.2L404.1,41.8z M395,57.9h-8.2 l2.4-13.7h8.2L395,57.9z"/><path fill="#2CA6E0" d="M415.7,33.1C415.7,33.1,415.7,33.1,415.7,33.1L415.7,33.1L415.7,33.1z"/><path fill="#2CA6E0" d="M415.7,33L415.7,33c0-0.4-0.1-1-0.3-1.5c-0.2-0.4-0.4-0.8-0.8-1.2c-0.5-0.5-1.1-0.9-1.6-1 c-0.4-0.1-0.8-0.2-1.1-0.2l0,0l0,0l-0.1,0h-0.1h-32.4h0c-0.4,0-0.9,0.1-1.4,0.2c-0.8,0.2-1.5,0.7-2.1,1.4c-0.5,0.7-0.8,1.4-0.9,2 l0,0l-6.3,35.6l0,0c0,0.2-0.1,0.4-0.1,0.6l0,0l0,0.1c0,0,0,0,0,0h0l0,0.1c0,0.4,0.1,1,0.3,1.5c0.2,0.4,0.4,0.8,0.8,1.2 c0.5,0.5,1.1,0.8,1.6,1c0.4,0.1,0.8,0.2,1.2,0.2l0,0l0,0l0.1,0H405h0c0.4,0,0.9-0.1,1.4-0.2c0.8-0.2,1.5-0.7,2.1-1.4 c0.5-0.7,0.8-1.4,0.9-2l0,0l6.3-35.6l0,0c0-0.3,0.1-0.5,0.1-0.8L415.7,33L415.7,33z M409.4,32.8L409.4,32.8L409.4,32.8L409.4,32.8 z M381,33.8L381,33.8L381,33.8L381,33.8z M374.7,69.4L374.7,69.4L374.7,69.4L374.7,69.4z M403.1,68.3L403.1,68.3L403.1,68.3 L403.1,68.3z M403.4,66.8h-28.2l5.6-31.5H409L403.4,66.8z"/><polygon fill="#2CA6E0" points="347.1 16.9 347.1 16.9 347.1 16.9"/><path fill="#2CA6E0" d="M347.2,15.7L347.2,15.7l0-0.2l0-0.2l-0.1-0.4l-0.1-0.5l-0.4-0.6l-0.2-0.4l-0.4-0.3l0,0 c-0.5-0.4-1-0.6-1.4-0.8c-0.5-0.1-0.9-0.2-1.3-0.2h-8l-0.1,0l-24.3,0h0c-0.4,0-0.9,0.1-1.4,0.2c-0.8,0.2-1.5,0.7-2.1,1.4 c-0.5,0.7-0.8,1.4-0.9,2l0,0L297,68.3l0,0c0,0.2,0,0.4-0.1,0.6l0,0c0,0.2,0,0.3,0,0.3c0,0.4,0.1,1,0.3,1.5 c0.2,0.4,0.4,0.8,0.8,1.2c0.5,0.5,1.1,0.8,1.6,1c0.4,0.1,0.8,0.2,1.2,0.2l0,0l0,0l0.1,0h0.1h24.7h7.8h0h0c0.4,0,0.9-0.1,1.4-0.2 c0.8-0.2,1.6-0.7,2.1-1.5c0.5-0.7,0.7-1.4,0.8-2l0,0l4-22.3l0,0c0.1-0.3,0.1-0.6,0.1-0.8v0c0-0.4-0.1-1-0.3-1.5 c-0.2-0.4-0.4-0.8-0.8-1.2c-0.3-0.4-0.7-0.6-1.1-0.8c0.2,0,0.3-0.1,0.5-0.1c0.8-0.2,1.6-0.7,2.1-1.5c0.5-0.7,0.7-1.4,0.8-2l0,0 l4-22.3c0-0.2,0.1-0.5,0.1-0.8C347.2,16,347.2,15.9,347.2,15.7z M312.5,17L312.5,17L312.5,17L312.5,17z M303.2,69.4L303.2,69.4 L303.2,69.4L303.2,69.4z M303.7,66.8l8.6-48.3h23.2l0.1,0h4.9l-3.2,18.1h-3.6l0.3-1.9l1.6-9.1l0-0.1l0-0.2V25l0-0.1h0 c0-0.4-0.1-1-0.3-1.5c-0.2-0.4-0.4-0.8-0.8-1.2c-0.5-0.5-1.1-0.8-1.6-1c-0.5-0.2-1-0.2-1.4-0.2h-12.4h0c-0.4,0-0.9,0-1.3,0.2 c-0.7,0.2-1.4,0.6-2,1.2c-0.5,0.6-0.8,1.3-1,1.9l0,0.1l-6.2,35.1l0,0.4l0,0.1l0,0.1c0,0,0,0.1,0,0.2c0,0.4,0.1,1,0.3,1.5 c0.2,0.4,0.4,0.8,0.8,1.2c0.5,0.5,1.1,0.9,1.6,1c0.5,0.2,1,0.2,1.4,0.2H325h0c0.4,0,0.9,0,1.3-0.2c0.7-0.2,1.4-0.6,2-1.2 c0.5-0.6,0.8-1.3,1-1.9l0-0.1l2.2-12.1h3.6l-3.2,18.1h-6.2H303.7z M323.5,57.9h-8.2l5.4-30.5h8.2l-1.1,6.2l-0.8,4.5l0,0 c-0.1,0.3-0.1,0.6-0.1,0.8c0,0.4,0.1,1,0.3,1.5c0.2,0.4,0.4,0.8,0.8,1.2c0.3,0.4,0.7,0.6,1.1,0.8c-0.2,0-0.3,0.1-0.5,0.1 c-0.7,0.2-1.5,0.7-2.1,1.4c-0.5,0.7-0.8,1.4-0.9,2.1l0,0L323.5,57.9z"/><path fill="#2CA6E0" d="M56.5,13.9L56.5,13.9c-1.2-1.1-2.7-1.7-4.3-1.7h-7.5h-15h0c-0.4,0-0.9,0.1-1.4,0.2 c-0.8,0.2-1.5,0.7-2.1,1.4c-0.5,0.7-0.8,1.4-0.9,2l0,0l-9.3,52.4l0,0c0,0.2-0.1,0.4-0.1,0.7l0,0l0,0.1c0,0,0,0,0,0h0l0,0.1 c0,0.4,0.1,1,0.3,1.5c0.2,0.4,0.4,0.8,0.8,1.2c0.5,0.5,1.1,0.9,1.6,1c0.4,0.1,0.8,0.2,1.2,0.2l0,0l0,0l0.1,0h0.1H40h5.7 c1.7,0,3.4-0.7,4.6-2l6.6-7c0.8-0.9,1.4-2,1.6-3.2l1.5-8.6l3-17l1.7-9.9l0,0c0.1-0.4,0.1-0.7,0.1-1.1c0-1.7-0.7-3.4-2-4.6 L56.5,13.9z M58.5,24.4L58.5,24.4L58.5,24.4L58.5,24.4L58.5,24.4z M56.8,34.3l-3,17l-1.5,8.6l-6.6,7h0H40H22.8l8.5-48.3h13.4h7.5 l2.2-2.3l-2.2,2.3v0l0,0h0l0,0l6.3,6l0,0L56.8,34.3z"/><path fill="#2CA6E0" d="M51.6,22.8c-1.2-1.1-2.7-1.7-4.3-1.7h-9.1h0c-0.4,0-0.9,0-1.3,0.2c-0.7,0.2-1.4,0.6-2,1.2 c-0.5,0.6-0.8,1.3-1,1.9l0,0.1l-6.2,35.1l0,0.3l0,0c0,0.3,0,0.4,0,0.4c0,0.4,0.1,1,0.3,1.5c0.2,0.4,0.4,0.8,0.8,1.2 c0.5,0.5,1.1,0.8,1.6,1c0.5,0.2,1,0.2,1.4,0.2h8.8c1.7,0,3.4-0.7,4.6-2l2.5-2.7l-2.3-2.2l2.3,2.2c0.8-0.9,1.4-2,1.6-3.2L54.1,29 l0,0c0.1-0.3,0.1-0.7,0.1-1.1c0-1.7-0.7-3.4-2-4.6L51.6,22.8z M43.1,55.2L43.1,55.2l-2.5,2.7l0,0h-6.2l5.4-30.6h7.5l0,0l0.6,0.6 l0,0l0,0L43.1,55.2z"/><path fill="#2CA6E0" d="M205.7,18.6c-0.5-0.5-1.1-0.8-1.6-1c-0.5-0.2-1-0.2-1.4-0.2h-7.8c-0.4,0-0.9,0.1-1.4,0.2 c-0.7,0.2-1.5,0.7-2.1,1.4c-0.5,0.7-0.8,1.4-0.9,2.1l0,0l-1.2,6.7l0,0c0,0.3-0.1,0.6-0.1,0.8c0,0.4,0.1,1,0.3,1.5 c0,0.1,0.1,0.2,0.2,0.3c-0.1,0.1-0.1,0.1-0.2,0.2c-0.5,0.7-0.8,1.4-0.9,2.1l0,0l-1.5,8.7l0,0l-2.9,16.5h-8.3l0.3-1.7l0,0 c0-0.3,0.1-0.6,0.1-0.9c0-0.4-0.1-1-0.3-1.5c-0.2-0.4-0.4-0.8-0.8-1.2c-0.5-0.5-1.1-0.8-1.6-1c-0.5-0.2-1-0.2-1.4-0.2h-7.8 c-0.4,0-0.9,0.1-1.4,0.2c-0.7,0.2-1.5,0.7-2.1,1.4c-0.5,0.7-0.8,1.4-0.9,2.1l0,0l-2.3,13.3l0,0.3l0,0.1l0,0.1l0,0.1 c0,0.4,0.1,1,0.3,1.5c0.2,0.4,0.4,0.8,0.8,1.2c0.5,0.5,1.1,0.8,1.6,1c0.5,0.2,1,0.2,1.4,0.2h7.8h24.7c0.4,0,0.9-0.1,1.4-0.2 c0.8-0.2,1.5-0.7,2.1-1.4c0.5-0.7,0.8-1.4,0.9-2l0,0l6.3-35.6l0,0c0-0.3,0.1-0.5,0.1-0.7h0l0,0c0,0,0,0,0,0h0l0-0.1l0,0h0 c0-0.4-0.1-1-0.3-1.5c0-0.1-0.1-0.2-0.2-0.3c0.1-0.1,0.1-0.1,0.2-0.2c0.5-0.7,0.7-1.4,0.8-2l0,0l1.2-6.7l0,0 c0-0.2,0.1-0.5,0.1-0.8c0-0.4-0.1-1-0.3-1.5C206.2,19.4,206,19,205.7,18.6z M194.7,33.8L194.7,33.8L194.7,33.8L194.7,33.8z M198.5,32.8L198.5,32.8L198.5,32.8L198.5,32.8z M199.5,26.3h-3.6l0.4-2.5h3.6L199.5,26.3z M196.6,22.2L196.6,22.2L196.6,22.2 L196.6,22.2z M183.8,59.4L183.8,59.4L183.8,59.4L183.8,59.4z M166.1,56.2L166.1,56.2L166.1,56.2L166.1,56.2z M192.2,68.3 L192.2,68.3L192.2,68.3L192.2,68.3z M192.5,66.8h-23.1h-5.1l1.6-9.1h3.6l-0.3,1.7l0,0c-0.1,0.3-0.1,0.6-0.1,0.8 c0,0.4,0.1,1,0.3,1.5c0.2,0.4,0.4,0.8,0.8,1.2c0.5,0.5,1.1,0.8,1.6,1c0.5,0.2,1,0.2,1.4,0.2h12.4c0.4,0,0.9-0.1,1.4-0.2 c0.7-0.2,1.5-0.7,2.1-1.4c0.5-0.7,0.8-1.4,0.9-2.1l0,0l3.1-17.7l0,0l1.3-7.5h3.6L192.5,66.8z"/><path fill="#2CA6E0" d="M485.9,33L485.9,33c0-0.4-0.1-1-0.3-1.5c-0.2-0.4-0.4-0.8-0.8-1.2c-0.5-0.5-1.1-0.9-1.6-1 c-0.4-0.1-0.8-0.2-1.2-0.2l0,0l0,0l-0.1,0h-32.6h0c-0.4,0-0.9,0.1-1.4,0.2c-0.8,0.2-1.5,0.7-2.1,1.4c-0.5,0.7-0.8,1.4-0.9,2l0,0 l-6.3,35.6l0,0c0,0.2-0.1,0.5-0.1,0.9c0,0.4,0.1,1,0.3,1.5c0.2,0.4,0.4,0.8,0.8,1.2c0.5,0.5,1.1,0.8,1.6,1c0.5,0.2,1,0.2,1.4,0.2 h7.8c0.4,0,0.9-0.1,1.4-0.2c0.8-0.2,1.6-0.7,2.1-1.5c0.5-0.7,0.7-1.4,0.8-2l0,0l4.5-25.2h8.2l-4.2,24.1l0,0c0,0.3-0.1,0.5-0.1,0.9 c0,0.4,0.1,1,0.3,1.5c0.2,0.4,0.4,0.8,0.8,1.2c0.5,0.5,1.1,0.8,1.6,1c0.5,0.2,1,0.2,1.4,0.2h7.8c0.4,0,0.9-0.1,1.4-0.2 c0.8-0.2,1.6-0.7,2.1-1.5c0.5-0.7,0.7-1.4,0.8-2l0,0l6.3-35.6l0,0c0-0.3,0.1-0.5,0.1-0.7h0l0,0c0,0,0,0,0,0h0L485.9,33L485.9,33z M451.2,33.8L451.2,33.8L451.2,33.8L451.2,33.8z M454.5,39.3c-0.5,0.6-0.8,1.3-1,1.9l0,0.1l-4.5,25.5h-3.6l5.6-31.5h28.2 l-5.6,31.5H470l4.3-24.2l0-0.3l0-0.3l0-0.3c0-0.4-0.1-0.9-0.3-1.3c-0.2-0.4-0.4-0.8-0.8-1.2c-0.5-0.5-1.1-0.8-1.6-1 c-0.5-0.2-1-0.2-1.4-0.2h-12.4h0c-0.4,0-0.9,0-1.3,0.2C455.8,38.3,455,38.7,454.5,39.3z M474.3,41.9L474.3,41.9L474.3,41.9 L474.3,41.9z"/><path fill="#2CA6E0" d="M835.1,33L835.1,33c0-0.4-0.1-1-0.3-1.5c-0.2-0.4-0.4-0.8-0.8-1.2c-0.5-0.5-1.1-0.9-1.6-1 c-0.4-0.1-0.8-0.2-1.2-0.2l0,0l0,0l-0.1,0h-32.6h0c-0.4,0-0.9,0.1-1.4,0.2c-0.8,0.2-1.5,0.7-2.1,1.4c-0.5,0.7-0.8,1.4-0.9,2l0,0 l-6.3,35.6l0,0c0,0.2-0.1,0.5-0.1,0.9c0,0.4,0.1,1,0.3,1.5c0.2,0.4,0.4,0.8,0.8,1.2c0.5,0.5,1.1,0.8,1.6,1c0.5,0.2,1,0.2,1.4,0.2 h7.8c0.4,0,0.9-0.1,1.4-0.2c0.8-0.2,1.6-0.7,2.1-1.5c0.5-0.7,0.7-1.4,0.8-2l0,0l4.5-25.2h8.2l-4.2,24.1l0,0c0,0.3-0.1,0.5-0.1,0.9 c0,0.4,0.1,1,0.3,1.5c0.2,0.4,0.4,0.8,0.8,1.2c0.5,0.5,1.1,0.8,1.6,1c0.5,0.2,1,0.2,1.4,0.2h7.8c0.4,0,0.9-0.1,1.4-0.2 c0.8-0.2,1.6-0.7,2.1-1.5c0.5-0.7,0.7-1.4,0.8-2l0,0l6.3-35.6l0,0c0-0.3,0.1-0.5,0.1-0.7h0l0,0c0,0,0,0,0,0h0L835.1,33L835.1,33z M800.4,33.8L800.4,33.8L800.4,33.8L800.4,33.8z M803.7,39.3c-0.5,0.6-0.8,1.3-1,1.9l0,0.1l-4.5,25.5h-3.6l5.6-31.5h28.2 l-5.6,31.5h-3.6l4.3-24.2l0-0.3l0-0.3l0-0.3c0-0.4-0.1-0.9-0.3-1.3c-0.2-0.4-0.4-0.8-0.8-1.2c-0.5-0.5-1.1-0.8-1.6-1 c-0.5-0.2-1-0.2-1.4-0.2H807h0c-0.4,0-0.9,0-1.3,0.2C805,38.3,804.2,38.7,803.7,39.3z M823.5,41.9L823.5,41.9L823.5,41.9 L823.5,41.9z"/><path fill="#2CA6E0" d="M1101.7,13.4c-0.5-0.5-1.1-0.8-1.6-1c-0.5-0.2-1-0.2-1.4-0.2h-7.8c-0.4,0-0.9,0.1-1.4,0.2 c-0.7,0.2-1.5,0.7-2.1,1.4c-0.5,0.7-0.8,1.4-0.9,2.1l0,0l-9.3,52.5l0,0c-0.1,0.3-0.1,0.6-0.1,0.8c0,0.4,0.1,1,0.3,1.5 c0.2,0.4,0.4,0.8,0.8,1.2c0.5,0.5,1.1,0.8,1.6,1c0.5,0.2,1,0.2,1.4,0.2h7.8c0.4,0,0.9-0.1,1.4-0.2c0.8-0.2,1.6-0.7,2.1-1.5 c0.5-0.7,0.7-1.4,0.8-2l0,0l9.3-52.5l0,0c0-0.2,0.1-0.5,0.1-0.8c0-0.4-0.1-1-0.3-1.5C1102.3,14.2,1102.1,13.7,1101.7,13.4z M1092.7,17L1092.7,17L1092.7,17L1092.7,17z M1092.4,18.5h3.6l-8.6,48.3h-3.6L1092.4,18.5z"/><path fill="#2CA6E0" d="M974.7,15.5l0-0.2l-0.1-0.3l0,0l0,0l0,0l0,0l-0.1-0.5l-0.4-0.6l-0.2-0.4l-0.3-0.3l0,0 c-0.5-0.4-1-0.7-1.4-0.8c-0.5-0.1-0.9-0.2-1.3-0.2h0h0h0h0h-7.8H946h-7.8h0h0c-0.4,0-0.9,0.1-1.4,0.2c-0.8,0.2-1.6,0.7-2.1,1.5 c-0.5,0.7-0.7,1.4-0.8,2l0,0l-4,22.3l0,0c0,0.2-0.1,0.4-0.1,0.6l-5.2,29.6l0,0c0,0.3-0.1,0.5-0.1,0.8l0,0.2l0,0l0,0.1l0,0.4l0,0.3 l0.1,0.3v0l0,0l0,0l0,0l0,0l0.1,0.5l0.4,0.6l0.2,0.4l0.4,0.3l0,0c0.4,0.4,1,0.6,1.4,0.8c0.5,0.2,0.9,0.2,1.3,0.2h0h0h0h0h7.8h16.9 h7.8h0h0c0.4,0,0.9-0.1,1.4-0.2c0.8-0.2,1.6-0.7,2.1-1.5c0.5-0.7,0.7-1.4,0.8-2l0,0l4-22.3c0-0.2,0.1-0.4,0.1-0.6l5.2-29.6l0,0 c0-0.3,0.1-0.5,0.1-0.8l0-0.2v0l0-0.1L974.7,15.5z M936.4,66.8h-5.1l4.9-27.8l0-0.1l3.6-20.4h6.2h16.9h5.1l-4.9,27.8l0,0.1 l-3.6,20.4h-6.2H936.4z"/><path fill="#2CA6E0" d="M963.1,25.7l0-0.4l0-0.3l0-0.3l0,0c0-0.4-0.1-0.8-0.3-1.3c-0.2-0.5-0.6-1.1-1-1.5l0,0l0,0 c-0.5-0.4-1-0.6-1.5-0.8c-0.5-0.1-0.9-0.2-1.3-0.2h-12.4h0c-0.4,0-0.9,0-1.3,0.2c-0.7,0.2-1.4,0.6-2,1.2c-0.5,0.6-0.8,1.3-1,1.9 l0,0.1l-6.2,35.1l0,0.4l0,0c0,0.1,0,0.2,0,0.3l0,0.1l0,0v0v0h0c0,0.4,0.1,0.9,0.3,1.5c0.2,0.5,0.6,1.1,1,1.4l0,0l0.1,0 c0.5,0.4,1,0.6,1.5,0.8c0.5,0.1,0.9,0.2,1.3,0.2h12.4h0c0.4,0,0.9,0,1.3-0.2c0.7-0.2,1.4-0.6,2-1.2c0.5-0.6,0.8-1.3,1-1.9l0-0.1 l0-0.1L963.1,25.7z M948.2,27.4h8.2l-5.4,30.5h-8.2L948.2,27.4z"/><polygon fill="#2CA6E0" points="969.4 47.2 969.4 47.2 969.4 47.2"/><rect width="0" height="0" x="924.7" y="70.4" fill="#2CA6E0" transform="matrix(0.8944 -0.4472 0.4472 0.8944 66.147 420.9634)"/><polygon fill="#2CA6E0" points="924.7 70.4 924.7 70.4 924.7 70.4"/><polygon fill="#2CA6E0" points="854.8 70.4 854.8 70.4 854.8 70.4"/><rect width="0" height="0" x="854.8" y="70.4" fill="#2CA6E0" transform="matrix(0.8944 -0.4472 0.4472 0.8944 58.7732 389.7279)"/><path fill="#2CA6E0" d="M904.9,15.5l0-0.2l-0.1-0.3l0,0l0,0l0,0l-0.1-0.5l-0.4-0.6l-0.2-0.4l-0.3-0.3l0,0c-0.5-0.4-1-0.7-1.4-0.8 c-0.3-0.1-0.6-0.1-0.9-0.2l-0.2,0h-0.3h0h-7.8h-15.7h0h-1.1h-7.8h0h0c-0.4,0-0.8,0-1.2,0.2c-0.6,0.2-1.3,0.5-1.9,1.1 c-0.5,0.5-0.9,1.2-1.1,1.8l-0.1,0.2l-2.8,16l0,0c0,0.3-0.1,0.5-0.1,0.9c0,0.4,0.1,1,0.3,1.5c0.2,0.4,0.4,0.8,0.8,1.2 c0.5,0.5,1.1,0.8,1.6,1c0.5,0.2,1,0.2,1.4,0.2h7.8c0.4,0,0.9-0.1,1.4-0.2c0.8-0.2,1.6-0.7,2.1-1.5c0.5-0.7,0.7-1.4,0.8-2l0,0 l0.9-5.1h8.2l-1,5.7l0,0l0,0l-27.7,24.9c-1,0.9-1.7,2.2-2,3.6l-0.2,0.9l0,0l-1,5.9l0,0c0,0.3-0.1,0.5-0.1,0.8l0,0.2l0,0l0,0.1 l0,0.4l0,0.3l0.1,0.3v0l0,0l0,0l0,0l0,0l0.1,0.5l0.4,0.6l0.2,0.4l0.4,0.3l0,0c0.4,0.4,1,0.6,1.4,0.8c0.5,0.2,0.9,0.2,1.3,0.2h0h0 h0h0h7.8h16.9h7.8h0h0c0.4,0,0.9-0.1,1.4-0.2c0.8-0.2,1.6-0.7,2.1-1.5c0.5-0.7,0.7-1.4,0.8-2l0,0l1.2-7.1l0,0l0-0.1l0.1-0.3v-0.3 c0-0.1,0-0.1,0-0.2c0-0.4-0.1-0.8-0.2-1.4c-0.1-0.4-0.4-0.8-0.7-1.1c-0.4-0.5-1-0.8-1.5-1c-0.5-0.2-0.9-0.2-1.3-0.2h-4.8h-5.6H882 l5.8-5.2l11.1-10c1-0.9,1.7-2.2,2-3.6l2.2-12.7l1.7-9.4l0,0c0-0.3,0.1-0.5,0.1-0.8l0-0.2l0,0l0-0.1L904.9,15.5z M894.7,38 L894.7,38l-11.1,10l-10.7,9.6c-0.4,0.4-0.7,0.8-1,1.3c-0.2,0.5-0.3,1-0.3,1.5c0,1,0.4,1.9,1,2.6c0.3,0.4,0.7,0.7,1.2,0.9 c0.5,0.2,1,0.3,1.5,0.3h7.3h5.6h1.8l-0.5,2.6h-6.2h-16.9h-5.1l0.6-3.3l0,0l0.2-0.9l0,0l27.7-24.9c1-0.9,1.7-2.2,2-3.6l1.5-8.4 l0-0.3l0-0.3l0-0.3l0,0c0-0.4-0.1-0.8-0.3-1.3c-0.2-0.5-0.6-1.1-1-1.5l0,0l0,0c-0.5-0.4-1-0.6-1.5-0.8c-0.5-0.1-0.9-0.2-1.3-0.2 h-12.4c-0.4,0-0.8,0-1.3,0.2c-0.7,0.2-1.4,0.6-1.9,1.1c-0.5,0.6-0.9,1.2-1,1.8l-0.1,0.2l-1,5.5H868l2-11.4h6.2h1.1h0h15.7h5.1 l-1.2,6.8L894.7,38z"/><polygon fill="#2CA6E0" points="872.9 57.6 872.9 57.6 872.9 57.6"/><path fill="#2CA6E0" d="M1044.6,15.5l0-0.2l-0.1-0.3l0,0l0,0l0,0l-0.1-0.5l-0.4-0.6l-0.2-0.4l-0.3-0.3l0,0c-0.5-0.4-1-0.7-1.4-0.8 c-0.3-0.1-0.6-0.1-0.9-0.2l-0.2,0h-0.3h0h-7.8H1017h0h-1.1h-7.8h0h0c-0.4,0-0.8,0-1.2,0.2c-0.6,0.2-1.3,0.5-1.9,1.1 c-0.5,0.5-0.9,1.2-1.1,1.8l-0.1,0.2l-2.8,16l0,0c0,0.3-0.1,0.5-0.1,0.9c0,0.4,0.1,1,0.3,1.5c0.2,0.4,0.4,0.8,0.8,1.2 c0.5,0.5,1.1,0.8,1.6,1c0.5,0.2,1,0.2,1.4,0.2h7.8c0.4,0,0.9-0.1,1.4-0.2c0.8-0.2,1.6-0.7,2.1-1.5c0.5-0.7,0.7-1.4,0.8-2l0,0 l0.9-5.1h8.2l-1,5.7v0l-27.7,24.9c-1,0.9-1.7,2.2-2,3.6l-0.2,0.9l0,0l-1,5.9l0,0c0,0.3-0.1,0.5-0.1,0.8l0,0.2v0l0,0.1l0,0.4l0,0.3 l0.1,0.3v0l0,0l0,0l0,0l0,0l0.1,0.5l0.4,0.6l0.2,0.4l0.3,0.3l0,0c0.5,0.4,1,0.7,1.4,0.8c0.5,0.2,0.9,0.2,1.3,0.2h0h0h0h0h7.8h16.9 h7.8h0h0c0.4,0,0.9-0.1,1.4-0.2c0.8-0.2,1.6-0.7,2.1-1.5c0.5-0.7,0.7-1.4,0.8-2l0,0l1.2-7.1l0,0l0-0.1l0.1-0.3v-0.3 c0-0.1,0-0.1,0-0.2c0-0.4-0.1-0.8-0.2-1.4c-0.1-0.4-0.4-0.8-0.7-1.1c-0.4-0.5-1-0.8-1.5-1c-0.5-0.2-0.9-0.2-1.3-0.2h-4.8h-5.6 h-0.7l5.8-5.2l11.1-10c1-0.9,1.7-2.2,2-3.6l2.2-12.7l1.7-9.4l0,0c0-0.3,0.1-0.5,0.1-0.8l0-0.2l0,0l0-0.1L1044.6,15.5z M1034.4,38 L1034.4,38l-11.1,10l-10.7,9.6c-0.4,0.4-0.7,0.8-1,1.3c-0.2,0.5-0.3,1-0.3,1.5c0,1,0.4,1.9,1,2.6c0.3,0.4,0.7,0.7,1.2,0.9 c0.5,0.2,1,0.3,1.5,0.3h7.3h5.6h1.8l-0.5,2.6h-6.2h-16.9h-5.1l0.6-3.3l0,0l0.2-0.9l0,0l27.7-24.9c1-0.9,1.7-2.2,2-3.6l1.5-8.4 l0-0.3l0-0.3l0-0.3l0,0c0-0.4-0.1-0.8-0.3-1.3c-0.2-0.5-0.6-1.1-1-1.5l0,0l0,0c-0.5-0.4-1-0.6-1.5-0.8c-0.5-0.1-0.9-0.2-1.3-0.2 h-12.4c-0.4,0-0.8,0-1.3,0.2c-0.7,0.2-1.4,0.6-1.9,1.1c-0.5,0.6-0.9,1.2-1,1.8l-0.1,0.2l-1,5.5h-3.6l2-11.4h6.2h1.1h0h15.7h5.1 l-1.2,6.8L1034.4,38z"/><rect width="0" height="0" x="994.5" y="70.4" fill="#2CA6E0" transform="matrix(0.8944 -0.4472 0.4472 0.8944 73.5207 452.1989)"/><polygon fill="#2CA6E0" points="994.5 70.4 994.5 70.4 994.5 70.4"/><polygon fill="#2CA6E0" points="1012.6 57.6 1012.6 57.6 1012.6 57.6"/><path fill="#2CA6E0" d="M376.7,26.2c0.1,0.4,0.4,0.7,0.7,1c0.4,0.5,1,0.7,1.4,0.9c0.4,0.1,0.8,0.2,1.1,0.2h10.7 c0.3,0,0.7,0,1.1-0.2c0.3-0.1,0.6-0.2,0.9-0.4c0.3,0.2,0.6,0.3,0.9,0.4c0.5,0.1,0.8,0.2,1.1,0.2h9.5c0.3,0,0.7,0,1-0.1 c0.5-0.1,1.1-0.5,1.5-0.9c0.4-0.4,0.7-0.8,0.9-1.2l0,0l2.9-7.3l0,0c0.1-0.3,0.2-0.7,0.2-1.3c0-0.4-0.1-1-0.3-1.5 c-0.2-0.4-0.5-0.8-0.8-1c-0.5-0.4-1-0.6-1.3-0.7c-0.4-0.1-0.7-0.1-0.9-0.1H405l0.1-0.3l0-0.1c0-0.2,0-0.3,0-0.5 c0-0.3,0-0.7-0.2-1.2c-0.1-0.3-0.3-0.7-0.6-1c-0.4-0.5-1-0.8-1.4-1c-0.5-0.2-0.9-0.2-1.2-0.2h-4.8c-0.3,0-0.7,0-1.1,0.2 c-0.3,0.1-0.6,0.2-0.9,0.4c-0.3-0.2-0.6-0.3-0.9-0.4c-0.5-0.2-0.8-0.2-1.1-0.2h-10.7c-0.3,0-0.7,0-1.1,0.2 c-0.6,0.2-1.3,0.7-1.7,1.2c-0.4,0.6-0.6,1.1-0.7,1.6l0,0l-0.4,2.2l0,0c0,0.2,0,0.3,0,0.5c0,0.3,0,0.8,0.2,1.2 c0.1,0.3,0.3,0.7,0.6,1c0.4,0.5,1,0.8,1.4,1c0.5,0.2,0.9,0.2,1.2,0.2h4.1l0,0.1h-5.2c-0.3,0-0.7,0-1.1,0.2 c-0.6,0.2-1.3,0.6-1.7,1.2c-0.4,0.6-0.6,1.1-0.7,1.6l-0.4,2.2h0c0,0.1-0.1,0.3-0.1,0.6C376.5,25.2,376.5,25.7,376.7,26.2z"/><path fill="#2CA6E0" d="M97,26.1c0.1,0.4,0.4,0.7,0.7,1c0.4,0.5,1,0.8,1.4,0.9c0.4,0.1,0.8,0.2,1.1,0.2h2.6c0.3,0,0.7,0,1.1-0.2 c0.6-0.2,1.3-0.6,1.7-1.1c0.5-0.6,0.7-1.2,0.7-1.6l0,0l0.4-2h3.4c0.3,0,0.7,0,1.1-0.2c0.3-0.1,0.6-0.2,0.9-0.4 c0.6,0.4,1.3,0.6,1.9,0.6h8.5c1.7,0,3.2-1.2,3.5-3l0,0l0.4-2.2l0,0c0-0.2,0-0.4,0-0.6c0-0.9-0.4-1.8-1-2.5c-0.7-0.7-1.6-1-2.4-1 h-7.4l0.2-1.1l0-0.1c0-0.1,0-0.3,0-0.4c0-0.3,0-0.7-0.2-1.2c-0.1-0.3-0.3-0.7-0.6-1c-0.4-0.5-1-0.8-1.4-0.9 c-0.5-0.2-0.8-0.2-1.1-0.2h-1.8c-0.2,0-0.3,0-0.5,0c-0.2,0-0.4,0-0.5,0H108c-0.3,0-0.7,0-1.1,0.2c-0.1,0-0.2,0.1-0.3,0.1 c-0.1,0-0.2-0.1-0.3-0.1c-0.5-0.1-0.8-0.2-1.1-0.2h-2.7c-0.3,0-0.7,0-1.1,0.2c-0.6,0.2-1.3,0.6-1.7,1.2C99.3,11,99.1,11.6,99,12 l0,0l-1.2,6.8l-1,5.4l0,0c0,0.2-0.1,0.4-0.1,0.7C96.8,25.2,96.8,25.7,97,26.1z"/><polygon fill="#2CA6E0" points="233.7 12.8 233.7 12.8 233.7 12.8"/><path fill="#2CA6E0" d="M231.9,26.1c0.1,0.4,0.4,0.7,0.7,1c0.4,0.5,1,0.8,1.4,0.9c0.4,0.1,0.8,0.2,1.1,0.2h9.6c0.3,0,0.6,0,1-0.1 c0.4-0.1,0.9-0.3,1.3-0.6c0.3,0.3,0.7,0.5,1.1,0.6c0.5,0.1,0.8,0.2,1.1,0.2h8.5c0.3,0,0.7,0,1.1-0.2c0.6-0.2,1.3-0.6,1.8-1.2 c0.4-0.5,0.6-1.1,0.7-1.6l0,0l0.4-2.1c0.2,0,0.5,0.1,0.7,0.1h8.5c1.7,0,3.2-1.2,3.5-3l0.4-2.2l0,0c0-0.2,0-0.4,0-0.6 c0-0.9-0.4-1.8-1-2.5c-0.7-0.7-1.6-1-2.4-1h-8.5c-0.1,0-0.2,0-0.2,0c-0.1-0.3-0.4-0.6-0.6-0.9c-0.4-0.5-1-0.7-1.4-0.9 c-0.4-0.1-0.8-0.2-1.1-0.2h-6.5c0-0.3-0.1-0.6-0.2-0.9c-0.1-0.3-0.3-0.7-0.6-1c-0.4-0.5-1-0.8-1.4-0.9c-0.5-0.2-0.8-0.2-1.1-0.2 h-1.8c-0.2,0-0.3,0-0.5,0c-0.2,0-0.4,0-0.5,0H245c-0.3,0-0.7,0-1.1,0.2c-0.4,0.1-0.9,0.4-1.2,0.7c-0.4-0.1-0.7-0.2-1.1-0.2h-4.3 c-0.3,0-0.7,0-1.1,0.2c-0.6,0.2-1.3,0.7-1.7,1.2c-0.4,0.6-0.6,1.1-0.7,1.6l-0.4,2.2l0,0c0,0.2-0.1,0.4-0.1,0.6c0,0.2,0,0.3,0,0.5 c-0.2,0.3-0.3,0.7-0.4,1.1l-0.4,2.2l0,0c0,0.1-0.1,0.3-0.1,0.6c0,0.3,0,0.6,0.1,0.8c-0.1,0.1-0.1,0.2-0.2,0.3 c-0.2,0.4-0.3,0.7-0.3,1.1l0,0l-0.4,2.2l0,0c0,0.2-0.1,0.4-0.1,0.7C231.7,25.2,231.7,25.7,231.9,26.1z"/><polygon fill="#2CA6E0" points="274.4 20.3 274.4 20.3 274.4 20.3"/><path fill="#2CA6E0" d="M661.4,63c0.5,0.5,1.1,0.8,1.6,1c0.5,0.2,1,0.2,1.4,0.2h12.4h0c0.4,0,0.9,0,1.3-0.2c0.7-0.2,1.4-0.6,2-1.2 c0.5-0.6,0.8-1.3,1-1.9l0-0.1l3.2-18.2l0-0.1l0-0.3l0-0.2l0-0.2h0c0-0.4-0.1-0.9-0.3-1.5c-0.2-0.4-0.4-0.8-0.8-1.2 c-0.5-0.5-1.1-0.8-1.6-1c-0.5-0.2-1-0.2-1.4-0.2H668h0c-0.4,0-0.9,0-1.3,0.2c-0.7,0.2-1.4,0.6-2,1.2c-0.5,0.6-0.8,1.3-1,1.9l0,0.1 l-3.2,18.2l0,0.4l0,0.1l0,0.1c0,0.2,0,0.3,0,0.3c0,0.4,0.1,1,0.3,1.5C660.8,62.2,661.1,62.6,661.4,63z M669.5,44.2h8.2l-2.4,13.7 h-8.2L669.5,44.2z"/><path fill="#2CA6E0" d="M751.9,52.8l1.8-10.2l0-0.3l0-0.3l0-0.3c0-0.4-0.1-0.9-0.3-1.3c-0.2-0.4-0.4-0.8-0.8-1.2 c-0.5-0.5-1.1-0.8-1.6-1c-0.5-0.2-1-0.2-1.4-0.2h-12.4h0c-0.4,0-0.9,0-1.3,0.2c-0.7,0.2-1.4,0.6-2,1.2c-0.5,0.6-0.8,1.3-1,1.9 l0,0.1L730.1,57l0,0c0,0.2-0.1,0.4-0.1,0.7c0,1,0.4,2,1.1,2.7c0.7,0.7,1.6,1.1,2.6,1.1c0.4,0,0.8-0.1,1.2-0.2l0,0l13.7-4.7 C750.3,56,751.6,54.5,751.9,52.8z M745.8,50.9l-8.8,3l1.7-9.6h8.2L745.8,50.9z M753.7,41.9L753.7,41.9L753.7,41.9L753.7,41.9z M732.9,55.3L732.9,55.3L732.9,55.3L732.9,55.3z"/><path fill="#2CA6E0" d="M765.3,33L765.3,33c0-0.4-0.1-1-0.3-1.5c-0.2-0.4-0.4-0.8-0.8-1.2c-0.5-0.5-1.1-0.9-1.6-1 c-0.4-0.1-0.8-0.2-1.2-0.2l0,0l0,0l-0.1,0h-32.6h0c-0.4,0-0.9,0.1-1.4,0.2c-0.8,0.2-1.5,0.7-2.1,1.4c-0.5,0.7-0.8,1.4-0.9,2l0,0 l-6.3,35.6l0,0c0,0.2-0.1,0.5-0.1,0.9c0,0.4,0.1,1,0.3,1.5c0.2,0.4,0.4,0.8,0.8,1.2c0.5,0.5,1.1,0.8,1.6,1c0.5,0.2,1,0.2,1.4,0.2 h7.9l0.1,0l0,0l0.1,0l0.1,0l0,0c0.4,0,0.8-0.1,1.2-0.3l0,0l8.3-2.9l0,0l2.8-1c0,0.1,0,0.1,0,0.2c0,0.4,0.1,1,0.3,1.5 c0.2,0.4,0.4,0.8,0.8,1.2c0.5,0.5,1.1,0.8,1.6,1c0.5,0.2,1,0.2,1.4,0.2h7.8c0.4,0,0.9-0.1,1.4-0.2c0.8-0.2,1.6-0.7,2.1-1.5 c0.5-0.7,0.7-1.4,0.8-2l0,0l6.3-35.6l0,0c0-0.3,0.1-0.5,0.1-0.7h0l0,0c0,0,0,0,0,0h0L765.3,33L765.3,33z M730.6,33.8L730.6,33.8 L730.6,33.8L730.6,33.8z M729.7,66.8h-4.9l5.6-31.5h28.2L753,66.8h-3.6l0.2-1l0-0.1c0-0.2,0-0.4,0-0.6c0-1-0.4-2-1.1-2.7 c-0.7-0.7-1.6-1.1-2.6-1.1c-0.4,0-0.9,0.1-1.2,0.2l0,0l-6.6,2.2l0,0L729.7,66.8z"/><path fill="#2CA6E0" d="M612.3,52.8l1.8-10.2l0-0.3l0-0.3l0-0.3c0-0.4-0.1-0.9-0.3-1.3c-0.2-0.4-0.4-0.8-0.8-1.2 c-0.5-0.5-1.1-0.8-1.6-1c-0.5-0.2-1-0.2-1.4-0.2h-12.4h0c-0.4,0-0.9,0-1.3,0.2c-0.7,0.2-1.4,0.6-2,1.2c-0.5,0.6-0.8,1.3-1,1.9 l0,0.1L590.4,57l0,0c0,0.2-0.1,0.4-0.1,0.7c0,1,0.4,2,1.1,2.7c0.7,0.7,1.6,1.1,2.6,1.1c0.4,0,0.8-0.1,1.2-0.2l0,0l13.7-4.7 C610.7,56,611.9,54.5,612.3,52.8z M606.2,50.9l-8.8,3l1.7-9.6h8.2L606.2,50.9z M614.1,41.9L614.1,41.9L614.1,41.9L614.1,41.9z M593.3,55.3L593.3,55.3L593.3,55.3L593.3,55.3z"/><path fill="#2CA6E0" d="M625.7,33L625.7,33c0-0.4-0.1-1-0.3-1.5c-0.2-0.4-0.4-0.8-0.8-1.2c-0.5-0.5-1.1-0.9-1.6-1 c-0.4-0.1-0.8-0.2-1.2-0.2l0,0l0,0l-0.1,0h-32.6h0c-0.4,0-0.9,0.1-1.4,0.2c-0.8,0.2-1.5,0.7-2.1,1.4c-0.5,0.7-0.8,1.4-0.9,2l0,0 l-6.3,35.6l0,0c0,0.2-0.1,0.5-0.1,0.9c0,0.4,0.1,1,0.3,1.5c0.2,0.4,0.4,0.8,0.8,1.2c0.5,0.5,1.1,0.8,1.6,1c0.5,0.2,1,0.2,1.4,0.2 h7.9l0.1,0l0,0l0.1,0l0.1,0l0,0c0.4,0,0.8-0.1,1.2-0.3l0,0l8.3-2.9l0,0l2.8-1c0,0.1,0,0.1,0,0.2c0,0.4,0.1,1,0.3,1.5 c0.2,0.4,0.4,0.8,0.8,1.2c0.5,0.5,1.1,0.8,1.6,1c0.5,0.2,1,0.2,1.4,0.2h7.8c0.4,0,0.9-0.1,1.4-0.2c0.8-0.2,1.6-0.7,2.1-1.5 c0.5-0.7,0.7-1.4,0.8-2l0,0l6.3-35.6l0,0c0-0.3,0.1-0.5,0.1-0.7h0l0,0c0,0,0,0,0,0h0L625.7,33L625.7,33z M591,33.8L591,33.8 L591,33.8L591,33.8z M590,66.8h-4.9l5.6-31.5h28.2l-5.6,31.5h-3.6l0.2-1l0,0c0-0.2,0-0.4,0-0.6c0-1-0.4-2-1.1-2.7 c-0.7-0.7-1.6-1.1-2.6-1.1c-0.4,0-0.9,0.1-1.2,0.2l0,0l-6.6,2.3l0,0L590,66.8z"/><path fill="#2CA6E0" d="M555.6,16.1L555.6,16.1c0-0.4-0.1-1-0.3-1.5c-0.2-0.4-0.4-0.8-0.8-1.2c-0.5-0.5-1.1-0.8-1.6-1 c-0.5-0.2-1-0.2-1.4-0.2h-7.8c-0.4,0-0.9,0.1-1.4,0.2c-0.7,0.2-1.5,0.7-2.1,1.4c-0.5,0.7-0.8,1.4-0.9,2.1l0,0l-4.5,25.8l-2.9,16.3 h-8.3l0.3-1.7l0,0c0-0.3,0.1-0.6,0.1-0.9c0-0.4-0.1-1-0.3-1.5c-0.2-0.4-0.4-0.8-0.8-1.2c-0.5-0.5-1.1-0.8-1.6-1 c-0.5-0.2-1-0.2-1.4-0.2h-7.8c-0.4,0-0.9,0.1-1.4,0.2c-0.7,0.2-1.5,0.7-2.1,1.4c-0.5,0.7-0.8,1.4-0.9,2.1l0,0l-2.3,13.3l0,0.3 l0,0.1l0,0.1l0,0.1c0,0.4,0.1,1,0.3,1.5c0.2,0.4,0.4,0.8,0.8,1.2c0.5,0.5,1.1,0.8,1.6,1c0.5,0.2,1,0.2,1.4,0.2h7.8h24.7 c0.4,0,0.9-0.1,1.4-0.2c0.8-0.2,1.5-0.7,2.1-1.4c0.5-0.7,0.8-1.4,0.9-2l0,0l9.3-52.4l0,0c0-0.3,0.1-0.5,0.1-0.7h0l0,0c0,0,0,0,0,0 h0L555.6,16.1L555.6,16.1z M545.5,16.9L545.5,16.9L545.5,16.9L545.5,16.9z M531.6,59.4L531.6,59.4L531.6,59.4L531.6,59.4z M513.9,56.2L513.9,56.2L513.9,56.2L513.9,56.2z M540.3,66.8h-23.1h-5.1l1.6-9.1h3.6l-0.3,1.7l0,0c0,0.3-0.1,0.6-0.1,0.8 c0,0.4,0.1,1,0.3,1.5c0.2,0.4,0.4,0.8,0.8,1.2c0.5,0.5,1.1,0.8,1.6,1c0.5,0.2,1,0.2,1.4,0.2h12.4c0.4,0,0.9-0.1,1.4-0.2 c0.7-0.2,1.5-0.7,2.1-1.4c0.5-0.7,0.8-1.4,0.9-2.1l0,0l3.1-17.8l4.3-24.2h3.6L540.3,66.8z"/><path fill="#2CA6E0" d="M586.4,26.9c0.1,0.4,0.4,0.7,0.7,1c0.4,0.5,1,0.8,1.4,0.9c0.4,0.1,0.8,0.2,1.1,0.2h9.6c0.3,0,0.6,0,1-0.1 c0.5-0.1,1.1-0.4,1.5-0.8c0.3-0.3,0.5-0.6,0.7-0.9c0.1,0.3,0.3,0.5,0.5,0.8c0.4,0.5,1,0.8,1.4,0.9c0.4,0.1,0.8,0.2,1.1,0.2h0.8 h0.2h0.8c0.3,0,0.7,0,1.1-0.2c0.6-0.2,1.3-0.6,1.8-1.2c0.4-0.5,0.6-1,0.7-1.5h0.1h0.8c0.3,0,0.7,0,1.1-0.2 c0.6-0.2,1.3-0.6,1.8-1.2c0.3-0.4,0.5-0.8,0.6-1.1l1-2.5l0,0l0.9-2.4l0-0.5c0-0.1,0-0.2,0-0.3c0-0.3,0-0.8-0.2-1.3 c-0.1-0.4-0.4-0.7-0.6-1c-0.4-0.5-1-0.8-1.4-0.9c-0.5-0.2-0.8-0.2-1.1-0.2h-0.8h-0.2H612c-0.1-0.2-0.3-0.5-0.5-0.7 c-0.4-0.5-1-0.7-1.4-0.9c-0.4-0.1-0.8-0.2-1.1-0.2h-0.8h-0.2h-0.6c0-0.3-0.1-0.6-0.2-0.9c-0.1-0.3-0.3-0.7-0.6-1 c-0.4-0.5-1-0.8-1.4-0.9c-0.5-0.2-0.8-0.2-1.1-0.2h-1.8c-0.2,0-0.3,0-0.5,0c-0.2,0-0.4,0-0.5,0h-1.8c-0.3,0-0.7,0-1.1,0.2 c-0.4,0.1-0.9,0.4-1.2,0.7c-0.4-0.1-0.7-0.2-1.1-0.2h-4.3c-0.3,0-0.7,0-1.1,0.2c-0.6,0.2-1.3,0.7-1.7,1.2 c-0.4,0.6-0.6,1.1-0.7,1.6l0,0l-0.4,2.2l0,0c0,0.2-0.1,0.4-0.1,0.6c0,0.2,0,0.3,0,0.5c-0.2,0.3-0.3,0.7-0.4,1l0,0l-0.4,2.2l0,0 c0,0.2-0.1,0.3-0.1,0.6c0,0.3,0,0.6,0.1,0.8c-0.1,0.1-0.1,0.2-0.2,0.3c-0.2,0.4-0.3,0.7-0.4,1.1l0,0l-0.4,2.2l0,0 c0,0.2-0.1,0.4-0.1,0.7C586.1,25.9,586.2,26.4,586.4,26.9z"/><polygon fill="#2CA6E0" points="723.2 24.2 723.2 24.2 723.2 24.2"/><polygon fill="#2CA6E0" points="728.2 12.7 728.2 12.7 728.2 12.7"/><path fill="#2CA6E0" d="M723.9,27.9c0.6,0.6,1.5,1,2.4,1h2.9c0.3,0,0.7,0,1-0.1c0.5-0.1,1.1-0.5,1.5-0.9c0.4-0.4,0.7-0.8,0.9-1.3 l0,0l2.1-5.2l1.1,5l0.1,0.3c0.6,1.4,1.9,2.2,3.4,2.2h2.6c0.2,0,0.5,0,0.8-0.1c0.2,0,0.4-0.1,0.6-0.2c0.1,0,0.2,0.1,0.2,0.1 c0.5,0.1,0.8,0.2,1.1,0.2h9.5c0.3,0,0.7,0,1-0.1c0.5-0.1,1.1-0.5,1.5-0.9c0.4-0.4,0.7-0.8,0.9-1.2l0,0l2.9-7.2l0-0.1 c0.1-0.3,0.2-0.7,0.2-1.3c0-0.4-0.1-1-0.3-1.5c-0.2-0.4-0.5-0.8-0.8-1c-0.5-0.4-1-0.6-1.3-0.7c-0.4-0.1-0.7-0.1-0.9-0.1H755 l0.1-0.3l0-0.1c0-0.1,0-0.3,0-0.4c0-0.3,0-0.7-0.2-1.2c-0.1-0.3-0.3-0.7-0.6-1c-0.4-0.5-1-0.8-1.4-1c-0.5-0.2-0.9-0.2-1.2-0.2 h-4.8c-0.3,0-0.7,0-1.1,0.2c-0.2,0.1-0.5,0.2-0.7,0.3c-0.1-0.1-0.2-0.1-0.4-0.1c-0.5-0.2-0.8-0.2-1.1-0.2h-0.3h-1.4h-0.3 c-0.3,0-0.6,0-1,0.1c-0.2-0.1-0.4-0.1-0.5-0.2c-0.4-0.1-0.7-0.1-1-0.1h-2.4c-0.4,0-0.8,0.1-1.2,0.2c-0.1,0-0.2-0.1-0.3-0.1 c-0.4-0.1-0.7-0.1-0.9-0.1h-2.6c-1.5,0-2.8,0.9-3.4,2.2l-4.9,11.5c-0.2,0.4-0.3,0.9-0.3,1.3C723,26.5,723.3,27.3,723.9,27.9z M744,19.7C744.1,19.7,744.1,19.7,744,19.7c0.2-0.1,0.3-0.1,0.4-0.2c0.2,0.1,0.4,0.2,0.6,0.3c-0.3,0-0.6,0.1-1,0.2L744,19.7z"/><path fill="#2CA6E0" d="M874,89.2H276.6c-5,0-9.5,2-12.7,5.3c-3.3,3.3-5.3,7.8-5.3,12.7c0,5,2,9.5,5.3,12.7 c3.3,3.3,7.8,5.3,12.7,5.3H874c5,0,9.5-2,12.7-5.3c3.3-3.3,5.3-7.8,5.3-12.7c0-5-2-9.5-5.3-12.7C883.5,91.2,879,89.2,874,89.2z M883.2,116.4c-2.4,2.4-5.6,3.8-9.2,3.8H276.6c-3.6,0-6.8-1.5-9.2-3.8c-2.4-2.4-3.8-5.6-3.8-9.2c0-3.6,1.5-6.8,3.8-9.2 c2.4-2.4,5.6-3.8,9.2-3.8H874c3.6,0,6.8,1.5,9.2,3.8c2.4,2.4,3.8,5.6,3.8,9.2C887,110.8,885.6,114,883.2,116.4z"/><path fill="#2CA6E0" d="M431,99.7h-11v17.1h3.6h7.4c4,0,6-1.6,6-4.7c0-1.4,0-2.7,0-3.8c0-1.1,0-2.4,0-3.9 C437.1,101.3,435.1,99.7,431,99.7z M433.5,108.3c0,0.7,0,1.5,0,2.4c0,1.9-1.2,2.9-3.5,2.9h-6.4V103h6.4c2.3,0,3.5,1,3.5,2.9 C433.5,106.8,433.5,107.6,433.5,108.3z"/><path fill="#2CA6E0" d="M447.6,111.4c0.6,0,1.1,0,1.5,0c2.2,0,3.4-1.2,3.4-3.6c0-2.8-1.4-4.2-4.3-4.2c-0.5,0-1.1,0-1.9,0 c-0.6,0-1.2,0-1.8,0c-2.9,0-4.3,1.5-4.3,4.6c0,0.9,0,1.5,0,2c0,0.9,0,1.7,0,2.5c0,2.8,1.2,4.1,3.7,4.2c0.8,0,1.6,0,2.5,0 c0.8,0,1.6,0,2.5,0c2.5,0,3.7-1.1,3.7-3.4c0-0.3,0-0.8,0-1.4h-3.6c0,0.1,0,0.3,0,0.5c0,1-0.5,1.5-1.6,1.5c-0.3,0-0.7,0-1,0 c-0.3,0-0.5,0-0.8,0c-1.2,0-1.7-0.5-1.8-1.5c0-0.2,0-0.5,0-1H447.6z M443.7,107.9c0-1,0.5-1.4,1.6-1.4c0.3,0,0.6,0,0.9,0 c0.3,0,0.7,0,1.1,0c1,0,1.5,0.5,1.5,1.4c0,0.7-0.4,1.1-1.3,1.1h-3.9C443.7,108.5,443.7,108.2,443.7,107.9z"/><path fill="#2CA6E0" d="M463.1,103.6c-0.8,0-1.6,0-2.4,0c-0.8,0-1.6,0-2.5,0c-2.5,0-3.7,1.3-3.7,3.9c0,0.9,0,1.7,0,2.6 c0,0.9,0,1.8,0,2.7c0,2.7,1.2,4.1,3.7,4.1c0.8,0,1.6,0,2.5,0c0.8,0,1.6,0,2.4,0c2.5,0,3.7-1.3,3.7-3.8c0-0.8,0-1.7,0-2.5h-3.6 c0,0.4,0,0.8,0,1.3c0,1.3-0.5,1.9-1.6,1.9c-0.3,0-0.7,0-1,0c-0.3,0-0.7,0-1,0c-1,0-1.5-0.7-1.5-2.2c0-0.5,0-1,0-1.5 c0-0.5,0-0.9,0-1.4c0-1.4,0.5-2.1,1.5-2.1c0.3,0,0.7,0,1,0c0.3,0,0.7,0,1,0c1,0,1.5,0.4,1.5,1.2c0,0.3,0,0.5,0,0.8h3.6 c0-0.7,0-1.4,0-2.1C466.8,104.6,465.6,103.6,463.1,103.6z"/><path fill="#2CA6E0" d="M476.2,111.4c0.6,0,1.1,0,1.5,0c2.2,0,3.4-1.2,3.4-3.6c0-2.8-1.4-4.2-4.3-4.2c-0.5,0-1.1,0-1.9,0 c-0.6,0-1.2,0-1.8,0c-2.9,0-4.3,1.5-4.3,4.6c0,0.9,0,1.5,0,2c0,0.9,0,1.7,0,2.5c0,2.8,1.2,4.1,3.7,4.2c0.8,0,1.6,0,2.5,0 c0.8,0,1.6,0,2.5,0c2.5,0,3.7-1.1,3.7-3.4c0-0.3,0-0.8,0-1.4h-3.6c0,0.1,0,0.3,0,0.5c0,1-0.5,1.5-1.6,1.5c-0.3,0-0.7,0-1,0 c-0.3,0-0.5,0-0.8,0c-1.2,0-1.7-0.5-1.8-1.5c0-0.2,0-0.5,0-1H476.2z M472.3,107.9c0-1,0.5-1.4,1.6-1.4c0.3,0,0.6,0,0.9,0 c0.3,0,0.7,0,1.1,0c1,0,1.5,0.5,1.5,1.4c0,0.7-0.4,1.1-1.3,1.1h-3.9C472.3,108.5,472.3,108.2,472.3,107.9z"/><path fill="#2CA6E0" d="M497.7,103.6c-0.5,0-0.9,0-1.4,0c-0.9,0-1.9,0.5-2.9,1.6c-0.3-1.1-0.9-1.6-1.8-1.6c-0.4,0-0.8,0-1.3,0 c-1,0-2,0.5-3.1,1.6v-1.6h-3.5v13.3h3.5v-9.1c0.1-0.7,0.4-1.1,0.9-1.1c0.2,0,0.4,0,0.7,0c0.1,0,0.3,0,0.5,0c0.5,0,0.7,0.5,0.7,1.5 c0,0.3,0,0.7,0,1v7.7h3.5v-7.7c0-0.5,0-1,0-1.5c0.1-0.7,0.3-1,0.7-1c0.2,0,0.3,0,0.5,0c0.2,0,0.4,0,0.6,0c0.6,0,0.9,0.5,1,1.5 c0,0.3,0,0.7,0,1v7.7h3.5v-7.7c0-0.7,0-1.5,0-2.2C499.9,104.7,499.1,103.6,497.7,103.6z"/><path fill="#2CA6E0" d="M511.7,103.6c-0.7,0-1.4,0-2.1,0c-0.9,0-1.9,0.4-2.8,1.3v-5.1h-3.6v17.1h3.6v-1.3c0.9,0.9,1.9,1.3,2.8,1.3 c0.7,0,1.4,0,2.1,0c2.1,0,3.2-1.4,3.2-4.1c0-0.9,0-1.8,0-2.7c0-0.9,0-1.7,0-2.6C514.9,104.9,513.8,103.6,511.7,103.6z M511.3,110.1c0,0.5,0,0.9,0,1.5c0,1.5-0.5,2.2-1.4,2.2c-0.3,0-0.6,0-0.9,0c-0.3,0-0.6,0-0.9,0c-0.8,0-1.2-0.6-1.4-1.7 c0-0.2,0-0.3,0-0.5c0-0.5,0-1,0-1.5c0-0.5,0-0.9,0-1.4c0-0.2,0-0.3,0-0.5c0.1-1.1,0.5-1.6,1.4-1.6c0.3,0,0.6,0,0.9,0 c0.3,0,0.6,0,0.9,0c0.9,0,1.4,0.7,1.4,2.1C511.3,109.2,511.3,109.7,511.3,110.1z"/><path fill="#2CA6E0" d="M524.4,111.4c0.6,0,1.1,0,1.5,0c2.3,0,3.4-1.2,3.4-3.6c0-2.8-1.4-4.2-4.3-4.2c-0.4,0-1.1,0-1.9,0 c-0.6,0-1.2,0-1.8,0c-2.9,0-4.3,1.5-4.3,4.6c0,0.9,0,1.5,0,2c0,0.9,0,1.7,0,2.5c0,2.8,1.2,4.1,3.7,4.2c0.8,0,1.6,0,2.5,0 c0.8,0,1.6,0,2.5,0c2.5,0,3.7-1.1,3.7-3.4c0-0.3,0-0.8,0-1.4h-3.6c0,0.1,0,0.3,0,0.5c0,1-0.5,1.5-1.6,1.5c-0.3,0-0.7,0-1,0 c-0.3,0-0.5,0-0.8,0c-1.2,0-1.7-0.5-1.8-1.5c0-0.2,0-0.5,0-1H524.4z M520.4,107.9c0-1,0.5-1.4,1.6-1.4c0.3,0,0.6,0,0.9,0 c0.3,0,0.7,0,1.1,0c1,0,1.5,0.5,1.5,1.4c0,0.7-0.4,1.1-1.3,1.1h-3.9C520.4,108.5,520.4,108.2,520.4,107.9z"/><path fill="#2CA6E0" d="M535.9,105.1c-0.1,0.2-0.3,0.4-0.5,0.6v-2.1h-3.6v13.3h3.6v-6.9c0.2-2,1.2-3,3.2-3h3.3l0.6-3.3h-3.8 C537.5,103.6,536.6,104.1,535.9,105.1z"/><polygon fill="#2CA6E0" points="553.9 99.7 553.9 103 557.7 103 557.7 116.8 561.2 116.8 561.2 99.7 557.7 99.7"/><path fill="#2CA6E0" d="M582.5,104.9c0-0.3,0-0.7,0-1.1c0-2.8-1.6-4.1-4.8-4.2c-1.1,0-2.1,0-3.2,0c-1.1,0-2.1,0-3.2,0 c-3.2,0-4.8,1.4-4.8,4.2c0,0.3,0,0.7,0,1.1c0,1.4,0.3,2.4,0.9,3.2c-0.7,0.8-1.1,2-1.1,3.5c0,0.3,0,0.7,0,1c0,2.8,1.6,4.1,4.9,4.1 c1.1,0,2.2,0,3.3,0c1.1,0,2.2,0,3.3,0c3.2,0,4.9-1.4,4.9-4.1c0-0.3,0-0.7,0-1c0-1.5-0.4-2.7-1.1-3.5 C582.2,107.4,582.5,106.3,582.5,104.9z M570.1,104.9c0-0.1,0-0.3,0-0.4c0-1.1,0.4-1.7,1.3-1.7c1.5,0,2.5,0,3.2,0 c0.6,0,1.6,0,3.1,0c0.9,0,1.4,0.6,1.4,1.7c0,0.1,0,0.3,0,0.4c0,0.1,0,0.2,0,0.3c0,0.9-0.6,1.3-1.8,1.3H577c-1.1,0-1.9,0-2.4,0 s-1.4,0-2.5,0h-0.2c-1.2,0-1.8-0.4-1.8-1.3C570.1,105.2,570.1,105.1,570.1,104.9z M579.2,111.7c0,0.1,0,0.3,0,0.4 c0,1.1-0.6,1.7-1.9,1.7s-2.2,0-2.8,0c-0.6,0-1.6,0-2.8,0c-1.2,0-1.9-0.6-1.9-1.7c0-0.1,0-0.3,0-0.4c0-0.1,0-0.3,0-0.4 c0-1.1,0.5-1.7,1.4-1.7c1.6,0,2.6,0,3.3,0h3.2h0.1c0.9,0,1.4,0.6,1.4,1.7C579.2,111.4,579.2,111.5,579.2,111.7z"/><path fill="#2CA6E0" d="M589.9,99.7h-3.6v3h-1.6v3.1h1.6v7.1c0,2.6,1.3,4,3.9,4h3.5v-3.1c-0.7,0-1.3,0-2,0c-1.2,0-1.8-0.5-1.8-1.6 v-6.3h3.8v-3.1h-3.8V99.7z"/><path fill="#2CA6E0" d="M604.4,103.6c-0.8,0-1.6,0-2.4,0c-0.8,0-1.7,0.4-2.6,1.3v-5.2h-3.6v17.1h3.6v-9c0.1-0.8,0.6-1.2,1.5-1.2 c0.3,0,0.7,0,1,0c0.3,0,0.7,0,1,0c1,0,1.5,0.5,1.5,1.5c0,0.3,0,0.7,0,1v7.7h3.6v-7.7c0-0.7,0-1.5,0-2.2 C608,104.7,606.8,103.6,604.4,103.6z"/><polygon fill="#2CA6E0" points="614.9 117.8 618.7 117.8 623.9 99.7 620.1 99.7"/><path fill="#2CA6E0" d="M642.9,99.7c-1.2,0-2.3,0-3.5,0c-1.2,0-2.3,0-3.5,0c-3.5,0-5.2,1.7-5.2,5.1c0,1.1,0,2.3,0,3.4 c0,1.1,0,2.3,0,3.4c0,3.4,1.7,5.2,5.2,5.2c1.2,0,2.3,0,3.5,0c1.2,0,2.3,0,3.5,0c3.5,0,5.2-1.7,5.3-5.2c0-1.1,0-2.3,0-3.4 c0-1.1,0-2.3,0-3.4C648.2,101.4,646.4,99.7,642.9,99.7z M644.6,108.3c0,0.7,0,1.4,0,2.1c0,2.1-1,3.2-3.1,3.2c-0.7,0-1.4,0-2.1,0 c-0.7,0-1.4,0-2.1,0c-2.1,0-3.1-1.1-3.1-3.2c0-0.7,0-1.4,0-2.1c0-0.7,0-1.4,0-2.1c0-2.1,1-3.2,3.1-3.2c0.7,0,1.4,0,2.1,0 c0.7,0,1.4,0,2.1,0c2.1,0,3.1,1.1,3.1,3.2C644.6,106.9,644.6,107.6,644.6,108.3z"/><polygon fill="#2CA6E0" points="663.9 111.9 655.2 99.7 651.3 99.7 651.3 116.8 654.8 116.8 654.8 104.6 663.8 116.8 667.4 116.8 667.4 99.7 663.9 99.7"/><polygon fill="#2CA6E0" points="674.8 99.7 671.2 99.7 671.2 116.8 685.2 116.8 685.2 113.6 674.8 113.6"/><rect width="3.6" height="17.1" x="688.5" y="99.7" fill="#2CA6E0"/><polygon fill="#2CA6E0" points="708 111.9 699.4 99.7 695.5 99.7 695.5 116.8 699 116.8 699 104.6 708 116.8 711.6 116.8 711.6 99.7 708 99.7"/><polygon fill="#2CA6E0" points="719 109.9 729.4 109.9 729.4 106.7 719 106.7 719 103 730.4 103 730.4 99.7 715.4 99.7 715.4 116.8 719 116.8 730.8 116.8 730.8 113.6 719 113.6"/></g><path fill="#FFF" d="M132,32.2L132,32.2L132,32.2l-32.4,0h0c-0.7,0-1.1,0.4-1.3,1.1L92,68.8c0,0.1,0,0.2,0,0.3 c0,0.6,0.3,0.8,0.9,0.8l0,0h0h32.4h0c0.7,0,1.1-0.4,1.3-1.1l6.3-35.6c0-0.1,0-0.2,0-0.3C133,32.5,132.6,32.2,132,32.2z M116.9,61.1 h-12.4c-0.7,0-1-0.3-1-0.8l0-0.3l3.2-18c0.2-0.6,0.6-0.9,1.3-0.9h12.4c0.7,0,1,0.3,1,0.8l0,0.3l-3.2,18 C118,60.7,117.6,61.1,116.9,61.1z"/><path fill="#FFF" d="M272.2,32.2L272.2,32.2l-32.4,0h0c-0.7,0-1.1,0.4-1.3,1.1l-6.3,35.6c0,0.1,0,0.2,0,0.3 c0,0.6,0.3,0.8,0.9,0.8l0,0h32.4h0c0.7,0,1.1-0.4,1.3-1.1l6.3-35.6c0-0.1,0-0.2,0-0.3C273.2,32.5,272.8,32.2,272.2,32.2z M257.1,61.1h-12.4c-0.7,0-1-0.3-1-0.8l0-0.3l3.2-18c0.2-0.6,0.6-0.9,1.3-0.9h12.4c0.7,0,1,0.3,1,0.8l0,0.3l-3.2,18 C258.2,60.7,257.8,61.1,257.1,61.1z"/><path fill="#FFF" d="M411.6,32.2L411.6,32.2L411.6,32.2l-32.4,0h0c-0.7,0-1.1,0.4-1.3,1.1l-6.3,35.6c0,0.1,0,0.2,0,0.3 c0,0.6,0.3,0.8,0.9,0.8l0,0H405h0c0.7,0,1.1-0.4,1.3-1.1l6.3-35.6c0-0.1,0-0.2,0-0.3C412.6,32.5,412.3,32.2,411.6,32.2z M396.5,61.1h-12.4c-0.7,0-1-0.3-1-0.8l0-0.3l3.2-18c0.2-0.6,0.6-0.9,1.3-0.9H400c0.7,0,1,0.3,1,0.8l0,0.3l-3.2,18 C397.6,60.7,397.2,61.1,396.5,61.1z"/><path fill="#FFF" d="M328.7,46.6c0.1-0.7,0.6-1.1,1.3-1.1h7.8c0.6,0,1,0.3,1,0.8c0,0.1,0,0.2,0,0.3l-4,22.3 c-0.1,0.7-0.5,1.1-1.3,1.1h0h0h-7.8H301h0l0,0c-0.7,0-1-0.3-0.9-0.8c0-0.1,0-0.2,0-0.3l9.3-52.4c0.1-0.7,0.6-1.1,1.3-1.1h0h24.6 l0.1,0h7.8c0.3,0,0.6,0.1,0.7,0.2l0,0l0.1,0.2l0,0.1l0,0.1c0,0.1,0,0.2,0,0.4l-4,22.3c-0.1,0.7-0.5,1.1-1.3,1.1H331 c-0.7,0-1.1-0.4-0.9-1.1l0.8-4.5l1.6-9l0-0.1c0-0.5-0.3-0.8-1-0.8h-12.4c-0.7,0-1.1,0.3-1.3,0.9L311.7,60l0,0.3 c0,0.5,0.3,0.8,1,0.8H325c0.7,0,1.1-0.3,1.3-0.9L328.7,46.6z"/><path fill="#FFF" d="M54.3,16.2c-0.6-0.6-1.4-0.9-2.2-0.9h-7.5h-15h0c-0.7,0-1.1,0.4-1.3,1.1l-9.3,52.4c0,0.1,0,0.2,0,0.3 c0,0.6,0.3,0.8,0.9,0.8l0,0h0H40h5.7c0.9,0,1.7-0.4,2.3-1l6.6-7c0.4-0.4,0.7-1,0.8-1.6l1.5-8.6l3-17l1.7-9.9c0.2-1-0.2-2.1-0.9-2.8 L54.3,16.2z M45.4,57.4l-2.5,2.7c-0.6,0.6-1.4,1-2.3,1h-8.8c-0.7,0-1-0.3-1-0.8l0-0.3l6.1-34.8c0.2-0.6,0.6-0.9,1.3-0.9h9.1 c0.8,0,1.6,0.3,2.2,0.9l0.6,0.6c0.8,0.7,1.1,1.8,0.9,2.8l-4.8,27.3C46.1,56.4,45.8,57,45.4,57.4z"/><path fill="#FFF" d="M202.3,28.3c-0.1,0.7-0.5,1.1-1.3,1.1h-7.8c-0.7,0-1.1-0.4-0.9-1.1l1.2-6.7c0.1-0.7,0.6-1.1,1.3-1.1h7.8 c0.7,0,1.1,0.4,0.9,1.1L202.3,28.3z"/><path fill="#FFF" d="M200.7,32.2h-7.8c-0.7,0-1.2,0.4-1.3,1.1l-1.6,8.9l0,0L186.9,60c-0.1,0.7-0.6,1.1-1.3,1.1h-12.4 c-0.7,0-1.1-0.4-0.9-1.1l0.8-4.3c0.1-0.7-0.2-1.1-0.9-1.1h-7.8c-0.7,0-1.2,0.4-1.3,1.1l-2.3,13.2l0,0.3c0,0.5,0.3,0.8,1,0.8h7.8 h24.7c0.7,0,1.1-0.4,1.3-1.1l6.3-35.6c0-0.1,0-0.2,0-0.3C201.7,32.5,201.4,32.2,200.7,32.2z"/><path fill="#FFF" d="M481.8,32.2L481.8,32.2l-32.4,0h0c-0.7,0-1.1,0.4-1.3,1.1l-6.3,35.6c-0.1,0.7,0.2,1.1,0.9,1.1h7.8 c0.7,0,1.2-0.4,1.3-1.1l4.8-26.9c0.2-0.6,0.6-0.9,1.3-0.9h12.4c0.7,0,1,0.3,1,0.8l0,0.3l-4.7,26.7c-0.1,0.7,0.2,1.1,0.9,1.1h7.8 c0.7,0,1.2-0.4,1.3-1.1l6.3-35.6c0-0.1,0-0.2,0-0.3C482.8,32.5,482.4,32.2,481.8,32.2z"/><path fill="#FFF" d="M831,32.2L831,32.2l-32.4,0h0c-0.7,0-1.1,0.4-1.3,1.1L791,68.9c-0.1,0.7,0.2,1.1,0.9,1.1h7.8 c0.7,0,1.2-0.4,1.3-1.1l4.8-26.9c0.2-0.6,0.6-0.9,1.3-0.9h12.4c0.7,0,1,0.3,1,0.8l0,0.3l-4.7,26.7c-0.1,0.7,0.2,1.1,0.9,1.1h7.8 c0.7,0,1.2-0.4,1.3-1.1l6.3-35.6c0-0.1,0-0.2,0-0.3C832,32.5,831.7,32.2,831,32.2z"/><path fill="#FFF" d="M1090.3,68.9c-0.1,0.7-0.5,1.1-1.3,1.1h-7.8c-0.7,0-1.1-0.4-0.9-1.1l9.3-52.5c0.1-0.7,0.6-1.1,1.3-1.1h7.8 c0.7,0,1.1,0.4,0.9,1.1L1090.3,68.9z"/><path fill="#FFF" d="M971.6,16.2L971.6,16.2l0-0.2l0-0.1l0-0.1l0,0l0,0l-0.1-0.2l0,0c-0.2-0.1-0.4-0.2-0.7-0.2h0h0h0h-7.8H946 h-7.8h0h0c-0.7,0-1.2,0.4-1.3,1.1l-4,22.3c0,0.1,0,0.2,0,0.3l0,0.1l-5.3,29.8c0,0.1,0,0.2,0,0.3l0,0.1l0,0.1l0,0.1l0,0.1l0,0l0,0 l0.1,0.2l0,0c0.2,0.1,0.4,0.2,0.7,0.2h0h0h0h7.8h16.9h7.8h0h0c0.7,0,1.2-0.4,1.3-1.1l4-22.3c0-0.1,0-0.2,0-0.3l0-0.1l5.3-29.8 C971.6,16.4,971.6,16.3,971.6,16.2z M953.9,60.1c-0.2,0.6-0.6,0.9-1.3,0.9h-12.4c-0.3,0-0.6-0.1-0.7-0.2c-0.2-0.1-0.2-0.3-0.2-0.6 l0-0.3l6.2-34.8c0.2-0.6,0.6-0.9,1.3-0.9h12.4c0.3,0,0.6,0.1,0.7,0.2c0.2,0.1,0.2,0.3,0.2,0.6l0,0.3L953.9,60.1z"/><path fill="#FFF" d="M901.8,16.1L901.8,16.1l0-0.2l0-0.1l0,0l0,0l-0.1-0.2l0,0c-0.2-0.1-0.4-0.2-0.7-0.2h0l0,0h0h0h-7.8h-15.7h0 h-1.1h-7.8h0h0c-0.6,0-1,0.3-1.2,0.8l-2.8,15.8c-0.1,0.7,0.2,1.1,0.9,1.1h7.8c0.7,0,1.2-0.4,1.3-1.1l1.2-6.8 c0.2-0.6,0.6-0.9,1.2-0.9h12.4c0.3,0,0.6,0.1,0.7,0.2c0.2,0.1,0.2,0.3,0.2,0.6l0,0.3l-1.5,8.3c-0.1,0.7-0.5,1.3-1,1.8L860,60.3 c-0.5,0.5-0.9,1.1-1,1.8l-0.2,0.9l-1,5.9c0,0.1,0,0.2,0,0.3l0,0.1l0,0.1l0,0.1l0,0.1l0,0l0,0l0.1,0.2l0,0c0.2,0.1,0.4,0.2,0.7,0.2 h0h0h0h7.8h16.9h7.8h0h0c0.7,0,1.2-0.4,1.3-1.1l1.2-7.1l0-0.1v0c0.1-0.5-0.1-0.7-0.6-0.7h-4.8h-5.6h-7.3c-0.6,0-0.9-0.7-0.4-1.1 l10.7-9.6l11.1-10c0.5-0.5,0.9-1.1,1-1.8l2.2-12.7l1.7-9.4C901.8,16.3,901.8,16.2,901.8,16.1L901.8,16.1z"/><path fill="#FFF" d="M1041.5,16.1L1041.5,16.1l0-0.2l0-0.1l0,0l0,0l-0.1-0.2l0,0c-0.2-0.1-0.4-0.2-0.7-0.2h0l0,0h0h0h-7.8H1017 h0h-1.1h-7.8h0h0c-0.6,0-1,0.3-1.2,0.8l-2.8,15.8c-0.1,0.7,0.2,1.1,0.9,1.1h7.8c0.7,0,1.2-0.4,1.3-1.1l1.2-6.8 c0.2-0.6,0.6-0.9,1.2-0.9h12.4c0.3,0,0.6,0.1,0.7,0.2c0.2,0.1,0.2,0.3,0.2,0.6l0,0.3l-1.5,8.3c-0.1,0.7-0.5,1.3-1,1.8l-27.7,24.9 c-0.5,0.5-0.9,1.1-1,1.8l-0.2,0.9l-1,5.9c0,0.1,0,0.2,0,0.3l0,0.1l0,0.1l0,0.1l0,0.1l0,0l0,0l0.1,0.2l0,0c0.2,0.1,0.4,0.2,0.7,0.2 h0h0h0h7.8h16.9h7.8h0h0c0.7,0,1.2-0.4,1.3-1.1l1.2-7.1l0-0.1v0c0.1-0.5-0.1-0.7-0.6-0.7h-4.8h-5.6h-7.3c-0.6,0-0.9-0.7-0.4-1.1 l10.7-9.6l11.1-10c0.5-0.5,0.9-1.1,1-1.8l2.2-12.7l1.7-9.4C1041.5,16.3,1041.5,16.2,1041.5,16.1L1041.5,16.1z"/><path fill="#FFF" d="M392.8,12.9h-10.7c-0.2,0-0.4,0.1-0.4,0.4l-0.4,2.2c0,0.2,0.1,0.3,0.3,0.3h7.5c0.1,0,0.2,0.1,0.2,0.2 l-1,5.9c0,0.2-0.2,0.3-0.4,0.3h-7.5c-0.2,0-0.4,0.1-0.4,0.4l-0.4,2.2c0,0.2,0.1,0.3,0.3,0.3h10.7c0.2,0,0.4-0.1,0.4-0.3l1.8-10.2 l0.2-1.3C393.1,13.1,393,12.9,392.8,12.9z"/><path fill="#FFF" d="M396.2,16.2h4.8c0.2,0,0.4-0.1,0.4-0.3l0.5-2.5c0-0.2-0.1-0.4-0.3-0.4h-4.8c-0.2,0-0.4,0.1-0.4,0.4 l-0.5,2.5C395.9,16.1,396,16.2,396.2,16.2z"/><path fill="#FFF" d="M407.3,17.2h-2.7c-0.2,0-0.4,0.1-0.5,0.3l-1.9,4.3c-0.1,0.2-0.3,0.3-0.5,0.3h-6.6c-0.2,0-0.4,0.1-0.4,0.4 l-0.4,2.2c0,0.2,0.1,0.3,0.3,0.3h9.5c0.2,0,0.4-0.1,0.5-0.3l2.9-7.2C407.6,17.3,407.6,17.2,407.3,17.2z"/><path fill="#FFF" d="M123.1,17.2h-8.5c-0.2,0-0.4,0.2-0.4,0.4l-0.4,2.1c0,0.2,0.1,0.4,0.3,0.4h8.5c0.2,0,0.4-0.2,0.4-0.4 l0.4-2.1C123.4,17.4,123.3,17.2,123.1,17.2z"/><path fill="#FFF" d="M110.6,17.2h-5.4v0H105c-0.2,0-0.3-0.1-0.3-0.3l0-0.2l0.3-2l0.4-2.1c0-0.2-0.1-0.3-0.3-0.3h-2.7 c-0.2,0-0.4,0.1-0.4,0.3l-1.1,6l0,0l-1.1,6.2c0,0.2,0.1,0.3,0.3,0.3h2.6c0.2,0,0.4-0.1,0.4-0.3l0.5-2.8l0.3-1.5 c0-0.2,0.2-0.3,0.4-0.3h5.7c0.2,0,0.4-0.1,0.4-0.3l0.4-2.2C111,17.4,110.9,17.2,110.6,17.2z"/><path fill="#FFF" d="M110.1,13.4l-0.3-0.3l0.1-0.6c0-0.2,0-0.3-0.2-0.3H108c-0.2,0-0.3,0.1-0.3,0.3l-0.4,2.4 c0,0.2,0,0.3,0.2,0.3h1.8c0.2,0,0.3-0.1,0.3-0.3l0.1-0.6l0.4-0.2l0,0L110.1,13.4L110.1,13.4z"/><path fill="#FFF" d="M112.6,12.2h-1.8c-0.2,0-0.3,0.1-0.3,0.3l-0.1,0.6l0.3,0.3l0,0.1l-0.1,0.6l0,0l-0.4,0.2l-0.1,0.6 c0,0.2,0,0.3,0.2,0.3h1.8c0.2,0,0.3-0.1,0.3-0.3l0.4-2.4C112.8,12.3,112.8,12.2,112.6,12.2z"/><path fill="#FFF" d="M236.7,15.8h4.3c0.2,0,0.4-0.1,0.4-0.3l0.4-2.2c0-0.2-0.1-0.4-0.3-0.4h-4.3c-0.2,0-0.4,0.1-0.4,0.4 l-0.4,2.2C236.4,15.6,236.6,15.8,236.7,15.8z"/><path fill="#FFF" d="M247.9,17.2h-2.7c-0.2,0-0.4,0.1-0.5,0.3l-1.9,4.3c-0.1,0.2-0.3,0.3-0.5,0.3h-6.7c-0.2,0-0.4,0.1-0.4,0.4 l-0.4,2.2c0,0.2,0.1,0.3,0.3,0.3h9.6c0.2,0,0.4-0.1,0.5-0.3l2.9-7.2C248.2,17.3,248.1,17.2,247.9,17.2z"/><path fill="#FFF" d="M236,20.1h4.3c0.2,0,0.4-0.1,0.4-0.3l0.4-2.2c0-0.2-0.1-0.3-0.3-0.3h-4.3c-0.2,0-0.4,0.1-0.4,0.3l-0.4,2.2 C235.7,19.9,235.8,20.1,236,20.1z"/><path fill="#FFF" d="M259.4,15.3h-8.5c-0.2,0-0.4,0.1-0.4,0.3l-0.3,1.6c0,0.2,0.1,0.3,0.3,0.3h5.9c0.2,0,0.3,0.2,0.3,0.4l0,0.1 l0,0.1l0,0l0,0.3c0,0.2-0.2,0.3-0.4,0.4h-3.5c-0.2,0-0.4,0.2-0.4,0.4l-0.3,1.6c0,0.2,0.1,0.4,0.3,0.4h3.6c0.2,0,0.3,0.1,0.3,0.3 l-0.2,1c0,0.2-0.2,0.4-0.4,0.4h-5.9c-0.2,0-0.4,0.1-0.4,0.3l-0.3,1.6c0,0.2,0.1,0.3,0.3,0.3h8.5c0.2,0,0.4-0.1,0.4-0.3l1-5.6 l0.5-2.8l0.1-0.8C259.7,15.4,259.6,15.3,259.4,15.3z"/><path fill="#FFF" d="M271.3,17.2h-8.5c-0.2,0-0.4,0.2-0.4,0.4l-0.4,2.1c0,0.2,0.1,0.4,0.3,0.4h8.5c0.2,0,0.4-0.2,0.4-0.4 l0.4-2.1C271.7,17.4,271.5,17.2,271.3,17.2z"/><path fill="#FFF" d="M247.1,13.4l-0.3-0.3l0.1-0.6c0-0.2,0-0.3-0.2-0.3H245c-0.2,0-0.3,0.1-0.3,0.3l-0.4,2.4 c0,0.2,0,0.3,0.2,0.3h1.8c0.2,0,0.3-0.1,0.3-0.3l0.1-0.6l0.4-0.2l0,0L247.1,13.4L247.1,13.4z"/><path fill="#FFF" d="M249.6,12.2h-1.8c-0.2,0-0.3,0.1-0.3,0.3l-0.1,0.6l0.3,0.3l0,0.1l-0.1,0.6l0,0l-0.4,0.2l-0.1,0.6 c0,0.2,0,0.3,0.2,0.3h1.8c0.2,0,0.3-0.1,0.3-0.3l0.4-2.4C249.8,12.3,249.7,12.2,249.6,12.2z"/><path fill="#FFF" d="M692,32.2L692,32.2L692,32.2l-32.4,0h0c-0.7,0-1.1,0.4-1.3,1.1l-8.4,47.2c-0.1,0.7,0.2,1.1,0.9,1.1h7.8 c0.7,0,1.2-0.4,1.3-1.1l1.7-9.6c0.1-0.6,0.6-1,1.2-1h22.6h0c0.7,0,1.1-0.4,1.3-1.1l6.3-35.6c0-0.1,0-0.2,0-0.3 C693,32.5,692.6,32.2,692,32.2z M681.3,42.2l-3.2,18c-0.2,0.6-0.6,0.9-1.3,0.9h-12.4c-0.7,0-1-0.3-1-0.8l0-0.3l3.2-18 c0.2-0.6,0.6-0.9,1.3-0.9h12.4c0.7,0,1,0.3,1,0.8L681.3,42.2z"/><path fill="#FFF" d="M761.2,32.2L761.2,32.2l-32.4,0h0c-0.7,0-1.1,0.4-1.3,1.1l-6.3,35.6c-0.1,0.7,0.2,1.1,0.9,1.1h7.8l0,0 l0.1,0c0.2,0,0.3,0,0.4-0.1l8.5-2.9l0,0l6.7-2.3c0.4-0.1,0.8,0.2,0.8,0.7l-0.6,3.6c-0.1,0.7,0.2,1.1,0.9,1.1h7.8 c0.7,0,1.2-0.4,1.3-1.1l6.3-35.6c0-0.1,0-0.2,0-0.3C762.2,32.5,761.9,32.2,761.2,32.2z M734,58.2c-0.4,0.1-0.8-0.2-0.8-0.7 l2.8-15.6c0.2-0.6,0.6-0.9,1.3-0.9h12.4c0.7,0,1,0.3,1,0.8l0,0.3l-1.8,10.1c-0.1,0.6-0.6,1.2-1.2,1.4L734,58.2z"/><path fill="#FFF" d="M621.6,32.2L621.6,32.2l-32.4,0h0c-0.7,0-1.1,0.4-1.3,1.1l-6.3,35.6c-0.1,0.7,0.2,1.1,0.9,1.1h7.8l0,0 l0.1,0c0.2,0,0.3,0,0.4-0.1l8.5-2.9l0,0l6.7-2.3c0.4-0.1,0.8,0.2,0.8,0.7l-0.6,3.6c-0.1,0.7,0.2,1.1,0.9,1.1h7.8 c0.7,0,1.2-0.4,1.3-1.1l6.3-35.6c0-0.1,0-0.2,0-0.3C622.5,32.5,622.2,32.2,621.6,32.2z M594.3,58.2c-0.4,0.1-0.8-0.2-0.8-0.7 l2.8-15.6c0.2-0.6,0.6-0.9,1.3-0.9H610c0.7,0,1,0.3,1,0.8l0,0.3l-1.8,10.1c-0.1,0.6-0.6,1.2-1.2,1.4L594.3,58.2z"/><path fill="#FFF" d="M552.4,16.1c0-0.6-0.3-0.8-1-0.8h-7.8c-0.7,0-1.2,0.4-1.3,1.1l-4.5,25.8L534.7,60c-0.1,0.7-0.6,1.1-1.3,1.1 H521c-0.7,0-1.1-0.4-0.9-1.1l0.8-4.3c0.1-0.7-0.2-1.1-0.9-1.1h-7.8c-0.7,0-1.2,0.4-1.3,1.1l-2.3,13.2l0,0.3c0,0.5,0.3,0.8,1,0.8 h7.8h24.7c0.7,0,1.1-0.4,1.3-1.1l9.3-52.4C552.4,16.3,552.4,16.2,552.4,16.1z"/><path fill="#FFF" d="M591.2,16.5h4.3c0.2,0,0.4-0.1,0.4-0.3l0.4-2.2c0-0.2-0.1-0.4-0.3-0.4h-4.3c-0.2,0-0.4,0.1-0.4,0.4 l-0.4,2.2C590.9,16.4,591,16.5,591.2,16.5z"/><path fill="#FFF" d="M602.4,17.9h-2.7c-0.2,0-0.4,0.1-0.5,0.3l-1.9,4.3c-0.1,0.2-0.3,0.3-0.5,0.3h-6.7c-0.2,0-0.4,0.1-0.4,0.4 l-0.4,2.2c0,0.2,0.1,0.3,0.3,0.3h9.6c0.2,0,0.4-0.1,0.5-0.3l2.9-7.2C602.7,18.1,602.6,17.9,602.4,17.9z"/><path fill="#FFF" d="M590.5,20.8h4.3c0.2,0,0.4-0.1,0.4-0.3l0.4-2.2c0-0.2-0.1-0.3-0.3-0.3H591c-0.2,0-0.4,0.1-0.4,0.3l-0.4,2.2 C590.1,20.7,590.3,20.8,590.5,20.8z"/><path fill="#FFF" d="M601.6,14.1l-0.3-0.3l0.1-0.6c0-0.2,0-0.3-0.2-0.3h-1.8c-0.2,0-0.3,0.1-0.3,0.3l-0.4,2.4 c0,0.2,0,0.3,0.2,0.3h1.8c0.2,0,0.3-0.1,0.3-0.3l0.1-0.6l0.4-0.2l0,0L601.6,14.1L601.6,14.1z"/><path fill="#FFF" d="M604,12.9h-1.8c-0.2,0-0.3,0.1-0.3,0.3l-0.1,0.6l0.3,0.3l0,0.1l-0.1,0.6l0,0l-0.4,0.2l-0.1,0.6 c0,0.2,0,0.3,0.2,0.3h1.8c0.2,0,0.3-0.1,0.3-0.3l0.4-2.4C604.3,13,604.2,12.9,604,12.9z"/><path fill="#FFF" d="M613.6,17.7h-0.8h-0.2h-0.8h-2.6l0.1-0.6l0.1-0.8c0-0.2-0.1-0.3-0.3-0.3h-0.8h-0.2h-0.8 c-0.2,0-0.4,0.1-0.4,0.3l-0.2,1.2c0,0.1-0.1,0.2-0.2,0.2h-1.3c-0.2,0-0.4,0.1-0.4,0.3l-0.3,1.6c0,0.2,0.1,0.3,0.3,0.3h1.2 c0.1,0,0.2,0.1,0.2,0.2l-0.9,5.2c0,0.2,0.1,0.3,0.3,0.3h0.8h0.2h0.8c0.2,0,0.4-0.1,0.4-0.3l0.9-5.3c0-0.1,0.1-0.2,0.2-0.2h0.6h0.8 c0.1,0,0.2,0.1,0.2,0.3l-0.9,2.3c0,0.2,0.1,0.3,0.3,0.3h0.8h0.2h0.8c0.2,0,0.4-0.1,0.4-0.3l1-2.6l0.7-2 C613.9,17.8,613.8,17.7,613.6,17.7z"/><path fill="#FFF" d="M746.3,16.9h4.8c0.2,0,0.4-0.1,0.4-0.3L752,14c0-0.2-0.1-0.4-0.3-0.4h-4.8c-0.2,0-0.4,0.1-0.4,0.4l-0.5,2.5 C746,16.8,746.1,16.9,746.3,16.9z"/><path fill="#FFF" d="M757.4,17.9h-2.7c-0.2,0-0.4,0.1-0.5,0.3l-1.9,4.3c-0.1,0.2-0.3,0.3-0.5,0.3h-6.6c-0.2,0-0.4,0.1-0.4,0.4 l-0.4,2.2c0,0.2,0.1,0.3,0.3,0.3h9.5c0.2,0,0.4-0.1,0.5-0.3l2.9-7.2C757.7,18.1,757.6,17.9,757.4,17.9z"/><path fill="#FFF" d="M743.5,13.8h-0.3h-1.4h-0.3c-0.2,0-0.3,0.1-0.3,0.3l-0.4,2.4c0,0.2,0,0.3,0.2,0.3h0.3h1.4h0.3 c0.2,0,0.3-0.1,0.3-0.3l0.4-2.4C743.8,13.9,743.7,13.8,743.5,13.8z M742.9,14.6l-0.2,1.4l-0.1,0.1h-0.9l-0.1-0.1l0,0l0.2-1.4 l0.1-0.1L742.9,14.6L742.9,14.6L742.9,14.6z"/><path fill="#FFF" d="M731.7,18.6l-1.1,2.6L731.7,18.6z"/><path fill="#FFF" d="M742,25.8h-2.6c-0.2,0-0.4-0.1-0.5-0.3L736.3,14c-0.1-0.2,0-0.3,0.2-0.3h2.4c0.2,0,0.4,0.1,0.5,0.3 l2.8,11.5C742.3,25.7,742.2,25.8,742,25.8z"/><path fill="#FFF" d="M734.1,13.6h-2.6c-0.2,0-0.4,0.1-0.5,0.3l-4.9,11.5c-0.1,0.2,0,0.3,0.2,0.3h2.9c0.2,0,0.4-0.1,0.5-0.3 l2.9-7.2l0,0l1.7-4.3C734.5,13.8,734.4,13.6,734.1,13.6z"/></g></svg>