<svg xmlns="http://www.w3.org/2000/svg" viewBox="0 0 640 160"><path d="M194.95 104.05v10.41c-.1 3.09-.72 5.88-1.86 8.25-.93 2.06-2.37 4.02-4.43 5.57-2.06 1.65-4.84 2.58-8.55 2.58s-6.6-.93-8.66-2.58c-2.06-1.54-3.4-3.51-4.33-5.57-1.13-2.37-1.75-5.15-1.86-8.25V69.81c.11-2.99.72-5.78 1.86-8.15.93-2.06 2.27-4.13 4.33-5.67s4.95-2.58 8.66-2.58 6.49 1.04 8.55 2.58c2.06 1.55 3.51 3.61 4.43 5.67 1.13 2.37 1.76 5.15 1.86 8.15v10.41h-10.41V69.81c0-2.06-.52-3.51-1.65-4.74-.52-.52-1.44-.83-2.58-.83-1.96 0-2.88 1.44-3.4 2.78-.3.83-.41 1.76-.52 2.79v44.65c.11 2.16.72 3.61 1.76 4.74.52.52 1.23.83 2.16.83 2.37 0 3.3-1.24 3.82-2.78.3-.72.41-1.65.41-2.78v-10.41h10.41Zm32.44-16.7v28.97c-.3 5.47-1.95 9.28-5.56 12.27-1.86 1.55-4.43 2.27-7.83 2.27-6.7 0-10-3.72-11.65-7.43-.93-2.16-1.54-4.64-1.64-7.42V87.65c.31-5.47 1.95-9.48 5.56-12.57 1.76-1.55 4.33-2.27 7.73-2.27 6.7 0 10.1 3.72 11.75 7.32.93 2.17 1.54 4.54 1.64 7.22Zm-9.8 28.65V87.64c.11-2.16-.31-3.71-1.34-4.95-.52-.52-1.34-.83-2.27-.83-1.96 0-2.79 1.34-3.2 2.89-.31.83-.41 1.76-.31 2.89V116c-.1 2.16.42 3.72 1.34 4.84.52.52 1.23.83 2.17.83 1.95 0 2.88-1.24 3.29-2.78.31-.83.42-1.76.31-2.89ZM73.42 92.18c0 14.85-.42 24.23-3.3 30.01-2.99 5.78-8.56 7.84-18.86 7.84H42.5V54.24h8.76c10.3 0 15.87 2.06 18.86 7.84 2.88 5.78 3.3 15.26 3.3 30.11Zm-11.54-.11c0-6.19 0-11.03-.11-14.65-.1-3.5-.52-6.19-1.03-8.04-1.13-3.61-3.29-4.02-7.11-4.02v53.53c3.81 0 5.98-.42 7.11-4.13.52-1.75.93-4.43 1.03-8.04.11-3.61.11-8.45.11-14.65Zm44.63-4.72v28.97c-.3 5.47-1.95 9.28-5.56 12.27-1.86 1.55-4.43 2.27-7.83 2.27-6.7 0-10-3.72-11.65-7.43a20.32 20.32 0 0 1-1.64-7.42V87.65c.31-5.47 1.96-9.48 5.56-12.58 1.76-1.55 4.33-2.27 7.73-2.27 6.7 0 10.1 3.72 11.75 7.32.93 2.17 1.54 4.54 1.64 7.22ZM96.71 116V87.64c.11-2.16-.31-3.71-1.34-4.95-.52-.52-1.34-.83-2.27-.83-1.96 0-2.79 1.34-3.2 2.89-.31.83-.41 1.76-.31 2.89V116c-.1 2.16.42 3.72 1.34 4.84.52.52 1.23.83 2.17.83 1.96 0 2.88-1.24 3.29-2.78.31-.83.42-1.76.31-2.89Zm16.73-51.36h10.41V54.23h-10.41v10.41Zm10.41 8.98h-10.41v60.12c0 .93-.1 1.86-.21 2.68-.41 1.75-1.23 3.19-2.99 3.19-.62 0-1.25-.1-1.96-.21-.31-.1-.62-.1-.93-.2v9.59c.31.1.62.2 1.03.31.72.2 1.86.31 3.5.31 5.88 0 9.07-2.99 10.51-6.8 1.44-3.72 1.44-8.26 1.44-11.14V73.62Zm33.99 42.7c-.3 5.47-1.96 9.28-5.56 12.27-1.86 1.55-4.43 2.27-7.83 2.27-6.7 0-10-3.72-11.65-7.43-.93-2.16-1.54-4.64-1.64-7.42V87.65c.31-5.47 1.95-9.48 5.56-12.58 1.76-1.55 4.33-2.27 7.73-2.27 6.7 0 10.1 3.72 11.75 7.32.93 2.17 1.54 4.54 1.64 7.22v28.97Zm-9.79-.32V87.65c.11-2.16-.31-3.71-1.34-4.95-.52-.52-1.34-.83-2.27-.83-1.96 0-2.79 1.34-3.2 2.89-.31.83-.41 1.76-.31 2.89v28.36c-.1 2.16.42 3.72 1.34 4.84.52.52 1.23.83 2.17.83 1.96 0 2.88-1.24 3.3-2.78.31-.83.42-1.76.31-2.89Zm97.17 9.56v-8.66 12.38h-10.41V73.69h10.41v2.9c.93-.83 1.75-1.55 2.68-2.27 1.54-1.14 3.61-2.27 5.57-2.27 2.88 0 4.84 1.66 6.08 3.72 1.34 2.17 1.95 4.95 1.95 7.32v46.2h-10.4V85.26c0-1.96-1.23-3.4-2.78-3.4s-3.09 1.75-3.09 3.4v31.66m282.13 1.89c-.82.25-1.55.63-2.19 1.14-.64.51-1.17 1.15-1.6 1.91-.43.77-.72 1.66-.87 2.69l2.32.41c.11.02.22.03.33.04.11 0 .21.01.3.01.4 0 .71-.09.94-.28.23-.19.42-.5.57-.92.09-.25.22-.49.38-.71.16-.22.34-.41.56-.57.22-.16.46-.29.74-.38.27-.09.58-.14.91-.14.8 0 1.4.22 1.79.66.39.44.59 1.07.59 1.89 0 .5-.06.98-.18 1.42-.12.45-.31.9-.55 1.35-.25.45-.56.91-.94 1.37s-.82.95-1.33 1.46l-5.95 6c-.28.25-.48.54-.6.85s-.17.6-.17.88v1.42h14.51v-2.55c0-.43-.14-.77-.41-1.03-.27-.26-.65-.39-1.12-.39h-3.85c-.44 0-.92.04-1.42.13-.51.09-1.02.21-1.54.36l4.04-4.14c.55-.56 1.06-1.11 1.55-1.65.49-.54.91-1.11 1.28-1.69.37-.58.66-1.19.87-1.83.21-.64.32-1.34.32-2.1 0-.88-.15-1.68-.46-2.42-.31-.73-.75-1.36-1.33-1.89-.58-.53-1.27-.94-2.09-1.24s-1.74-.45-2.76-.45c-.95 0-1.83.12-2.65.38Zm25.85 5.48c-.39-1.32-.92-2.42-1.61-3.29-.69-.87-1.5-1.51-2.44-1.93-.94-.42-1.96-.63-3.05-.63s-2.11.21-3.04.63c-.93.42-1.74 1.07-2.42 1.93s-1.21 1.96-1.59 3.29-.57 2.89-.57 4.69.19 3.37.57 4.69c.38 1.32.91 2.42 1.59 3.29s1.49 1.52 2.42 1.94c.93.43 1.94.64 3.04.64s2.11-.21 3.05-.64c.94-.42 1.75-1.07 2.44-1.94.68-.87 1.22-1.97 1.61-3.29.39-1.32.58-2.89.58-4.69s-.19-3.37-.58-4.69Zm-4.22 8.21c-.18.91-.42 1.62-.72 2.15s-.64.88-1.01 1.08-.76.29-1.15.29-.77-.1-1.14-.29c-.37-.19-.7-.55-.99-1.08-.29-.52-.52-1.24-.69-2.15s-.26-2.08-.26-3.51.09-2.6.26-3.51.41-1.63.69-2.15c.29-.52.62-.88.99-1.07.37-.19.75-.29 1.14-.29s.77.1 1.15.29c.38.19.72.55 1.01 1.07s.54 1.24.72 2.15.27 2.08.27 3.51-.09 2.61-.27 3.51Zm11.25-13.68c-.82.25-1.55.63-2.19 1.14-.64.51-1.17 1.15-1.6 1.91-.43.77-.72 1.66-.87 2.69l2.32.41c.11.02.22.03.33.04.11 0 .21.01.3.01.4 0 .71-.09.94-.28.23-.19.42-.5.57-.92.09-.25.22-.49.38-.71.16-.22.34-.41.56-.57.22-.16.46-.29.74-.38.27-.09.58-.14.91-.14.8 0 1.4.22 1.79.66.39.44.59 1.07.59 1.89 0 .5-.06.98-.18 1.42-.12.45-.31.9-.55 1.35-.25.45-.56.91-.94 1.37s-.82.95-1.33 1.46l-5.95 6c-.28.25-.48.54-.6.85s-.17.6-.17.88v1.42h14.51v-2.55c0-.43-.14-.77-.41-1.03-.27-.26-.65-.39-1.12-.39h-3.85c-.44 0-.92.04-1.42.13-.51.09-1.02.21-1.54.36l4.04-4.14c.55-.56 1.06-1.11 1.55-1.65.49-.54.91-1.11 1.28-1.69.37-.58.66-1.19.87-1.83.21-.64.32-1.34.32-2.1 0-.88-.15-1.68-.46-2.42-.31-.73-.75-1.36-1.33-1.89-.58-.53-1.27-.94-2.09-1.24s-1.74-.45-2.76-.45c-.95 0-1.83.12-2.65.38Zm16.84 0c-.82.25-1.55.63-2.19 1.14-.64.51-1.17 1.15-1.6 1.91s-.72 1.66-.87 2.69l2.32.41c.11.02.22.03.33.04.11 0 .21.01.3.01.4 0 .71-.09.94-.28.23-.19.42-.5.57-.92.09-.25.22-.49.38-.71.16-.22.34-.41.56-.57.22-.16.46-.29.74-.38.27-.09.58-.14.91-.14.8 0 1.4.22 1.79.66.39.44.59 1.07.59 1.88 0 .4-.05.76-.14 1.09-.09.33-.29.61-.57.84-.29.23-.7.41-1.23.54-.53.13-1.22.2-2.08.2v3.03c1.02 0 1.82.07 2.39.21s1 .33 1.28.59c.28.25.46.56.52.91s.09.75.09 1.2c0 .34-.06.68-.18 1.01-.12.33-.3.63-.55.89-.24.26-.54.47-.91.64-.36.17-.79.25-1.28.25-.64 0-1.2-.18-1.68-.53s-.93-.92-1.35-1.71c-.12-.23-.3-.4-.55-.52-.24-.12-.51-.18-.81-.18-.16 0-.32.01-.49.04s-.33.08-.5.16l-1.96.79c.33.96.72 1.79 1.17 2.49.45.7.97 1.27 1.57 1.72.6.45 1.28.78 2.04.99.77.21 1.64.32 2.62.32s1.87-.13 2.75-.4c.88-.27 1.65-.67 2.32-1.21a5.71 5.71 0 0 0 1.59-2.03c.4-.81.6-1.77.6-2.86 0-2.32-1.14-3.87-3.43-4.66.49-.17.93-.38 1.31-.64s.7-.56.96-.93c.26-.36.46-.79.59-1.29.13-.5.2-1.07.2-1.72 0-.72-.14-1.4-.42-2.05s-.7-1.22-1.25-1.71-1.22-.88-2.01-1.17c-.79-.29-1.7-.43-2.72-.43-.94 0-1.83.12-2.65.38Zm20.43-65.03v76h-7.15v-2h5.15V55.76h-6.64c-.35 1.3-.69 2.59-.97 3.9-.25 1.17-1.78 2.47.25 3.57.14.07-.09.98-.31 1.43-3.31 6.67-4.7 13.76-5.09 21.09-.03.63-1 1.21-1.53 1.81l-.59-.32.21-3.21c-.21-.11-.41-.22-.62-.33-.41.66-1.21 1.33-1.18 1.97.17 4.33-3.49 4.73-6.37 5.9-.5.2-1.39.17-1.77-.14-2.22-1.76-4.21-.66-6.1.44-1.34.78-2.26.63-3.31-.43-2.07-2.09-4.08-4.1-5.26-6.92-1.24-2.94-3.22-5.59-4.83-8.4-1.08-1.89-2.04-3.84-3.15-5.71-1.39-2.36-2.86-4.66-4.4-7.14-.45.43-.84.63-.91.91-1.26 5.02-2.67 10.01-3.68 15.08-1.3 6.53-2.21 13.14-3.44 19.68-.55 2.91-4.74 4.48-7.42 3.17-6.27-3.08-5.34-5.8-3.49-11.64 1.33-4.18 2.66-8.37 3.82-12.6 1.94-7.07 3.77-14.17 5.62-21.26.07-.28.14-.57.21-.86h-21.69c.25 2.07.51 4.14.74 6.21.21 1.86.22 3.74.45 5.6.72 5.83 1.48 11.65 2.27 17.46.6 4.4 1.04 8.84 1.98 13.18.62 2.87.36 5.57-.27 8.32-.09.4-.31.77-.71 1.72-.82-1.17-1.37-1.95-1.99-2.82-.14.44-.25.92-.45 1.36-.35.79-.86 2.26-1.1 2.22-1.05-.17-2.58-.53-2.92-1.26-.85-1.82-2.12-2.47-4.34-2.38.86-.77 1.49-1.33 2.26-2.03-1.43-.53-2.89-.77-3.92-1.55-.74-.56-1.38-1.88-1.26-2.76.48-3.71 1.34-7.38 1.9-11.09.26-1.75.35-3.57.17-5.32-.74-7.17-1.62-14.34-2.46-21.5-.03-.23-.16-.45-.5-1.34-5.42 7.47-8.64 15.45-12.53 23.27 4.23.95 8.64-2.29 12.73 1.71-3.81.54-7.08 1-10.36 1.46.02.2.05.4.07.6 2.92-.1 5.83-.2 8.75-.29.01.17.03.35.04.52-4.16.79-8.31 1.61-12.48 2.35-2.11.37-3.2 1.48-3.83 3.49-1.16 3.7-2.79 7.26-3.92 10.96-.77 2.54-.9 5.27-1.59 7.84-.21.76-1.43 1.22-2.07 1.93-.8.89-1.45 1.91-2.2 2.84-1.14 1.42-2.79 1.71-4.36 1.23-1.34-.41-3.45.82-3.8-1.68-.76.36-1.29.68-1.87.87-1.82.58-2.92-.19-3.04-2.03-.2-2.92 1.19-5.34 2.59-7.75 1.79-3.07 3.74-6.05 5.43-9.17.55-1.02.5-2.34.77-3.82-2.03 1.07-3.41 1.79-5.42 2.86-.13-.22-.8-.84-.67-1.23.73-2.29-1.85-2.56-2.47-2.61-2.22-.19-2.57-1.77-2.59-3.04-.02-1.2.73-2.61 1.57-3.57 2.81-3.22 6.78-3.1 10.67-3.03.27 0 .54.05.81.06 4.97.09 4.81-.02 7.04-4.44 3.74-7.41 7.68-14.72 11.7-21.99.26-.46.54-.91.83-1.35h-58.18c-.29.74-.81 1.45-1.58 2.07-.97.77-1.61 1.91-2.4 2.89.15.17.31.33.46.5 2.61-.54 5.23-1.05 7.83-1.63 6.38-1.42 12.85-2.27 19.39-2.3 4.46-.03 8.72.85 11.71 4.51 3.11 3.81 3.37 8.5.03 12.52-1.17 1.41-2.42 2.75-3.68 4.09-.44.47-1.03.8-1.55 1.2l-.51-.43c.71-1.53 1.41-3.06 2.12-4.6l-.57-.37c-2.69 2.55-5.38 5.09-8.07 7.64-1 .95-1.93 1.96-3 2.83-2.66 2.19-5.38 4.31-8.38 6.7-.03-.7-.04-1.01-.05-1.51-5.05 3.25-10.01 6.43-14.97 9.62-.17-.21-.33-.42-.5-.64 1.87-1.45 3.74-2.9 5.6-4.35-.14-.18-.28-.37-.41-.55-1.42.97-2.85 1.93-4.25 2.93-.99.7-1.87 1.55-2.92 2.15-.65.37-1.92.76-2.2.48-.68-.66-1.49-1.9-1.24-2.57.56-1.49 1.41-3.29 2.72-4.03 3.37-1.9 5.11-5.15 7.74-7.63 3.07-2.89 5.86-6.08 8.57-9.3 1.62-1.94 3.23-4.04 4.16-6.32 1.16-2.85-.64-4.45-3.88-4.46-4.61 0-8.98 1-13.37 2.15-1.66.44-2.5 1.14-2.73 2.84-.78 5.62-1.8 11.21-2.59 16.82-.99 7.07-2.04 14.15-2.7 21.25-.34 3.68.1 7.42.16 11.13.02.94-.05 1.89-.08 2.83-.25.04-.51.08-.76.11-.28-.85-.56-1.71-.85-2.56-.2-.02-.39-.05-.59-.07l-.06 7.25c-.2.01-.4.03-.6.04-.61-1.73-1.23-3.47-2.01-5.7-.59 2.34-1.09 4.29-1.58 6.23-.14-.14-.29-.28-.43-.41-.23.2-.46.41-.69.62h102.74v2H388.14c.16 1.49.32 3.01.48 4.56-.78-.71-1.1-1-1.41-1.29-2.2 2.72-6.3 3.3-11.11-2.21-.22.48-.41.88-.64 1.36-.47-.68-.8-1.52-.99-2.42h-22.02c-.56 2.41-1.11 4.82-1.26 7.25-.15 2.59-1.18 5-3.38 6.52.38.66.76 1.52.31 2.14-.19.26-.49.42-.78.56-1.91.91-4.19 1.57-6.3 1.76-1.84.16-3.8-.18-5.27-1.31-1.74-1.35-2.55-3.65-2.51-5.86.08-4.07 2.48-7.73 4.8-10.91l.12-.15h-16.2c-1.51 3.71-3.12 7.39-4.69 11.07-.74 1.73-1.62 3.38-3.78 4.22-2.25.88-4.15 2.98-6.42 3.37-5.7.96-11.35 2.76-17.32 1.83-2.1-.33-4.31-.05-6.47-.05l.06-.51c1.89-.43 3.78-.87 5.67-1.3 0-.3.01-.6.02-.9-3.19-.34-6.43-.49-9.57-1.09-3.23-.62-6.37-1.68-10.02-2.68.97-.83 1.52-1.3 2.09-1.79-.43-.16-.84-.32-1.26-.47-.49-.18-.56-.31-1.05-1.61-.06-.16-.38-.22-.58-.34-1.68-.97-3.32-2-5.04-2.9-3.37-1.76-3.39-1.73-4.69-5.41 3.34 1.24 6.42 2.62 9.64 3.54 7.75 2.21 15.83 3.1 23.72 1.86 5.94-.94 11.46-3.27 16.17-6.82h-30.95V53.76h140.98c.77-1.83 2.25-2.83 4.76-3.38 2.85-.62 5.57-1.31 8.45.03 1.65.77 2.62 2.01 2.84 3.35h59.32c.91-1.26 1.84-2.5 2.7-3.79.5-.76.76-1.67 1.18-2.6-2.78-.06-2.87-.2-1.8-2.34.47-.94 1.08-1.84 1.37-2.83.9-3.06 3.28-3.83 6.18-4.02 1.92-.13 3.83-.43 5.91-.68-.81 1.64.25 2.88 3.11 4.35.07 1.98.2 3.69.17 5.4-.02.81-.58 1.64-.51 2.42.14 1.37.3 2.73.46 4.09h22.42c.62-2.48 1.22-4.97 1.85-7.45.44-1.74-.54-3.08-2.5-3.26.41-2.19.72-4.41 1.25-6.57.9-3.66 4.11-5.88 8.09-5.82 1.75.03 3.5-.07 5.3-.12.45 3.17.99 6.52 1.36 9.89.13 1.21-.2 2.47-.23 3.71-.08 3.37 1.04 6.48 2.09 9.61h25c.52-1.7 1.03-3.39 1.58-5.08 3.91-12.17 7.35-24.48 10.99-36.73.05-.17-.01-.41.09-.51.67-.67 1.37-1.3 2.07-1.95.35.85 1.03 1.73.97 2.56-.1 1.62-.6 3.22-.96 4.83-.21.95-.95 1.86.4 2.74.33.21-.01 1.57-.24 2.35-1.15 3.99-2.51 7.93-3.5 11.95-.41 1.66-.07 3.48-.13 5.23-.03.85-.14 1.71-.34 2.53-.98 4.03-1.99 8.05-2.99 12.07h.86c.58-2.07 1.17-4.14 1.75-6.21l.6.09c-.37 2.04-.73 4.08-1.1 6.12h1.11l.09-.3c.31.08.62.15.93.23 0 .02-.01.05-.02.07h8.11Zm-223.26 74c-.03-2.43.73-4.94 2.11-6.24.59-.56 1.12-1.5 1.13-2.27.05-5.26-.19-10.52-.07-15.78.11-4.62.57-9.24.86-13.85.13-2.14.24-4.27.1-6.49-7.58 7.8-12.49 17.15-17.88 26.44 4.61.39 8.73.74 12.85 1.09.04.47.03.36.08.84l-5.86 1.61c.8.26 1.51.48 2.29.73q-2.3 2.48-9.66 3.42c.83 0 1.67-.03 2.5.01.76.04 1.52.17 2.42.83-1.93.55-3.84 1.41-5.81 1.58-3.6.32-5.34 2.05-5.89 5.42-.15.89-.33 1.77-.52 2.65h21.35Zm43.71-72H279.51v71.97h31.37c.63-.57 1.25-1.15 1.85-1.77 1.97-2.05 3.06-4.95 4.21-7.6 1.62-3.77 3.1-7.61 4.32-11.51 1.66-5.3 3.01-10.69 4.49-16.05-.2-.05-.4-.1-.59-.16-.79 1.3-1.58 2.6-2.37 3.91l-.62-.09c.11-1.42.22-2.84.37-4.75-3.24 1.01-6.2 1.94-9.17 2.85-1.02.31-2.06.54-3.07.89-2.59.9-5.26 1.67-7.72 2.82-3.49 1.64-7 3.09-10.77 1.28-3.65-1.75-7.16-6.47-4.51-10.96 1.25-2.12 4.55-3.51 6.92-3.01 7.62 1.62 15.12 1.73 22.54-1.16 4.89-1.91 10.01-3.31 14.89-5.24 2.72-1.07 5.33-2.55 7.7-4.21 2.29-1.6 4.43-2.2 7.02-.95 1.69.82 3.37 1.68 5.12 2.37 2.83 1.13 3.03 3.14 2.97 5.03-.06 2.01-2.05 3.83-4.48 4.12-1.85.22-3.78-.1-5.62.15-2.29.31-4.55.89-6.77 1.51-.37.1-.57.98-.73 1.53-1.34 4.48-2.56 8.99-4.04 13.43-.23.69.55 2.85-1.84 2.12-.05-.01-.51 1.04-.68 1.63-1.8 6.13-3.32 12.35-5.44 18.37-.64 1.83-1.34 3.64-2.05 5.44h16.89c.74-.97 1.48-1.94 2.21-2.92.64-.86 1.26-1.72 1.86-2.61.29-.43.57-.87.85-1.32.11-.18.55-1.21.72-1.24-1.73.36-2.89.6-4.61.95.99.51 1.51.79 2.04 1.06-3.03 2.14-4.95 2.06-6.64-.96-1.26-2.26-1.96-4.91-2.4-7.47-.37-2.19 1.21-3.71 3.73-3.75 4.25-.06 8.52.03 12.76.35 1.91.15 2.41-.6 3.18-2.05 3.1-5.81 6.21-11.64 9.77-17.18 3.24-5.04 7.07-9.72 10.61-14.58.32-.44.41-1.03.55-1.4l-2.57-3.28c-.38.13-1.01.33-2.34.77.69-1.39 1.13-2.16 1.47-2.97 2.36-5.71 10.66-7.43 16.61-7.3-.22 1.09-.44 2.17-.68 3.39 1.05.16 1.9.29 2.85.44-.02.28.01.59-.13.84-.46.8-.72 1.69-.92 2.59-.33 1.5-.97 3.1-1.01 4.69-.14 4.75-.14 9.51-.25 14.27-.07 2.89-.32 5.77-.4 8.66-.15 4.97-.09 9.94-.21 14.91-.04 1.47-.03 2.95.07 4.42.27 3.85.67 7.68 1.11 11.69h25.25c-.26-.43-.53-.88-.77-1.34-.52-.99-.24-2.53-2.09-2.58-.2 0-.54-.46-.57-.74-.45-4.36-.85-8.73-1.27-13.1l1.07-.09.21 5.88h.75c-.02-13.04.64-26.02 3.55-39.17-2.72 1.79-4.84 3.5-7.25 4.69-4 1.97-10.47-.44-12.33-4.34-1.08-2.26.8-6.57 3.4-7.22 3.92-.99 7.92-1.69 11.87-2.57 1.93-.43 3.84-.95 5.71-1.56.46-.15.94-.8 1.04-1.29.55-2.85 1.05-5.71 1.46-8.58Zm158.67 0h-23.74c.15.49.29.98.42 1.47.28 1.09.87 2.14 1.47 3.11 3.72 6.04 7.49 12.04 11.4 18.33 5.35-7 8-14.94 10.44-22.91Zm11.14 0h-.85c-.21 1.19-.43 2.38-.64 3.56.12.03.24.05.37.08.38-1.21.75-2.43 1.13-3.64Z" style="fill-rule:evenodd"/></svg>