<?xml version="1.0" encoding="utf-8"?>
<!-- Generator: Adobe Illustrator 25.4.1, SVG Export Plug-In . SVG Version: 6.00 Build 0)  -->
<svg version="1.0" id="レイヤー_1" xmlns="http://www.w3.org/2000/svg" xmlns:xlink="http://www.w3.org/1999/xlink" x="0px"
	 y="0px" viewBox="0 0 315.8 128.3" enable-background="new 0 0 315.8 128.3" xml:space="preserve">
<g>
	<g>
		<path fill="#2CA6E0" d="M207.6,25.5h-15.5c-0.3-0.7-0.8-1.3-1.3-1.9c-1.1-1.1-2.4-1.7-3.9-2v-2.1c0-1.5-0.7-3-1.8-4
			c0.6-0.9,1-2,1-3v-2.5c0-1.4-0.6-2.7-1.5-3.7c-1-1-2.3-1.5-3.7-1.5c-0.2,0-0.4,0-0.7,0c-0.3-0.5-0.6-1-1-1.4
			c-0.8-0.8-1.9-1.3-3-1.4c0,0,0,0,0,0c-1-1.3-2.5-2-4.2-2h-3.4c-1.9,0-3.5,1-4.5,2.5c-1.4,0-2.7,0.6-3.6,1.5c-1,1-1.5,2.3-1.5,3.7
			v2.6c0,1.4,0.6,2.7,1.5,3.7c0,0,0.1,0.1,0.2,0.1c-0.6,2.1-1.4,4.4-2.2,7c-0.5,1.4-0.3,3,0.5,4.3h-18.8c-1,0-2,0.2-2.9,0.6
			c-1.1-2.5-3.6-4.2-6.4-4.2h-6.6c0.2-0.3,0.4-0.7,0.6-1l0-0.1c0.5-1.2,0.9-2.3,1.1-3.6c0.2-1.2,0.3-2.5,0.3-3.8
			c0-1.3-0.1-2.6-0.5-3.9c-0.4-1.3-1.1-2.6-2.1-3.7l0,0c-1-1.1-2.3-1.9-3.7-2.4c-1.4-0.5-2.7-0.7-4.1-0.7c-0.4,0-0.7,0-1.1,0
			c-0.2-0.4-0.5-0.9-0.9-1.2c-1-1-2.3-1.5-3.7-1.5h-3.2c-1.4,0-2.7,0.6-3.7,1.5c-0.8,0.8-1.3,1.7-1.4,2.8c-0.8,0.2-1.6,0.7-2.2,1.3
			c-1,1-1.5,2.3-1.5,3.7v2.6c0,0.9,0.3,1.8,0.7,2.6c-0.5,0.8-0.8,1.8-0.8,2.8v3.8c0,0.7,0.1,1.4,0.4,2c-0.6-0.2-1.3-0.3-2-0.3H63.3
			c0.1-0.1,0.2-0.1,0.4-0.2c1.4-1,2.2-2.6,2.2-4.3v-2.8c0-1.8-0.9-3.4-2.3-4.3V9.4C63.6,8,63,6.6,62,5.6c-1-1-2.3-1.5-3.7-1.5H57
			c-0.3-0.6-0.7-1.1-1.2-1.5c-1.1-1-2.6-1.5-4.1-1.3c-0.5,0.1-1.5,0.1-2.8,0.2c-1.3,0.1-3,0.1-5.1,0.2C41,1.8,38.8,4.1,38.8,7v2.7
			c0,0.6,0.1,1.2,0.3,1.8c-0.6,0.9-1.1,1.8-1.4,2.8c-0.5,1.4-0.6,2.9-0.6,4.3c0,1.1,0.1,2.1,0.5,3.2c0.1,0.3,0.2,0.7,0.4,1H11.6
			c-1.8,0-3.6,0.7-4.9,2s-2,3.1-2,4.9v68.6c0,1.1,0.3,2.2,0.8,3.2c-1.5,0.3-2.8,1.1-3.7,2.3c-1.3,1.6-1.9,3.7-1.5,5.7l2.3,12.9
			c0.6,3.3,3.5,5.8,6.9,5.8h18.3c1.8,0,3.6-0.3,5.3-0.8c2.6-0.8,4.9-2.4,6.7-4.3c1.8-1.9,3.1-4.1,4.2-6.5l0,0l5.2-11.2h8.3l0,6.6
			c0,2.1,0.3,4.2,0.9,6.3c0.5,1.5,1.3,3,2.3,4.4c0.8,1,1.7,1.9,2.7,2.6c1.5,1.1,3.2,1.9,5,2.4c1.7,0.5,3.5,0.7,5.3,0.7l0.1,0H100
			c1.8,0,3.6-0.7,4.9-2s2-3.1,2-4.9v-10.7l2.1,11.9c0.6,3.3,3.5,5.8,6.9,5.8h6.9c2,0,4-0.2,5.9-0.8c1.2-0.4,2.4-0.9,3.5-1.6
			c1.3,1.5,3.2,2.4,5.2,2.4h9.1c2.1,0,4.2-0.3,6.3-0.9c0.9-0.3,1.7-0.7,2.6-1.1c1.3,1.3,3.1,2.1,5,2.1h11.7c2.9,0,5.8-0.4,8.5-1.4
			c0.8-0.3,1.5-0.6,2.3-1c0.5,0.3,1,0.6,1.5,0.8c2.4,1.1,5.1,1.6,7.7,1.6h15.4c1.8,0,3.6-0.7,4.9-2s2-3.1,2-4.9v-12.1
			c0-1.8-0.7-3.6-2-4.9c-1.3-1.3-3.1-2-4.9-2h-1.6l6-6.8c1.1-1.3,1.7-2.9,1.7-4.6v-8.3c0-1.8-0.7-3.6-2-4.9
			c-0.4-0.4-0.8-0.7-1.2-0.9c0.1-0.3,0.2-0.6,0.3-0.8c0.4-1.6,0.6-3.2,0.6-4.8v-0.6c0.4-0.3,0.8-0.6,1.2-1c1.3-1.3,2-3.1,2-4.9V53.1
			c0-1.4-0.4-2.7-1.2-3.9c0.8-1.1,1.2-2.5,1.2-3.9V32.5c0-1.8-0.7-3.6-2-4.9C211.2,26.2,209.4,25.5,207.6,25.5z M197.3,64.5V71
			c0,0.4,0,0.7-0.1,1c-0.2,0-0.5,0.1-1,0.1h-2.4c0.7-1,1.2-2.1,1.5-3.1c0.3-1.1,0.4-2.1,0.4-3.1v-1.3c0-1.8-0.7-3.6-2-4.9
			c-0.3-0.3-0.6-0.5-0.9-0.7c0.3-0.2,0.6-0.5,0.9-0.7c0.5-0.5,1-1.2,1.3-1.9h3c0.3,0.7,0.8,1.3,1.3,1.9c0.3,0.3,0.6,0.5,0.9,0.7
			c-0.3,0.2-0.6,0.5-0.9,0.7C198.1,60.8,197.3,62.6,197.3,64.5z M167,59.5c-0.3-0.3-0.6-0.5-0.9-0.7c0.3-0.2,0.6-0.5,0.9-0.7
			c0.5-0.5,1-1.2,1.3-1.9h3c0.3,0.7,0.8,1.3,1.3,1.9c0.3,0.3,0.6,0.5,0.9,0.7c-0.3,0.2-0.6,0.5-0.9,0.7c-1.3,1.3-2,3.1-2,4.9v4.7
			c0,1,0.2,2,0.6,2.8H169v-7.5C169,62.6,168.3,60.8,167,59.5z M174.8,37.4c0.5-0.5,1-1.2,1.3-1.9h3.4c0.3,0.7,0.8,1.3,1.3,1.9
			c0.4,0.4,0.8,0.7,1.2,1h-8.5C174,38.1,174.4,37.8,174.8,37.4z M122.4,18.7L122.4,18.7C122.3,18.8,122.3,18.7,122.4,18.7
			C122.4,18.7,122.4,18.7,122.4,18.7z M124.7,69.7l-1.2-5.9h1.7l0.5,2.5l0.1,0.4c0.3,1,0.7,2,1.3,3c0.5,0.7,1.1,1.4,1.8,2
			c0.4,0.4,0.9,0.7,1.4,1v0.4h-2.9c-0.5,0-0.8-0.1-0.9-0.1c-0.1,0-0.2-0.1-0.2-0.1c-0.1-0.1-0.3-0.3-0.6-0.8
			C125.3,71.6,125,70.8,124.7,69.7z M125.2,38.5c0,0.3,0.1,0.5,0.2,0.8c0.3,1,0.7,2,1.3,3c0.5,0.7,1.1,1.4,1.8,2
			c0.5,0.5,1.2,0.9,1.8,1.2v0.2H127c-0.5,0-0.8-0.1-0.9-0.1c-0.1,0-0.2-0.1-0.2-0.1c-0.1-0.1-0.3-0.3-0.6-0.8
			c-0.3-0.5-0.6-1.3-0.9-2.4l-1.1-6.3h1.6L125.2,38.5z M89.2,89c0,1-0.1,1.6-0.2,1.9c0,0.1-0.1,0.2-0.1,0.2l0,0c0,0-0.2,0.1-0.4,0.1
			c-0.3,0.1-0.9,0.2-1.6,0.2h-4.4c0.4-0.2,0.9-0.5,1.3-0.8c0.6-0.5,1.2-1.1,1.7-1.7c0.7-1,1.2-2,1.4-3c0.3-1,0.3-1.9,0.3-2.7V79
			c0-1.8-0.7-3.6-2-4.9c-0.3-0.3-0.6-0.5-0.9-0.7c0.3-0.2,0.6-0.5,0.9-0.7c1.3-1.3,2-3.1,2-4.9V61c0-1.8-0.7-3.6-2-4.9
			c-0.3-0.3-0.6-0.5-0.9-0.7c0.3-0.2,0.6-0.5,0.9-0.7c1.3-1.3,2-3.1,2-4.9v-7c0-1.8-0.7-3.6-2-4.9c-0.4-0.4-0.8-0.7-1.2-1h5.2
			L89.2,89z M18.6,36.8h5.2c-0.4,0.3-0.8,0.6-1.2,1c-1.3,1.3-2,3.1-2,4.9v7c0,1.8,0.7,3.6,2,4.9c0.3,0.3,0.6,0.5,0.9,0.7
			c-0.3,0.2-0.6,0.5-0.9,0.7c-1.3,1.3-2,3.1-2,4.9v6.6c0,1.8,0.7,3.6,2,4.9c0.3,0.3,0.6,0.5,0.9,0.7c-0.3,0.2-0.6,0.5-0.9,0.7
			c-1.3,1.3-2,3.1-2,4.9v6.6c0,1.8,0.7,3.6,2,4.9c0.4,0.4,0.8,0.7,1.2,1h-5.2V36.8z M31.1,110.8L31,111c-0.4,0.9-0.8,1.5-1.1,2
			c-0.5,0.7-0.9,1-1.1,1.1c-0.3,0.1-0.5,0.2-1.2,0.2h-4.2c1-0.4,1.9-0.9,2.8-1.6c1.6-1.2,2.8-2.8,3.6-4.6l0,0l3.1-6.9
			c1-2.2,0.8-4.7-0.5-6.7c-0.6-0.9-1.3-1.6-2.2-2.1h10.5c-1.1,0.7-2,1.7-2.6,3L31.1,110.8z M71.8,114.1c-0.1,0-0.2-0.1-0.2-0.1l0,0
			c0,0-0.1-0.2-0.1-0.4c-0.1-0.3-0.2-0.9-0.2-1.6V98.4c0-1.8-0.7-3.6-2-4.9c-0.4-0.4-0.8-0.7-1.2-1h8.5c-0.4,0.3-0.8,0.6-1.2,1
			c-1.3,1.3-2,3.1-2,4.9v7.6c0,1,0.1,2.1,0.5,3.3c0.3,0.9,0.8,1.8,1.4,2.7c0.5,0.6,1.1,1.2,1.7,1.7c0.4,0.3,0.7,0.5,1.1,0.7h-4.3
			C72.7,114.3,72.1,114.2,71.8,114.1z M108.4,104c-0.8,0.9-1.3,2-1.5,3.1c-0.3-1.3-0.9-2.6-1.9-3.6c-1.3-1.3-3.1-2-4.9-2h-1.7
			c0.7-0.6,1.3-1.3,1.8-2c1.1-1.5,1.9-3.2,2.4-5c0.5-1.7,0.7-3.5,0.7-5.3l0-0.1V29.8c0-1.2-0.3-2.4-0.9-3.5c0.1,0,0.2,0,0.2,0
			c0.2,0.3,0.4,0.6,0.7,0.8c1,1,2.3,1.5,3.7,1.5h1c0,0.5,0,1,0.1,1.5l2.7,14.8l0.1,0.4c0.4,1.7,1,3.4,1.7,4.9
			c-1.2,0.4-2.2,1.2-3,2.1c-1.3,1.6-1.8,3.8-1.4,5.8l3.1,14.4l0,0.2c0.5,1.9,1.1,3.7,2,5.5c0.6,1.2,1.3,2.3,2.2,3.3
			c-0.3,0.7-0.6,1.4-0.7,2.2l-2.3,17.8C110.8,101.9,109.4,102.8,108.4,104z M125.4,113.8c-0.1,0.1-0.2,0.2-0.5,0.3
			c-0.3,0.1-1,0.3-2,0.3h-1l-0.1-0.6c0.2-0.2,0.4-0.3,0.6-0.5c1.1-1,1.9-2.2,2.4-3.3c0.5-1.1,0.8-2.2,0.9-3.2l0-0.1l2-15h1.4
			l-2.9,20.1c-0.1,0.8-0.3,1.3-0.5,1.6C125.6,113.6,125.5,113.7,125.4,113.8z M146.7,114.4h-3.1l-0.1-0.7c0.1,0,0.1-0.1,0.2-0.1
			c0.6-0.5,1.2-1.1,1.7-1.7c0.7-1,1.2-2,1.4-3c0.3-1,0.3-1.9,0.3-2.7V39.5h5.2c-0.4,0.3-0.8,0.6-1.2,1c-1.3,1.3-2,3.1-2,4.9v66.6
			c0,1-0.1,1.6-0.2,1.9c0,0.1-0.1,0.2-0.1,0.2l0,0c0,0-0.2,0.1-0.4,0.1C148,114.3,147.4,114.4,146.7,114.4z M190.3,114
			c-0.5-0.3-1.1-0.6-1.8-1.4c-2.6-2.8-7-3-9.8-0.4c-0.8,0.7-1.6,1.2-2.6,1.6c-0.6,0.2-1.2,0.4-1.9,0.5c1.1-0.5,2.1-1.2,3.1-1.9
			c1.6-1.3,2.5-3.2,2.6-5.2c0-1.1-0.2-2.1-0.6-3c2.5,0.6,5.1-0.1,6.9-2.1l3.7-4.2c1.8-2.1,2.3-5,1.1-7.5c-0.1-0.3-0.3-0.5-0.4-0.7
			h7.9l-10.5,12c-1.3,1.5-1.9,3.5-1.7,5.5s1.4,3.8,3.1,4.9l1.3,0.9c0.6,0.6,1.2,1.1,2,1.6h-0.5C191.4,114.4,190.8,114.2,190.3,114z"
			/>
		<path fill="#2CA6E0" d="M313.6,36.5c-1.4-1.3-3.3-2-5.2-1.9c-5.7,0.4-13.7,0.7-24,1v-5.1c0-1.8-0.7-3.6-2-4.9
			c-1.3-1.3-3.1-2-4.9-2h-15.8c-1.8,0-3.6,0.7-4.9,2s-2,3.1-2,4.9V36c-9.8,0.1-20.6,0.1-32.5,0.2c-3.8,0-7,3.1-7,7v12.6
			c0,1.8,0.7,3.6,2,4.9c1.3,1.3,3.1,2,4.9,2c3.6,0,7.1,0,10.5,0c-1.1,1.6-2,3.3-2.7,5.1c-1.1,3-1.6,6.1-1.6,9.3
			c0,3.6,0.6,7.1,2,10.4c1.4,3.2,3.4,6.2,6,8.6l0,0c1.9,1.8,4.1,3.3,6.5,4.5c-0.2,0-0.3,0-0.5,0c-1.8,0-3.6,0.7-4.9,2s-2,3.1-2,4.9
			v12.9c0,1.8,0.7,3.6,2,4.9c1.3,1.3,3.1,2,4.9,2c5.6,0,11-0.9,16.1-2.6c5.1-1.7,9.8-4.4,14.1-7.8l0,0c4.9-4,8.7-9.2,11.2-15.2
			c2.4-6,3.5-12.7,3.5-20.1c0-2.9-0.1-5.5-0.4-7.8c-0.2-1.1-0.4-2.2-0.7-3.3c-0.3-0.9-0.6-1.8-1-2.8c-0.2-0.6-0.5-1.1-0.7-1.7v-4.1
			c4.8-0.1,9.1-0.3,12.8-0.4c5.3-0.2,9.4-0.5,12.3-0.7c3.6-0.3,6.3-3.4,6.3-7V41.6C315.8,39.6,315,37.8,313.6,36.5z M234.9,60
			L234.9,60C235,60,234.9,60,234.9,60C234.9,60,234.9,60,234.9,60z M243.1,72.8c0.5-1.2,1.1-2.2,2-3.3l0,0c0.5-0.5,1-1,1.5-1.4
			c-0.1,0.2-0.3,0.4-0.4,0.5c-0.9,1.4-1.4,2.9-1.7,4.4c-0.3,1.5-0.5,3-0.5,4.5c0,1.7,0.2,3.5,0.8,5.3c0.4,1.3,1.1,2.6,2,3.8
			c0.1,0.2,0.3,0.3,0.4,0.5c-0.5-0.3-0.9-0.7-1.3-1.1l0,0c-1.3-1.2-2.1-2.4-2.7-3.8c-0.6-1.4-0.9-3-0.9-4.9
			C242.4,75.5,242.6,74,243.1,72.8z M270.8,96.7c-0.8,1.8-1.7,3.5-2.7,5c0.6-1.2,1.2-2.4,1.6-3.7c0.8-2.4,0.2-5-1.4-6.8
			c-0.7-0.8-1.6-1.4-2.6-1.8c0.5-0.3,0.9-0.7,1.4-1.1c0.8-0.8,1.5-1.6,2-2.5c0.8-1.4,1.3-2.8,1.6-4.2c0.3-1.4,0.4-2.8,0.4-4.2
			c0-1.8-0.2-3.5-0.7-5.2c-0.4-1.3-0.9-2.6-1.7-3.8c-0.6-0.9-1.3-1.8-2.2-2.5c-0.5-0.5-1.1-0.9-1.7-1.2c0.5-0.2,0.9-0.5,1.3-0.9
			c1.6-1.3,2.5-3.3,2.5-5.3v-2.6c0-1.9-0.7-3.6-2.1-5c-0.6-0.6-1.3-1.1-2-1.4c2.4-1.1,4.1-3.5,4.1-6.3v-5.5h1.9v5.3
			c0,1.9,0.8,3.7,2.1,5c0.6,0.6,1.2,1,2,1.3c-2.4,1.1-4.1,3.5-4.1,6.4V68c0,1.1,0.3,2.3,0.8,3.3c0.4,0.7,0.7,1.4,1,2.1
			c0.1,0.3,0.2,0.5,0.4,0.8h0c0,0,0,0,0.1,0.1c0.1,0.3,0.3,1.3,0.5,2.6c0.1,1.3,0.2,3,0.2,5C273.3,87.9,272.4,92.8,270.8,96.7z"/>
	</g>
	<path fill="#FFFFFF" d="M86.9,98.4h-6.7v7.6c0,1.6,0.8,2.4,2.4,2.4H100v12.9H73.6c-6.2-0.1-9.4-3.2-9.4-9.4V98.4H44.5l-7.1,15.3
		c-2.2,5.1-5.4,7.6-9.8,7.6H9.3L7,108.5h10.6c2.9,0,4.9-1.1,5.8-3.1l3.1-6.9h-15V29.8h84.7v59.3C96.2,95.3,93,98.4,86.9,98.4z
		 M80.3,49.7v-7H27.5v7H80.3z M80.3,67.6V61H27.5v6.6H80.3z M27.5,79v6.6h50.4c1.6,0,2.4-0.8,2.4-2.4V79H27.5z"/>
	<path fill="#FFFFFF" d="M137.1,84.7l-4,28.3c-1,5.6-4.4,8.4-10.2,8.4H116l-2.3-12.9h2.6c1.4,0,2.2-0.9,2.5-2.7l2.8-21.1H137.1z
		 M132.2,37.4c0.4,1.6,1.6,2.4,3.3,2.4h1.8v12.9H127c-4.9,0-8-3-9.4-8.9L114.9,29h15.9L132.2,37.4z M132.5,64.8
		c0.4,1.6,1.6,2.4,3.3,2.4h1.4v12.9h-9.9c-4.9,0-8-3-9.4-8.9l-3.1-14.4h15.9L132.5,64.8z M169.9,32.5v-3.9h15.9v3.9h21.8v12.9H156
		V112c-0.1,6.2-3.2,9.4-9.4,9.4h-9.1l-2.1-12.9h2.2c1.6,0,2.4-0.8,2.4-2.4V32.5H169.9z M162,64.5h-4.1V53.1h4.1v-3.9h15.6v3.9h11.2
		v-3.9h15.6v3.9h3.2v11.4h-3.2V71c0,5.3-2.7,8-8,8H162V64.5z M206.7,90.8l-13.5,15.3l2,1.3c1,1.2,2.3,1.8,3.8,1.8h8.5v12.1h-15.4
		c-3.4,0-6.4-1.3-8.9-4c-2.9,2.7-6.6,4-11.1,4h-11.7l-2.1-12.1h6.1c3.6,0,6.3-0.8,8.3-2.4l-10.6-9.9h18.2l0.5,0.4l3.7-4.2h-25.2
		V82.5h47.2V90.8z M185.4,69.1c2.2-0.1,3.3-1.2,3.3-3.3v-1.3h-11.2v4.7H185.4z"/>
	<path fill="#FFFFFF" d="M261.6,30.5h15.8v12.3c13.8-0.4,24.3-0.8,31.4-1.2v12.6c-5.5,0.5-15.9,1-31.4,1.3V68c0.5,1,1,1.9,1.3,3
		c1,1.9,1.5,5.6,1.5,11c0,13.3-4,23.2-12.1,29.8c-7.4,5.9-16,8.9-25.8,8.9v-12.9c6.2,0,11.6-1.8,16.2-5.2c2-1.5,3.4-3.8,4.4-6.7
		c-2.5,0.5-4.9,0.8-7.3,0.8c-5.9,0-10.7-1.8-14.6-5.4c-3.9-3.6-5.8-8.2-5.8-13.8c0-5,1.6-9.2,4.7-12.5c4.2-4.5,10.2-6.8,18.1-6.8
		c1.1,0,2.3,0.1,3.4,0.3v-2.6c-11.3,0.1-24.5,0.1-39.4,0.1V43.2c14.8-0.1,27.9-0.1,39.4-0.2V30.5z M257.7,69.6
		c-4.4,0.1-6.6,2.7-6.6,7.9c0,4.7,2.3,7.1,7,7.1c4-0.1,6-2.5,6-7.3C264.1,72.2,262,69.6,257.7,69.6z"/>
	<path fill="#FFFFFF" d="M52.3,8.9L52.3,8.9l-1,4c1.1,0.1,2.4,0.4,3.6,0.7l0.2,0.1V9.4h3.2v5.2h0c0.8,0.3,1.6,0.6,2.3,0.9v2.8
		c-0.9-0.3-1.8-0.6-2.6-0.8c-0.3,1.3-0.8,2.4-1.6,3.3c-1.3,1.4-3.5,2.2-6.5,2.5v-2.6c2.1-0.4,3.5-1,4.2-1.8c0.5-0.6,0.8-1.3,0.9-2.2
		c-1.8-0.5-3.2-0.9-4.4-1.1l-0.9,3.4c-0.4,1.4-0.8,2.3-1.4,2.8c-0.7,0.5-1.5,0.8-2.5,0.8c-1.2,0-2-0.3-2.6-1
		c-0.6-0.7-0.9-1.7-0.9-2.9c0-2,0.5-3.5,1.5-4.5c0.8-0.8,2.2-1.3,4.2-1.3l0.9-3.4c-1.5,0.1-3.1,0.2-4.8,0.3V7
		c4.1-0.1,6.9-0.3,8.3-0.5V8.9z M46.8,17.4l0.5-2c-0.6,0.1-1.1,0.3-1.4,0.6c-0.5,0.4-0.7,1.4-0.7,2.7c0,0.7,0.2,1.1,0.5,1.1
		c0.2,0,0.3-0.1,0.4-0.2C46.3,19.1,46.6,18.4,46.8,17.4z"/>
	<path fill="#FFFFFF" d="M106.9,23.5v-6.8c-1.1,1.3-2.4,2.8-3.8,4.5v-3.8c1.4-1.7,2.7-3.1,3.8-4.3v-1.3c-1.2,0.1-2.4,0.2-3.7,0.2
		V9.4c1.1,0,2.4-0.1,3.7-0.3V5.3h3.2V10c0.3-0.3,0.7-0.5,0.9-0.6c1.5-0.9,3.1-1.4,4.8-1.4c1.7,0,3,0.5,3.9,1.5
		c0.8,0.9,1.2,2.2,1.2,4.1c0,2.1-0.3,3.8-0.9,5.1c-0.5,1.1-1.3,1.9-2.4,2.5c-1.8,1-3.7,1.5-5.7,1.5V20c1.9-0.4,3.3-0.9,4.1-1.5
		c0.7-0.5,1.1-1,1.3-1.6c0.3-0.8,0.5-2,0.5-3.4c0-1.1-0.2-1.9-0.5-2.4c-0.4-0.5-1-0.7-1.8-0.7c-1.1,0-2.4,0.5-3.7,1.4
		c-0.5,0.3-1,0.8-1.6,1.4v10.2H106.9z"/>
	<path fill="#FFFFFF" d="M167,22.8h-3.6c1.7-5.2,2.9-9.4,3.8-12.4c-1,0-2,0-3.1,0V7.7c1.1,0,2.3,0,3.8-0.1c0.3-1,0.5-1.8,0.6-2.4
		h3.4c-0.2,0.7-0.4,1.5-0.5,2.3c1.3-0.1,2.6-0.2,4.1-0.3v2.5c-1.5,0.2-3.1,0.3-4.8,0.4C169.7,14,168.4,18.2,167,22.8z M175.3,16.4
		c-1.2,1.3-1.8,2.3-1.8,3c0,0.3,0.1,0.5,0.3,0.6c0.3,0.2,0.9,0.3,1.9,0.3c1.7,0,3.6-0.2,5.8-0.7v2.7c-1.9,0.4-3.9,0.6-6.1,0.6
		c-1.8,0-3.2-0.3-4-0.9c-0.7-0.5-1.1-1.3-1.1-2.3c0-1,0.5-2.1,1.5-3.2H175.3z M180.7,12.6c-0.1,0-0.2,0-0.3,0
		c-1.1,0.1-2.4,0.7-3.9,1.7h-3.6c0.6-0.5,1.2-0.9,1.7-1.3c-1,0.1-2,0.3-3,0.4v-2.5c3.7-0.5,6.7-0.8,9.1-0.8V12.6z"/>
</g>
</svg>
